<svg preserveAspectRatio="none" width="100%" height="100%" overflow="visible" style="display: block;" viewBox="0 0 31.5038 31.5" fill="none" xmlns="http://www.w3.org/2000/svg">
<g id="verify">
<path id="Vector" d="M10.3086 15.735L13.9227 19.3641L21.1659 12.106" stroke="var(--stroke-0, #E40C28)" stroke-width="1.5" stroke-linecap="round" stroke-linejoin="round"/>
<path id="Vector_2" d="M13.8642 1.41358C14.899 0.528805 16.5935 0.528805 17.6433 1.41358L20.0127 3.45307C20.4626 3.84298 21.3024 4.1579 21.9022 4.1579H24.4516C26.0412 4.1579 27.3459 5.46257 27.3459 7.05217V9.60154C27.3459 10.1864 27.6608 11.0412 28.0507 11.4911L30.0902 13.8605C30.9749 14.8952 30.9749 16.5898 30.0902 17.6395L28.0507 20.0089C27.6608 20.4588 27.3459 21.2986 27.3459 21.8985V24.4478C27.3459 26.0374 26.0412 27.3421 24.4516 27.3421H21.9022C21.3174 27.3421 20.4626 27.657 20.0127 28.0469L17.6433 30.0864C16.6085 30.9712 14.914 30.9712 13.8642 30.0864L11.4948 28.0469C11.0449 27.657 10.2051 27.3421 9.60529 27.3421H7.01093C5.42133 27.3421 4.11666 26.0374 4.11666 24.4478V21.8835C4.11666 21.2986 3.80174 20.4588 3.42683 20.0089L1.40234 17.6245C0.532554 16.5898 0.532554 14.9102 1.40234 13.8755L3.42683 11.4911C3.80174 11.0412 4.11666 10.2014 4.11666 9.61653V7.03718C4.11666 5.44758 5.42133 4.1429 7.01093 4.1429H9.60529C10.1901 4.1429 11.0449 3.82798 11.4948 3.43808L13.8642 1.41358Z" stroke="var(--stroke-0, #101820)" stroke-width="1.5" stroke-linecap="round" stroke-linejoin="round"/>
</g>
</svg>
