<svg width="76" height="33" viewBox="0 0 76 33" fill="none" xmlns="http://www.w3.org/2000/svg">
<path d="M34.728 30.9853V26.6924H33.0279V30.9853H34.728Z" fill="black"/>
<path d="M19.2988 30.9853V26.6924H17.6412V30.9853H19.2988Z" fill="black"/>
<path d="M44.0141 30.1114L41.1392 32.856H11.8678L8.99296 30.1114C8.99296 30.1114 8.55994 28.9762 8.99296 28.5431C9.42598 28.11 10.5611 28.5431 10.5611 28.5431L13.1746 30.8956H39.9631L42.446 28.5431C42.446 28.5431 43.5811 28.11 44.0141 28.5431C44.4471 28.9762 44.0141 30.1114 44.0141 30.1114Z" fill="black"/>
<path d="M27.4096 6.50214C26.8644 6.49634 26.3197 6.47628 25.7745 6.46256C24.948 6.44146 24.1215 6.3966 23.2955 6.4098C22.8807 6.41613 22.459 6.49475 22.0552 6.59818C21.3237 6.7855 20.5885 6.7206 19.8538 6.69052C18.5011 6.63511 17.1489 6.56388 15.7962 6.49739C13.4866 6.38341 11.1776 6.26416 8.86745 6.1544C7.09357 6.06997 5.31915 5.98555 3.54421 5.92434C2.83645 5.89953 2.18463 5.67527 1.52437 5.46631C1.2399 5.37661 0.957005 5.28163 0.674112 5.18665C0.6055 5.16343 0.54111 5.13018 0.474609 5.10116C0.479359 5.07425 0.484637 5.04734 0.489387 5.02096C9.11446 5.26632 17.7395 5.51222 26.3646 5.75759L26.3831 5.68319C26.2569 5.62145 26.135 5.54758 26.0036 5.50114C25.3502 5.27055 24.7031 5.01198 24.035 4.83627C23.7104 4.75131 23.3372 4.78667 22.9968 4.83891C22.4284 4.92597 21.8789 4.90276 21.3316 4.73443C16.4945 3.24638 11.6573 1.75992 6.82123 0.270822C6.70195 0.233885 6.5927 0.16476 6.47922 0.110937C6.48397 0.0850806 6.48925 0.0586968 6.494 0.0328407C6.5927 0.0265086 6.69139 0.0143721 6.79009 0.0143721C7.99502 0.0133167 9.20207 -0.0267866 10.4044 0.0317854C10.9438 0.0581691 11.4805 0.258686 12.0062 0.419099C16.6618 1.83749 21.3132 3.26855 25.9693 4.68535C26.4274 4.82466 27.7479 4.9513 28.301 5.05103C28.4493 5.07794 28.5897 4.94339 28.7349 4.98402C30.4175 5.45101 30.3995 5.14443 30.4175 5.45101C30.7922 5.4299 31.168 5.42199 31.5416 5.38558C33.0194 5.24047 34.4962 5.08375 35.9735 4.93705C37.3114 4.80408 38.6499 4.67849 39.9878 4.55027C41.3959 4.41571 42.803 4.26955 44.2127 4.15187C45.8763 4.0131 47.5409 3.87326 49.2082 3.79094C49.7576 3.76403 50.316 3.91442 50.8686 4.02787C44.9284 4.7397 38.9639 5.17029 33.0374 5.94914L33.0353 6.03409C33.2126 6.06575 33.3884 6.11008 33.5668 6.12591C34.6171 6.21878 35.6684 6.30479 36.7192 6.39291C37.9363 6.49528 39.1534 6.60029 40.371 6.69896C41.7728 6.81241 43.1751 6.91584 44.5769 7.03034C45.9607 7.14327 47.3435 7.26621 48.7274 7.38072C49.9096 7.47834 51.0929 7.56593 52.2757 7.66408C53.668 7.77911 55.0603 7.89995 56.4521 8.01868C56.9841 8.06406 57.5277 8.0514 58.0101 8.33792C58.0391 8.35534 58.0703 8.36958 58.1098 8.4519C58.0027 8.46931 57.8945 8.50572 57.7879 8.50097C56.5407 8.44557 55.292 8.40494 54.0464 8.31945C51.8192 8.16643 49.594 7.98649 47.3678 7.81552C45.186 7.64772 43.0046 7.47254 40.8228 7.3079C39.2626 7.19023 37.7014 7.08575 36.1413 6.97388C34.6419 6.86624 33.1429 6.75701 31.6435 6.64883C31.576 6.64408 31.5073 6.64831 31.4234 6.64831" fill="black"/>
<rect width="1.82768" height="3.06031" rx="0.913841" transform="matrix(-1 0 0 1 30.228 4.67529)" fill="#E40C28"/>
<path d="M36.0823 7.5372C37.4316 7.70376 38.7808 7.8718 40.13 8.03247C40.4854 8.07522 40.7198 8.2462 40.8968 8.55869C41.2359 9.1542 41.6119 9.72759 41.957 10.3201C42.0661 10.5073 43.8725 13.7826 44.0479 14.1909C44.073 14.2499 44.2101 14.2852 44.2971 14.2897C45.0388 14.3354 45.7791 14.3737 46.5208 14.4076C50.5891 14.5963 54.6574 14.7805 58.7257 14.9721C60.8388 15.0709 62.9504 15.18 65.0619 15.292C65.2669 15.3023 65.3775 15.2537 65.4719 15.0532C67.2296 11.3402 69.0005 7.63154 70.7567 3.91701C70.8732 3.66938 71.0015 3.59273 71.264 3.61779C72.1472 3.70476 73.0334 3.77109 73.9182 3.84774C74.017 3.85658 74.1128 3.88311 74.2249 3.90522C73.2974 6.40368 72.3773 8.88298 71.4439 11.3976C71.8066 11.4286 72.131 11.4345 72.448 11.4876C73.4935 11.66 74.275 12.2452 74.8973 13.078C76.6594 15.4365 76.2657 18.9933 74.0273 20.8181C73.0408 21.6229 71.9246 21.7703 70.7243 21.4136C70.5149 21.3517 70.3055 21.2883 70.0489 21.2102C70.304 22.6252 70.5488 23.9769 70.7995 25.3654C70.0946 25.501 69.4149 25.6366 68.7351 25.7605C67.9447 25.9049 67.9418 25.902 67.6277 25.162C66.8786 23.3947 66.1325 21.6258 65.3893 19.8556C65.3244 19.7008 65.2743 19.5755 65.059 19.6153C64.0548 19.8025 63.0492 19.9779 62.0081 20.1651C62.0642 20.877 62.104 21.5684 62.1747 22.2582C62.2514 22.9937 62.2647 22.9937 61.5289 23.1485C61.0246 23.2546 60.5218 23.3593 59.985 23.4713C59.7211 22.7402 59.4601 22.0268 59.2035 21.3119C59.0221 20.8063 59.0221 20.8019 58.4839 20.8962C55.144 21.4843 51.8041 22.0754 48.4642 22.6665C48.4112 22.6753 47.4483 22.8242 47.2286 22.8655C46.2008 23.0542 45.1701 23.2207 44.1467 23.43C43.8857 23.4831 43.4094 23.7912 43.4094 23.7912C40.5001 30.0189 17.2344 27.3598 17.2344 27.3598C16.6918 27.3008 16.1801 27.2566 15.6729 27.1858C13.9933 26.9515 12.3109 26.7289 10.6372 26.4606C9.24082 26.2366 7.83999 26.014 6.46864 25.6794C4.78469 25.2696 3.16414 24.6476 1.7058 23.685C1.26343 23.3932 0.853499 23.0129 0.518773 22.6002C-0.21556 21.6966 -0.156577 20.5513 0.608722 19.6713C1.31209 18.8606 2.18945 18.3093 3.20985 17.9968C4.08132 17.73 4.79796 17.2348 5.46889 16.6378C6.796 15.4571 8.11573 14.2661 9.4915 13.1444C11.1106 11.8251 13.0083 11.1426 15.0786 10.9097C15.2969 10.8847 17.5013 10.4042 17.3878 10.8021C18.0263 10.8257 23.7196 8.38181 23.6473 7.74061C23.5987 7.30725 27.375 7.05667 28.9277 7.05372" fill="black"/>
<path d="M29.8013 24.3531C29.9956 23.0635 30.1893 21.7767 30.3843 20.4899C30.4885 19.7992 30.6083 19.11 30.6942 18.4165C30.7252 18.1685 30.8075 18.0845 31.0632 18.0803C33.501 18.0361 35.9389 17.9808 38.3768 17.924C39.9591 17.8869 41.5407 17.8421 43.1223 17.8022C43.285 17.798 43.4469 17.8022 43.642 17.8022C43.7377 18.6371 43.8391 19.4539 43.9124 20.2735C43.9201 20.3582 43.7751 20.4997 43.6708 20.5445C42.4449 21.0657 41.2294 21.617 39.9802 22.0765C36.8945 23.2113 33.6996 23.9103 30.4393 24.3243C30.2653 24.3467 30.0914 24.3706 29.9175 24.3881C29.8865 24.3916 29.8527 24.3699 29.8013 24.3545V24.3531Z" fill="white"/>
<path d="M21.7292 11.9341C22.8253 12.0088 23.8692 12.0462 24.9047 12.159C26.5228 12.3353 28.1352 12.5658 29.7519 12.764C29.966 12.7901 30.0724 12.8803 30.1555 13.0805C30.8078 14.6508 30.8642 16.2534 30.5528 17.9132C30.2464 19.5482 30.0386 21.2024 29.7864 22.8473C29.7174 23.2993 29.6413 23.7498 29.5708 24.2018C29.5427 24.3816 29.4708 24.4782 29.2602 24.4944C27.9626 24.5917 26.6679 24.7398 25.3682 24.8046C23.9862 24.8737 22.5999 24.8702 21.2157 24.8977C21.1466 24.8991 21.0776 24.8921 20.96 24.8864C21.0769 24.3082 21.1882 23.7505 21.3016 23.1942C21.7898 20.7948 22.2878 18.3969 22.7619 15.9946C22.9302 15.1394 22.7393 14.3137 22.4125 13.5198C22.2033 13.0122 21.9793 12.5115 21.7299 11.9341H21.7292ZM29.6455 15.7366C29.6751 14.4611 29.3018 14.0183 28.4459 13.8928C28.1909 13.8554 27.9359 13.8159 27.6795 13.7892C26.5841 13.6763 25.4894 13.5459 24.3919 13.4662C23.7579 13.4204 23.491 13.7299 23.4367 14.3652C23.374 15.1006 23.2796 15.8332 23.1881 16.5658C23.088 17.3681 22.9648 18.1677 22.876 18.9708C22.8373 19.3233 23.0338 19.5518 23.3832 19.6195C23.5656 19.6547 23.7579 19.6914 23.9404 19.6716C25.3852 19.5151 26.8292 19.3536 28.2719 19.1739C28.6354 19.1287 28.9784 18.9503 29.0651 18.5682C29.3074 17.4951 29.5088 16.4135 29.6455 15.7352V15.7366ZM23.7854 21.6325C23.1458 21.404 22.571 21.3934 21.9898 21.6515C22.18 22.0661 23.2529 22.0675 23.7854 21.6325Z" fill="#E40C28"/>
<path d="M13.437 24.8462C14.6401 23.8798 15.0521 22.4946 15.6201 21.2047C16.2862 19.6926 16.9093 18.1616 17.5937 16.658C18.1201 15.5027 18.0933 14.3657 17.6353 13.216C17.4632 12.7831 17.2515 12.3658 17.0462 11.9147C17.1548 11.9091 17.255 11.8999 17.3552 11.8999C18.5893 11.8978 19.8227 11.902 21.0568 11.8921C21.284 11.89 21.4089 11.9563 21.5154 12.1699C21.9755 13.094 22.5301 14.0054 22.5329 15.0593C22.535 15.9038 22.389 16.7588 22.2231 17.592C21.7631 19.9119 21.2579 22.2233 20.776 24.5389C20.7322 24.7489 20.6976 24.8998 20.4168 24.8984C18.137 24.8871 15.8579 24.8906 13.5781 24.8892C13.557 24.8892 13.5358 24.8765 13.4377 24.8462H13.437ZM19.743 13.6079C18.5858 13.6142 18.3275 13.8638 18.4637 14.9768C18.5279 15.502 18.4334 15.9757 18.2548 16.4522C17.902 17.3961 17.5394 18.3357 17.2042 19.2859C16.9354 20.0472 17.2211 20.4652 18.0269 20.523C18.1991 20.5357 18.384 20.5251 18.5477 20.4765C19.2328 20.2721 19.9109 20.0458 20.5939 19.8329C21.0032 19.7053 21.2431 19.4283 21.339 19.0202C21.4251 18.655 21.5211 18.2913 21.5832 17.9219C21.7208 17.1035 21.9176 16.2851 21.9465 15.4618C21.9839 14.3875 21.4293 13.8144 20.3766 13.6445C20.1691 13.6114 19.9546 13.6192 19.7437 13.6086L19.743 13.6079Z" fill="#E40C28"/>
<path d="M4.4799 24.1055C4.70589 23.7534 4.90583 23.4421 5.12337 23.1026C4.56016 22.9845 4.03425 22.8974 3.52102 22.7603C3.13944 22.6584 2.75998 22.5228 2.40797 22.3456C2.00316 22.1418 1.97922 21.8396 2.35728 21.5978C2.71774 21.3666 3.10987 21.1536 3.51821 21.0342C4.59395 20.7193 5.688 20.4656 6.77007 20.1704C6.91862 20.1296 7.08829 20.0235 7.16925 19.897C8.21895 18.2495 9.2792 16.6077 10.2874 14.9342C11.3884 13.1062 13.0309 12.222 15.1043 12.0217C15.4887 11.9844 15.8738 11.9486 16.2574 11.9001C16.5461 11.8636 16.7629 11.9493 16.9002 12.2129C17.3233 13.026 17.7169 13.8645 17.7683 14.7838C17.7957 15.2779 17.6859 15.8191 17.4937 16.2788C16.5461 18.5412 15.5492 20.7832 14.5706 23.033C14.2876 23.6831 13.8525 24.2208 13.2682 24.6088C13.0464 24.7564 12.7233 24.8245 12.4515 24.8119C10.8245 24.736 9.19753 24.6453 7.57336 24.5188C6.60533 24.4436 5.64364 24.2932 4.67913 24.1744C4.62422 24.1674 4.57212 24.1386 4.4799 24.107V24.1055ZM11.4082 21.1754C11.4082 21.1445 11.4082 21.1136 11.4082 21.0827C12.2635 21.0827 13.1189 21.0904 13.9736 21.0798C14.5354 21.0728 14.9768 20.831 15.2042 20.3025C15.8336 18.8441 16.4665 17.3864 17.0643 15.9154C17.4796 14.8921 17.3205 13.8969 16.7728 12.9558C16.5869 12.6367 16.3194 12.4603 15.9315 12.5095C15.5365 12.5594 15.1423 12.6163 14.7452 12.6458C13.0858 12.7709 11.813 13.5293 10.9344 14.9427C10.0698 16.3336 9.20176 17.7224 8.34637 19.1189C8.19501 19.3656 8.0704 19.6369 7.9831 19.9124C7.75289 20.6349 8.11898 21.155 8.8758 21.1712C9.71921 21.1895 10.5633 21.1754 11.4067 21.1754H11.4082ZM10.2191 21.7525C10.2191 21.7588 10.2191 21.7644 10.2184 21.7707C9.69176 21.7953 9.16515 21.8312 8.63854 21.841C7.99929 21.8537 7.58885 22.1875 7.32625 22.7357C6.99747 23.4238 7.21431 23.8223 7.96057 23.9755C8.83496 24.1554 9.70724 24.1161 10.5823 24.0029C11.3617 23.9017 11.9552 23.4955 12.4029 22.8664C12.5656 22.638 12.7409 22.3934 12.5895 22.0947C12.4353 21.789 12.1368 21.7553 11.8362 21.7546C11.2969 21.7525 10.7583 21.7546 10.2191 21.7546V21.7525Z" fill="#E40C28"/>
<path d="M64.7744 17.7422C57.9087 18.534 51.0423 19.3258 44.1529 20.1201C44.0749 19.29 44.0001 18.5001 43.9233 17.6821H64.7833C64.7801 17.702 64.7776 17.7224 64.7744 17.7422Z" fill="url(#paint0_linear_505_5938)"/>
<path d="M42.6982 17.3073C38.7786 17.3867 34.8582 17.4654 30.9815 17.5441C30.9815 16.7444 31.0434 15.9813 30.9639 15.2336C30.8843 14.4859 30.6626 13.7537 30.481 12.9111C31.1441 13.0081 31.7854 13.0538 32.4042 13.2006C35.6973 13.9793 38.8588 15.1212 41.8584 16.6938C42.1562 16.8498 42.435 17.0424 42.7222 17.2173L42.6975 17.308L42.6982 17.3073ZM33.841 15.2448C33.8276 15.2863 33.8149 15.3278 33.8016 15.3692C34.0993 15.8695 34.4077 16.3642 34.6907 16.873C34.7984 17.0663 34.9279 17.1204 35.1384 17.1183C36.1584 17.1084 37.1785 17.114 38.1985 17.1119C38.2971 17.1119 38.3949 17.0958 38.5392 17.0824C38.2893 16.6446 38.0824 16.2385 37.8296 15.8625C37.7297 15.7142 37.5354 15.5533 37.3699 15.5372C36.1957 15.4198 35.018 15.3376 33.841 15.2448Z" fill="#E40C28"/>
<path d="M23.7652 21.6316C23.2357 22.0744 22.1691 22.073 21.98 21.651C22.5578 21.3883 23.1292 21.3991 23.7652 21.6316Z" fill="#E40C28"/>
<path d="M10.2142 21.755C10.7506 21.755 11.2863 21.7536 11.8227 21.755C12.1217 21.7564 12.4186 21.7893 12.5719 22.0939C12.7218 22.3922 12.5474 22.6351 12.3863 22.8627C11.941 23.4893 11.3507 23.8947 10.5756 23.9948C9.70588 24.1075 8.8376 24.1467 7.96792 23.9675C7.22568 23.8148 7.00931 23.4179 7.33701 22.7324C7.5975 22.1863 8.00573 21.8538 8.64224 21.8411C9.166 21.8306 9.68977 21.7956 10.2135 21.7711C10.2135 21.7648 10.2135 21.7592 10.2142 21.7529V21.755Z" fill="#E40C28"/>
<path d="M33.836 15.2505C35.018 15.3438 36.2021 15.4252 37.382 15.5423C37.5482 15.5591 37.7434 15.7191 37.8439 15.8671C38.0978 16.2417 38.3058 16.6478 38.5569 17.0848C38.4119 17.0975 38.3135 17.1136 38.2145 17.1143C37.1896 17.1164 36.1646 17.1108 35.1396 17.1206C34.9281 17.1227 34.798 17.0694 34.6898 16.8758C34.4054 16.3679 34.0956 15.8741 33.7964 15.3747C33.8098 15.3333 33.8226 15.2919 33.836 15.2505Z" fill="#E40C28"/>
<defs>
<linearGradient id="paint0_linear_505_5938" x1="64.7833" y1="18.9011" x2="43.9233" y2="18.9011" gradientUnits="userSpaceOnUse">
<stop/>
<stop offset="1" stop-color="#E40C28"/>
</linearGradient>
</defs>
</svg>