<svg preserveAspectRatio="none" width="100%" height="100%" overflow="visible" style="display: block;" viewBox="0 0 99 42.799" fill="none" xmlns="http://www.w3.org/2000/svg">
<g id="Group">
<g id="Group 360">
<path id="Vector 11" d="M45.2381 40.3627V34.7705H43.0234V40.3627H45.2381Z" fill="var(--fill-0, black)"/>
<path id="Vector 12" d="M25.1397 40.3627V34.7705H22.9803V40.3627H25.1397Z" fill="var(--fill-0, black)"/>
<path id="Vector 10" d="M57.3344 39.2237L53.5895 42.799H15.4595L11.7146 39.2237C11.7146 39.2237 11.1505 37.7449 11.7146 37.1807C12.2787 36.6166 13.7573 37.1807 13.7573 37.1807L17.1617 40.2452H52.0575L55.2917 37.1807C55.2917 37.1807 56.7703 36.6166 57.3344 37.1807C57.8984 37.7449 57.3344 39.2237 57.3344 39.2237Z" fill="var(--fill-0, black)"/>
</g>
<path id="Vector" d="M35.7048 8.46992C34.9946 8.46236 34.2851 8.43624 33.5749 8.41837C32.4982 8.39087 31.4216 8.33245 30.3456 8.34963C29.8053 8.35788 29.2559 8.4603 28.73 8.59502C27.7771 8.83904 26.8194 8.75449 25.8624 8.71531C24.1003 8.64314 22.3389 8.55034 20.5768 8.46373C17.5682 8.31526 14.5604 8.15992 11.5511 8.01694C9.24039 7.90696 6.92898 7.79699 4.61687 7.71725C3.69492 7.68494 2.84584 7.39281 1.98576 7.12062C1.61519 7.00376 1.24669 6.88004 0.878181 6.75631C0.788804 6.72607 0.704928 6.68276 0.618301 6.64496C0.624489 6.6099 0.631364 6.57484 0.637552 6.54048C11.8729 6.8601 23.1082 7.18042 34.3435 7.50004L34.3676 7.40312C34.2033 7.3227 34.0445 7.22647 33.8733 7.16598C33.0221 6.8656 32.1792 6.52879 31.3088 6.2999C30.886 6.18923 30.4 6.23528 29.9565 6.30333C29.2161 6.41675 28.5004 6.38651 27.7874 6.16723C21.4864 4.22886 15.1853 2.29254 8.88564 0.352783C8.73026 0.304667 8.58794 0.214622 8.44013 0.14451C8.44632 0.110829 8.45319 0.0764605 8.45938 0.0427795C8.58794 0.0345311 8.71651 0.0187216 8.84507 0.0187216C10.4147 0.0173468 11.987 -0.0348932 13.5532 0.0414047C14.2558 0.0757732 14.955 0.336973 15.6398 0.545933C21.7043 2.39358 27.7633 4.25772 33.8286 6.10331C34.4253 6.28477 36.1455 6.44974 36.866 6.57966C37.0592 6.61471 37.2421 6.43943 37.4311 6.49236C39.6229 7.10068 39.5996 6.70132 39.6229 7.10068C40.1111 7.07319 40.6006 7.06288 41.0873 7.01545C43.0124 6.82642 44.936 6.62227 46.8604 6.43118C48.6032 6.25797 50.3467 6.09437 52.0896 5.92734C53.9239 5.75206 55.7568 5.56166 57.5931 5.40838C59.7602 5.2276 61.9286 5.04545 64.1004 4.93822C64.8161 4.90316 65.5435 5.09906 66.2633 5.24685C58.5254 6.17411 50.7558 6.735 43.0357 7.74956L43.033 7.86022C43.264 7.90147 43.4929 7.9592 43.7253 7.97983C45.0935 8.1008 46.463 8.21284 47.8318 8.32763C49.4172 8.46098 51.0026 8.59777 52.5887 8.72631C54.4148 8.87409 56.2415 9.00882 58.0675 9.15798C59.8702 9.30507 61.6715 9.46523 63.4741 9.61439C65.0141 9.74155 66.5555 9.85566 68.0963 9.98351C69.9099 10.1334 71.7236 10.2908 73.5365 10.4454C74.2295 10.5045 74.9377 10.488 75.5661 10.8613C75.6039 10.884 75.6445 10.9025 75.696 11.0097C75.5564 11.0324 75.4155 11.0799 75.2766 11.0737C73.652 11.0015 72.0254 10.9486 70.4029 10.8372C67.5016 10.6379 64.603 10.4035 61.7031 10.1808C58.8609 9.9622 56.0194 9.73399 53.1772 9.51953C51.1449 9.36625 49.1113 9.23015 47.079 9.08443C45.1258 8.9442 43.1732 8.80192 41.22 8.66101C41.132 8.65482 41.0426 8.66032 40.9333 8.66032" fill="var(--fill-0, black)"/>
<rect id="Rectangle 46" width="2.3808" height="3.98646" rx="1.1904" transform="matrix(-1 0 0 1 39.3755 6.09002)" fill="var(--fill-0, black)"/>
<path id="Vector_2" d="M47.0021 9.81752C48.7597 10.0345 50.5172 10.2534 52.2748 10.4627C52.7377 10.5184 53.0431 10.7411 53.2736 11.1482C53.7154 11.9239 54.2052 12.6708 54.6547 13.4427C54.7968 13.6865 57.1498 17.953 57.3784 18.4849C57.4111 18.5617 57.5897 18.6078 57.703 18.6135C58.6692 18.6731 59.6334 18.723 60.5996 18.7671C65.8992 19.0129 71.1987 19.2529 76.4983 19.5025C79.2508 19.6312 82.0014 19.7733 84.752 19.9192C85.019 19.9326 85.1631 19.8693 85.286 19.6081C87.5756 14.7714 89.8825 9.94041 92.1702 5.10174C92.322 4.77916 92.4891 4.67932 92.831 4.71196C93.9816 4.82524 95.136 4.91165 96.2885 5.01149C96.4172 5.02301 96.542 5.05758 96.688 5.08638C95.4798 8.34096 94.2812 11.5706 93.0653 14.8463C93.5379 14.8866 93.9604 14.8943 94.3734 14.9634C95.7353 15.1881 96.7533 15.9503 97.5639 17.0352C99.8593 20.1074 99.3464 24.7406 96.4306 27.1177C95.1456 28.1661 93.6915 28.3581 92.128 27.8934C91.8552 27.8128 91.5825 27.7302 91.2482 27.6284C91.5805 29.4717 91.8994 31.2325 92.2259 33.0412C91.3078 33.2179 90.4223 33.3945 89.5368 33.5558C88.5072 33.744 88.5034 33.7401 88.0942 32.7762C87.1185 30.474 86.1465 28.1699 85.1784 25.8639C85.0939 25.6622 85.0286 25.499 84.7482 25.5509C83.4401 25.7947 82.1301 26.0232 80.774 26.2671C80.847 27.1945 80.8989 28.095 80.9911 28.9936C81.0909 29.9518 81.1082 29.9518 80.1497 30.1534C79.4928 30.2916 78.8378 30.4279 78.1386 30.5739C77.7948 29.6215 77.4548 28.6922 77.1206 27.7609C76.8843 27.1023 76.8843 27.0966 76.1832 27.2194C71.8326 27.9856 67.4819 28.7555 63.1313 29.5255C63.0621 29.537 61.8078 29.7309 61.5216 29.7847C60.1828 30.0305 58.8402 30.2475 57.5071 30.5201C57.1671 30.5892 56.5467 30.9905 56.5467 30.9905C52.7569 39.103 22.4502 35.6391 22.4502 35.6391C21.7433 35.5623 21.0768 35.5047 20.416 35.4125C18.2282 35.1072 16.0366 34.8173 13.8564 34.4679C12.0374 34.176 10.2126 33.8861 8.42628 33.4502C6.23271 32.9164 4.12173 32.1061 2.22203 30.8523C1.64579 30.4721 1.1118 29.9767 0.675773 29.4391C-0.280796 28.2621 -0.203963 26.7701 0.792943 25.6238C1.70917 24.5678 2.85206 23.8497 4.18127 23.4426C5.31648 23.0951 6.24999 22.4499 7.12397 21.6723C8.85271 20.1343 10.5718 18.5828 12.364 17.1216C14.473 15.4031 16.9451 14.5141 19.642 14.2107C19.9262 14.1781 22.7979 13.5521 22.65 14.0706C23.4817 14.1013 30.898 10.9177 30.8038 10.0825C30.7405 9.51798 35.6597 9.19157 37.6823 9.18773" fill="var(--fill-0, black)"/>
<path id="Vector_3" d="M38.82 31.7224C39.0731 30.0425 39.3254 28.3663 39.5795 26.6901C39.7152 25.7904 39.8712 24.8925 39.9831 23.9892C40.0235 23.6662 40.1308 23.5567 40.4638 23.5512C43.6394 23.4937 46.8151 23.4216 49.9908 23.3477C52.0519 23.2994 54.1122 23.241 56.1724 23.189C56.3843 23.1835 56.5953 23.189 56.8494 23.189C56.9741 24.2766 57.1062 25.3406 57.2016 26.4082C57.2117 26.5186 57.0227 26.7029 56.887 26.7613C55.29 27.4402 53.7067 28.1583 52.0794 28.7568C48.0599 30.2351 43.8981 31.1457 39.651 31.685C39.4245 31.7142 39.1979 31.7452 38.9713 31.768C38.931 31.7726 38.8869 31.7443 38.82 31.7242V31.7224Z" fill="var(--fill-0, white)"/>
<path id="Vector_4" d="M28.3055 15.5452C29.7333 15.6425 31.0932 15.6912 32.4421 15.8382C34.5499 16.0678 36.6503 16.3681 38.7562 16.6262C39.0351 16.6602 39.1737 16.7778 39.282 17.0386C40.1317 19.084 40.2051 21.1717 39.7995 23.3338C39.4003 25.4637 39.1296 27.6184 38.8011 29.7612C38.7112 30.3499 38.6121 30.9368 38.5204 31.5255C38.4837 31.7597 38.3901 31.8856 38.1157 31.9067C36.4255 32.0334 34.7389 32.2263 33.0459 32.3108C31.2456 32.4008 29.4397 32.3962 27.6366 32.432C27.5467 32.4339 27.4568 32.4247 27.3035 32.4174C27.4558 31.6642 27.6008 30.9377 27.7486 30.213C28.3845 27.0875 29.0332 23.9638 29.6508 20.8346C29.8701 19.7205 29.6214 18.645 29.1956 17.6108C28.9231 16.9495 28.6313 16.2974 28.3065 15.5452H28.3055ZM38.6176 20.4985C38.6562 18.837 38.1698 18.2602 37.0549 18.0967C36.7228 18.048 36.3906 17.9966 36.0566 17.9617C34.6297 17.8147 33.2037 17.6448 31.7741 17.541C30.9483 17.4813 30.6005 17.8845 30.5298 18.712C30.4482 19.67 30.3252 20.6243 30.2059 21.5786C30.0756 22.6238 29.915 23.6653 29.7994 24.7114C29.7489 25.1707 30.005 25.4683 30.4601 25.5564C30.6978 25.6024 30.9483 25.6501 31.1859 25.6244C33.0679 25.4205 34.949 25.2102 36.8283 24.976C37.3018 24.9172 37.7487 24.6848 37.8615 24.187C38.1772 22.7891 38.4396 21.3802 38.6176 20.4966V20.4985ZM30.984 28.1786C30.1509 27.8811 29.4021 27.8673 28.6451 28.2034C28.8928 28.7435 30.2903 28.7453 30.984 28.1786Z" fill="var(--fill-0, white)"/>
<path id="Vector_5" d="M17.5035 32.3647C19.0706 31.1058 19.6074 29.3015 20.3473 27.6211C21.2149 25.6515 22.0265 23.6571 22.9181 21.6985C23.6038 20.1935 23.5689 18.7123 22.9723 17.2147C22.7481 16.6509 22.4723 16.1073 22.2049 15.5196C22.3464 15.5123 22.4769 15.5004 22.6074 15.5004C24.215 15.4976 25.8217 15.5031 27.4292 15.4903C27.7252 15.4875 27.8879 15.5738 28.0267 15.852C28.626 17.0558 29.3484 18.2431 29.3521 19.6159C29.3548 20.7159 29.1646 21.8298 28.9486 22.9151C28.3493 25.937 27.6912 28.9479 27.0634 31.9643C27.0064 32.238 26.9614 32.4345 26.5956 32.4326C23.6258 32.418 20.657 32.4225 17.6873 32.4207C17.6597 32.4207 17.6321 32.4042 17.5044 32.3647H17.5035ZM25.7178 17.7252C24.2104 17.7335 23.874 18.0586 24.0514 19.5085C24.135 20.1925 24.0119 20.8096 23.7793 21.4303C23.3198 22.6598 22.8473 23.8839 22.4107 25.1216C22.0606 26.1133 22.4328 26.6579 23.4825 26.7331C23.7067 26.7497 23.9475 26.7359 24.1608 26.6725C25.0533 26.4063 25.9366 26.1115 26.8263 25.8342C27.3594 25.668 27.6719 25.3071 27.7969 24.7755C27.909 24.2998 28.034 23.826 28.1149 23.3449C28.2942 22.2788 28.5506 21.2127 28.5883 20.1402C28.637 18.7408 27.9145 17.9943 26.5432 17.773C26.273 17.7298 25.9935 17.7399 25.7187 17.7262L25.7178 17.7252Z" fill="var(--fill-0, white)"/>
<path id="Vector_6" d="M5.83562 31.3999C6.13 30.9412 6.39045 30.5356 6.67383 30.0934C5.94016 29.9396 5.2551 29.8261 4.58655 29.6475C4.08949 29.5148 3.59519 29.3381 3.13664 29.1074C2.60932 28.8419 2.57814 28.4482 3.07061 28.1332C3.54016 27.832 4.05098 27.5546 4.58288 27.399C5.98418 26.9888 7.40933 26.6583 8.81888 26.2738C9.01239 26.2207 9.2334 26.0824 9.33887 25.9176C10.7062 23.7716 12.0874 21.6329 13.4006 19.453C14.8349 17.0717 16.9745 15.9199 19.6753 15.659C20.176 15.6105 20.6777 15.5638 21.1775 15.5006C21.5535 15.453 21.8359 15.5647 22.0148 15.908C22.5659 16.9673 23.0786 18.0596 23.1455 19.2571C23.1813 19.9007 23.0382 20.6057 22.7879 21.2044C21.5535 24.1516 20.2549 27.0721 18.9801 30.0028C18.6115 30.8496 18.0447 31.55 17.2835 32.0554C16.9947 32.2477 16.5737 32.3365 16.2197 32.32C14.1004 32.2211 11.981 32.103 9.86527 31.9382C8.60428 31.8402 7.35155 31.6443 6.09515 31.4896C6.02362 31.4804 5.95575 31.4429 5.83562 31.4017V31.3999ZM14.8606 27.583C14.8606 27.5427 14.8606 27.5024 14.8606 27.4621C15.9749 27.4621 17.0891 27.4722 18.2025 27.4585C18.9343 27.4493 19.5093 27.1344 19.8055 26.4459C20.6254 24.5462 21.4498 22.6473 22.2284 20.7311C22.7695 19.3981 22.5623 18.1017 21.8488 16.8758C21.6067 16.4601 21.2582 16.2303 20.7529 16.2944C20.2384 16.3594 19.7248 16.4336 19.2076 16.472C17.046 16.635 15.3879 17.6228 14.2434 19.464C13.1172 21.2758 11.9865 23.085 10.8722 24.9041C10.6751 25.2255 10.5127 25.5789 10.399 25.9378C10.0991 26.8789 10.576 27.5564 11.5619 27.5775C12.6605 27.6013 13.7601 27.583 14.8588 27.583H14.8606ZM13.3117 28.3347C13.3117 28.3429 13.3117 28.3502 13.3107 28.3585C12.6248 28.3905 11.9388 28.4372 11.2528 28.45C10.4201 28.4665 9.88545 28.9014 9.54338 29.6155C9.1151 30.5118 9.39756 31.0309 10.3697 31.2305C11.5087 31.4649 12.6449 31.4136 13.7849 31.2662C14.8001 31.1344 15.5732 30.6052 16.1565 29.7858C16.3683 29.4882 16.5966 29.1696 16.3995 28.7805C16.1986 28.3823 15.8098 28.3383 15.4182 28.3374C14.7157 28.3347 14.0141 28.3374 13.3117 28.3374V28.3347Z" fill="var(--fill-0, white)"/>
<path id="Vector_7" d="M84.3777 23.1109C75.4342 24.1423 66.4899 25.1737 57.5155 26.2084C57.4139 25.127 57.3164 24.0981 57.2164 23.0325H84.3894C84.3852 23.0584 84.3819 23.085 84.3777 23.1109Z" fill="url(#paint0_linear_0_12)"/>
<path id="Vector_8" d="M55.6206 22.5451C50.5146 22.6486 45.4078 22.7511 40.3579 22.8536C40.3579 21.8119 40.4386 20.8178 40.3349 19.8439C40.2313 18.8699 39.9425 17.9161 39.7059 16.8185C40.5697 16.9449 41.4051 17.0044 42.2111 17.1957C46.5009 18.2099 50.6192 19.6974 54.5266 21.746C54.9145 21.9492 55.2776 22.2 55.6517 22.428L55.6196 22.546L55.6206 22.5451ZM44.0828 19.8585C44.0653 19.9125 44.0488 19.9665 44.0314 20.0205C44.4193 20.6723 44.8209 21.3167 45.1896 21.9794C45.3299 22.2311 45.4986 22.3016 45.7728 22.2989C47.1015 22.2861 48.4303 22.2934 49.759 22.2906C49.8874 22.2906 50.0149 22.2696 50.2029 22.2522C49.8773 21.6819 49.6077 21.1528 49.2785 20.6631C49.1483 20.47 48.8952 20.2603 48.6797 20.2393C47.1501 20.0864 45.616 19.9793 44.0828 19.8585Z" fill="var(--fill-0, white)"/>
<path id="Vector_9" d="M30.9578 28.1769C30.2681 28.7537 28.8787 28.7518 28.6323 28.2021C29.385 27.86 30.1294 27.874 30.9578 28.1769Z" fill="var(--fill-0, white)"/>
<path id="Vector_10" d="M13.3059 28.3379C14.0046 28.3379 14.7024 28.3361 15.4011 28.3379C15.7906 28.3397 16.1773 28.3826 16.3771 28.7793C16.5723 29.1678 16.3452 29.4843 16.1354 29.7807C15.5552 30.597 14.7863 31.125 13.7766 31.2555C12.6437 31.4023 11.5126 31.4534 10.3798 31.2199C9.4129 31.0211 9.13105 30.5039 9.55793 29.6111C9.89725 28.8997 10.429 28.4665 11.2582 28.4501C11.9404 28.4364 12.6227 28.3908 13.305 28.3589C13.305 28.3506 13.305 28.3433 13.3059 28.3351V28.3379Z" fill="var(--fill-0, black)"/>
<path id="Vector_11" d="M44.0761 19.8644C45.6158 19.986 47.1583 20.092 48.6952 20.2446C48.9118 20.2665 49.1661 20.4748 49.2969 20.6676C49.6277 21.1556 49.8986 21.6847 50.2257 22.2539C50.0368 22.2704 49.9087 22.2914 49.7797 22.2923C48.4446 22.295 47.1095 22.2877 45.7743 22.3005C45.4988 22.3033 45.3293 22.2338 45.1883 21.9816C44.8179 21.3201 44.4143 20.6768 44.0245 20.0262C44.042 19.9723 44.0586 19.9183 44.0761 19.8644Z" fill="var(--fill-0, black)"/>
</g>
<defs>
<linearGradient id="paint0_linear_0_12" x1="84.3894" y1="24.6205" x2="57.2164" y2="24.6205" gradientUnits="userSpaceOnUse">
<stop/>
<stop offset="1" stop-color="#E40C28"/>
</linearGradient>
</defs>
</svg>
