<svg preserveAspectRatio="none" width="100%" height="100%" overflow="visible" style="display: block;" viewBox="0 0 24 24" fill="none" xmlns="http://www.w3.org/2000/svg">
<g id="3d-rotate">
<g id="Group">
<g id="Group_2">
<path id="Vector" d="M6.70312 9.26001L12.0031 12.33L17.2631 9.28001" stroke="var(--stroke-0, white)" stroke-width="1.5" stroke-linecap="round" stroke-linejoin="round"/>
<path id="Vector_2" d="M12.0039 17.77V12.32" stroke="var(--stroke-0, white)" stroke-width="1.5" stroke-linecap="round" stroke-linejoin="round"/>
</g>
<path id="Vector_3" d="M10.7622 6.28998L7.56219 8.06998C6.84219 8.46998 6.24219 9.47998 6.24219 10.31V13.7C6.24219 14.53 6.83219 15.54 7.56219 15.94L10.7622 17.72C11.4422 18.1 12.5622 18.1 13.2522 17.72L16.4522 15.94C17.1722 15.54 17.7722 14.53 17.7722 13.7V10.3C17.7722 9.46998 17.1822 8.45998 16.4522 8.05998L13.2522 6.27998C12.5622 5.89998 11.4422 5.89998 10.7622 6.28998Z" stroke="var(--stroke-0, white)" stroke-width="1.5" stroke-linecap="round" stroke-linejoin="round"/>
</g>
<g id="Group_3">
<path id="Vector_4" d="M22 15C22 18.87 18.87 22 15 22L16.05 20.25" stroke="var(--stroke-0, white)" stroke-width="1.5" stroke-linecap="round" stroke-linejoin="round"/>
<path id="Vector_5" d="M2 9C2 5.13 5.13 2 9 2L7.95001 3.75" stroke="var(--stroke-0, white)" stroke-width="1.5" stroke-linecap="round" stroke-linejoin="round"/>
</g>
<path id="Vector_6" opacity="0" d="M23.5 0.5V23.5H0.5V0.5H23.5Z" stroke="var(--stroke-0, white)"/>
</g>
</svg>
