<svg width="850" height="313" viewBox="0 0 850 313" fill="none" xmlns="http://www.w3.org/2000/svg">
<g clip-path="url(#clip0_601_9)">
<path d="M155.082 8.21606H241.329L235.428 36.0918H182.399L180.237 46.3911H229.643L224.559 70.9217H175.154L172.758 81.9546H226.517L220.761 109.801H133.783L155.082 8.21606Z" fill="white"/>
<path d="M252.315 8.21606H286.119L270.926 80.7809H317.001L310.865 109.801H230.958L252.256 8.21606H252.315Z" fill="white"/>
<path d="M116.75 140.347H150.553L142.84 176.761L174.394 140.347H215.561L172.145 186.767L196.424 241.902H160.458L146.434 209.244L133.082 223.475L129.225 241.902H95.4216L116.721 140.317L116.75 140.347Z" fill="white"/>
<path d="M232.009 203.17L208.607 140.347H244.164L254.36 174.296L278.698 140.347H318.724L265.083 207.395L257.837 241.932H224.033L232.068 203.199L232.009 203.17Z" fill="white"/>
<path d="M305.665 199.121C304.058 171.392 323.37 137.735 366.99 137.735C388.815 137.735 404.943 149.355 410.173 167.342L380.751 180.547C378.122 172.272 371.957 168.223 364.302 168.223C349.139 168.223 340.111 182.16 340.9 196.069C341.543 207.249 348.847 213.499 357.787 213.499C365.588 213.499 371.723 209.713 376.836 202.906L401.32 221.48C391.971 234.831 377.742 243.692 356.209 243.692C327.899 243.692 307.242 226.409 305.665 199.15V199.121Z" fill="white"/>
<path d="M632.57 196.656C630.641 163.439 655.096 136.004 695.824 136.004C714.902 136.004 731.702 144.279 739.123 152.847L719.285 174.619C713.208 169.249 704.326 165.464 695.356 165.464C676.132 165.464 665.497 178.668 666.432 195.071C667.162 207.688 676.628 213.938 687.176 213.938C690.798 213.938 693.632 213.352 695.882 212.354L698.57 201.468H681.946L686.182 179.695H734.886L723.433 231.486C713.821 237.442 699.768 241.932 685.16 241.932C660.033 241.932 634.41 228.581 632.57 196.656Z" fill="white"/>
<path d="M740.905 195.922C739.094 164.437 763.052 136.297 797.001 136.297C826.773 136.297 848.423 156.309 849.942 182.307C851.753 213.792 827.796 241.961 793.846 241.961C764.074 241.961 742.425 221.92 740.905 195.951V195.922ZM816.138 185.329C815.525 174.59 808.542 166.168 796.388 166.168C782.218 166.168 773.92 180.106 774.651 192.87C775.264 203.61 782.247 212.031 794.401 212.031C808.571 212.031 816.869 198.093 816.138 185.329Z" fill="white"/>
<path d="M110.293 8.21606L102.667 44.0437H71.756L79.3816 8.21606H42.3641L42.3349 8.33344L68.9512 26.8781H41.6337L24.2498 109.772H58.0534L65.6497 73.3572H96.561L88.9646 109.772H122.798L144.096 8.21606H110.293Z" fill="white"/>
<path d="M338.65 8.21606L338.621 8.42146L365.121 26.8781H337.949L320.536 109.772H354.369L375.668 8.21606H338.65Z" fill="white"/>
<path d="M628.918 172.418C628.45 164.437 625.704 156.896 619.744 151.233C612.556 144.425 600.49 140.347 581.85 140.347H539.193V140.493L567.621 160.505H538.142L521.05 241.932H554.853L560.989 212.911H569.374L582.317 241.932H618.721L602.769 208.129C622.344 201.879 629.794 188.234 628.888 172.418H628.918ZM578.285 188.674H566.014L570.221 168.809H582.2C586.963 168.809 590.352 169.836 592.338 171.714C593.858 173.152 594.705 175.059 594.822 177.084C595.202 183.481 589.563 188.704 578.285 188.704V188.674Z" fill="white"/>
<path d="M0 223.504L18.0267 200.294C30.1516 210.007 42.2473 214.672 52.9406 214.672C57.2646 214.672 60.2155 213.088 60.0402 210.183C59.8649 206.984 57.9074 205.987 42.8608 200.47C23.6655 193.516 14.4915 186.826 13.615 171.89C12.4755 152.289 29.4796 136.327 57.0893 136.327C75.1452 136.327 91.5065 142.137 103.047 151.556L85.0204 174.766C77.0151 168.516 65.8835 163.44 55.1902 163.44C50.8662 163.44 47.8861 164.613 48.0614 167.518C48.2367 170.57 50.4279 171.157 64.7441 176.38C82.3033 182.777 93.6978 190.024 94.6035 205.547C95.7722 225.999 79.9367 241.961 50.8954 241.961C30.8236 241.961 12.9138 234.713 0 223.534L0 223.504Z" fill="white"/>
<path fill-rule="evenodd" clip-rule="evenodd" d="M495.602 139.613H433.195L453.033 154.079L398.048 241.902H434.89L442.924 228.258H478.335L480.848 241.902H516.813L495.602 139.613ZM456.569 204.197L470.885 179.52L475.063 204.197H456.569Z" fill="white"/>
<path fill-rule="evenodd" clip-rule="evenodd" d="M717.736 84.7714C699.505 87.1189 638.325 92.6647 589.125 85.593C656.001 88.7914 654.424 81.8665 649.077 78.9029C640.195 73.9439 631.05 66.2268 621.088 58.539C646.506 73.6212 671.223 86.7668 717.736 84.8008M699.271 58.715C698.979 58.1868 698.599 57.7174 697.46 57.5413C694.976 57.8054 692.493 58.0695 690.01 58.3336C688.695 58.8617 688.169 59.8887 688.286 61.2972C689.162 65.7279 690.039 70.1881 690.915 74.6188C691.266 75.7632 692.055 76.2914 693.077 76.4087C696.846 76.2033 700.644 75.9979 704.413 75.7925C705.728 75.6752 706.605 75.2057 706.488 73.9146C704.092 68.8383 701.696 63.762 699.301 58.715H699.271ZM402.109 61.8547C414.789 64.6423 427.44 67.2538 440.061 69.7773L442.457 71.8019L428.112 91.9604L412.364 96.4499L436.526 95.5403L460.279 73.7385C475.91 76.7609 491.512 79.7245 507.143 82.7175C497.793 79.6658 488.473 76.6141 480.643 75.6752C490.168 75.6165 499.663 75.5285 509.188 75.4698L402.109 61.8547ZM612.585 0C609.43 0 606.304 0 603.207 0C674.496 0.440143 730.825 4.87091 730.796 10.2113C730.796 15.7864 669.353 20.2466 593.624 20.1585C534.694 20.0998 484.47 17.3123 465.071 13.439C475.267 19.2489 537.382 23.7677 612.498 23.8557C694.743 23.9438 761.444 18.662 761.474 12.0599C761.503 5.45777 694.83 0.0880285 612.585 0ZM384.988 8.48008L418.441 13.8498L419.697 17.371L398.778 18.4566L421.246 21.6257L431.559 50.3523L424.693 56.7784L427.06 58.8617C420.369 59.0965 415.227 59.1845 408.945 59.3899C450.112 61.9427 491.161 61.4439 534.051 62.4709C531.48 66.5202 521.43 75.6165 528.208 84.7421L515.615 82.7468L545.124 96.9487C563.414 106.661 580.622 108.099 599.789 109.273C579.045 106.074 555.934 100.47 545.241 90.3172C554.386 92.1952 563.501 94.1318 572.676 96.1565C567.358 94.5426 561.632 92.2245 556.694 89.525C582.346 99.3548 605.281 98.0344 621.029 97.6823C583.106 93.1635 573.99 92.8407 566.598 82.4827C565.167 80.1353 561.749 74.12 565.985 71.0097C569.257 68.6036 573.464 66.1681 578.928 63.674C585.472 59.5953 634.673 48.6211 678.761 50.4697C647.207 46.5671 614.105 47.8582 578.723 56.7784C566.073 60.769 555.262 67.1657 544.452 73.5331C544.569 73.2984 544.715 73.0637 544.891 72.8289C554.707 63.674 565.751 57.9814 577.116 53.2279C622.49 41.6668 665.818 41.6668 707.189 52.4063C706.4 52.4943 705.611 52.5824 704.822 52.7291C703.216 53.404 703.099 54.5777 703.391 55.8981C706.371 62.6176 707.832 66.6669 710.812 73.3864C711.338 74.5895 712.623 75.147 714.639 75.0883C732.958 75.3524 737.457 74.1787 743.155 72.9756C749.933 75.5578 756.682 77.4651 763.022 81.0743C761.59 80.4874 760.1 79.9299 758.64 79.343C773.16 95.3642 714.201 91.2269 700.089 91.3149C710.344 92.9581 741.928 96.2445 762.408 90.9334C755.835 93.4863 745.755 94.9241 737.925 96.0391C736.932 99.5016 724.514 105.077 704.267 107.395C737.399 104.842 766.177 100.881 770.969 89.1142C770.969 88.6447 770.911 88.2046 770.794 87.7938C770.209 83.5684 763.986 78.5508 744.557 71.5965C736.201 65.3465 728.576 59.7714 720.22 53.5213C718.174 52.1422 715.077 50.3523 710.461 48.8852C701.053 46.2737 691.617 44.3664 682.209 43.0166C676.219 38.5271 675.781 37.148 668.857 32.1011C665.409 29.7243 662.721 28.9907 657.491 28.8147C644.052 28.2571 620.795 27.6116 601.425 29.3135C571.857 29.9003 542.29 30.4579 512.723 31.0447C533.759 32.1891 554.795 33.3335 575.831 34.4778C573.727 35.4168 571.711 36.5025 569.695 37.7055C592.28 31.8663 629.999 30.898 656.615 33.2748C659.975 33.9203 660.53 34.4485 661.436 35.006C648.259 34.3311 628.596 33.5682 618.137 35.0647C620.649 35.5635 634.849 36.2971 640.195 37.6175C613.491 37.0013 585.911 37.999 558.184 44.8652C549.624 45.3347 528.88 45.6868 517.281 46.0976C528.704 46.9192 540.157 47.7701 551.581 48.5917C550.266 49.2079 548.922 49.7654 547.52 50.2643C519.209 53.2572 490.635 54.9298 462.091 56.8664L427.878 8.97891L385.046 8.53877L384.988 8.48008Z" fill="#E40C28"/>
<path d="M6.28148 291.257H14.4329C19.1076 291.257 21.3865 293.458 21.3865 296.392C21.3865 299.326 19.3413 301.204 16.5073 301.82C18.4064 302.554 19.7796 303.904 19.7796 306.192C19.7796 309.978 16.5073 312.648 10.7224 312.648H0.584229L6.31069 291.286L6.28148 291.257ZM11.2775 309.303C14.2576 309.303 16.0983 308.041 16.0983 305.987C16.0983 304.373 14.6667 303.463 12.3585 303.463H6.66129L5.11281 309.332H11.2483L11.2775 309.303ZM12.826 300.265C15.8061 300.265 17.6175 299.091 17.6175 297.008C17.6175 295.512 16.4489 294.602 14.0823 294.602H9.02784L7.50857 300.294H12.7968L12.826 300.265Z" fill="#E40C28"/>
<path d="M31.7292 291.257H47.3601L46.4544 294.602H34.5632L33.0732 300.177H43.6204L42.7147 303.493H32.1675L30.6482 309.244H42.7147L41.809 312.589H26.032L31.7584 291.228L31.7292 291.257Z" fill="#E40C28"/>
<path d="M49.113 308.951L51.9471 306.603C53.6708 308.598 55.6284 309.625 58.3747 309.625C60.7413 309.625 62.465 308.422 62.465 306.662C62.465 305.371 61.5886 304.608 58.55 303.434C55.307 302.114 53.0865 300.646 53.0865 297.683C53.0865 293.663 56.7094 290.963 61.2672 290.963C64.8024 290.963 67.3442 292.254 69.068 294.162L66.4385 296.715C64.8316 295.13 63.1955 294.279 60.975 294.279C58.4916 294.279 57.0308 295.658 57.0308 297.096C57.0308 298.534 58.0826 299.15 61.1795 300.353C64.4226 301.644 66.4677 303.141 66.4677 306.104C66.4677 310.271 62.6696 312.941 58.1702 312.941C54.1675 312.941 51.0998 311.533 49.1423 308.951H49.113Z" fill="#E40C28"/>
<path d="M78.4465 291.257H85.1663C88.0588 291.257 90.1624 291.873 91.6232 293.37C92.6458 294.397 93.2009 295.805 93.2009 297.595C93.2009 302.759 88.8184 305.723 82.7998 305.723H78.3589L76.5182 312.648H72.7493L78.4757 291.286L78.4465 291.257ZM82.9751 302.378C86.8609 302.378 89.2859 300.735 89.2859 297.888C89.2859 297.037 89.0229 296.333 88.4678 295.776C87.7374 295.042 86.6272 294.661 85.0203 294.661H81.2513L79.2062 302.348H82.9459L82.9751 302.378Z" fill="#E40C28"/>
<path d="M98.6062 303.64C98.6062 297.155 103.865 290.905 111.228 290.905C116.954 290.905 120.811 294.954 120.811 300.265C120.811 306.75 115.552 313 108.16 313C102.434 313 98.6062 308.951 98.6062 303.61V303.64ZM116.925 300.5C116.925 296.979 114.675 294.367 110.877 294.367C105.94 294.367 102.521 299.062 102.521 303.434C102.521 306.985 104.771 309.567 108.569 309.567C113.507 309.567 116.925 304.872 116.925 300.5Z" fill="#E40C28"/>
<path d="M131.65 291.257H135.419L132.527 302.055L145.002 291.257H150.144L139.305 300.382L144.739 312.618H140.591L136.296 302.612L131.154 306.955L129.663 312.648H125.895L131.621 291.286L131.65 291.257Z" fill="#E40C28"/>
<path d="M157.273 291.257H172.904L171.998 294.602H160.107L158.617 300.177H169.164L168.259 303.493H157.711L156.192 309.244H168.259L167.353 312.589H151.576L157.302 291.228L157.273 291.257Z" fill="#E40C28"/>
<path d="M193.765 291.257H197.534L195.167 300.148H205.159L207.526 291.257H211.266L205.539 312.618H201.799L204.195 303.61H194.203L191.807 312.618H188.038L193.765 291.257Z" fill="#E40C28"/>
<path d="M220.381 291.257H236.012L235.106 294.602H223.215L221.725 300.177H232.272L231.367 303.493H220.819L219.3 309.244H231.367L230.461 312.589H214.684L220.41 291.228L220.381 291.257Z" fill="#E40C28"/>
<path d="M244.105 291.257H247.874L243.082 309.215H254.272L253.337 312.648H238.408L244.134 291.286L244.105 291.257Z" fill="#E40C28"/>
<path d="M266.748 291.257H270.517L264.79 312.618H261.021L266.748 291.257Z" fill="#E40C28"/>
<path d="M275.805 303.904C275.805 297.037 281.561 290.905 288.661 290.905C292.663 290.905 295.38 292.695 296.958 295.482L293.861 297.595C292.576 295.629 291.027 294.367 288.222 294.367C283.664 294.367 279.691 298.769 279.691 303.786C279.691 307.307 282.087 309.596 285.476 309.596C287.872 309.596 289.449 308.628 291.144 307.161L293.598 309.655C291.582 311.621 289.099 313.059 285.417 313.059C279.954 313.059 275.805 309.567 275.805 303.962V303.904Z" fill="#E40C28"/>
<path d="M301.691 303.64C301.691 297.155 306.95 290.905 314.313 290.905C320.039 290.905 323.896 294.954 323.896 300.265C323.896 306.75 318.637 313 311.245 313C305.518 313 301.691 308.951 301.691 303.61V303.64ZM319.981 300.5C319.981 296.979 317.731 294.367 313.933 294.367C308.995 294.367 305.577 299.062 305.577 303.434C305.577 306.985 307.826 309.567 311.625 309.567C316.562 309.567 319.981 304.872 319.981 300.5Z" fill="#E40C28"/>
<path d="M334.735 291.257H341.455C344.347 291.257 346.451 291.873 347.912 293.37C348.934 294.397 349.489 295.805 349.489 297.595C349.489 302.759 345.107 305.723 339.088 305.723H334.647L332.807 312.648H329.038L334.764 291.286L334.735 291.257ZM339.264 302.378C343.149 302.378 345.574 300.735 345.574 297.888C345.574 297.037 345.312 296.333 344.756 295.776C344.026 295.042 342.916 294.661 341.309 294.661H337.54L335.495 302.348H339.234L339.264 302.378Z" fill="#E40C28"/>
<path d="M362.666 294.749H355.888L356.823 291.257H374.09L373.155 294.749H366.406L361.614 312.648H357.875L362.666 294.749Z" fill="#E40C28"/>
<path d="M381.306 291.257H396.937L396.032 294.602H384.14L382.65 300.177H393.198L392.292 303.493H381.745L380.225 309.244H392.292L391.386 312.589H375.609L381.336 291.228L381.306 291.257Z" fill="#E40C28"/>
<path d="M405.001 291.257H412.714C416.249 291.257 418.558 292.343 419.551 294.367C420.281 295.658 420.486 297.155 420.135 298.71C419.697 301.82 417.389 303.992 413.445 304.813L417.389 312.618H413.094L409.442 305.165H405.001L403.014 312.618H399.245L404.972 291.257H405.001ZM410.757 301.85C413.766 301.85 416.016 300.764 416.396 298.71C416.688 297.918 416.688 297.213 416.366 296.48C415.957 295.365 414.701 294.69 412.539 294.69H407.894L405.936 301.879H410.757V301.85Z" fill="#E40C28"/>
<path d="M437.081 308.951L439.915 306.603C441.639 308.598 443.596 309.625 446.343 309.625C448.709 309.625 450.433 308.422 450.433 306.662C450.433 305.371 449.557 304.608 446.518 303.434C443.275 302.114 441.055 300.646 441.055 297.683C441.055 293.663 444.677 290.963 449.235 290.963C452.77 290.963 455.312 292.254 457.036 294.162L454.407 296.715C452.8 295.13 451.163 294.279 448.943 294.279C446.46 294.279 444.999 295.658 444.999 297.096C444.999 298.534 446.051 299.15 449.148 300.353C452.391 301.644 454.436 303.141 454.436 306.104C454.436 310.271 450.638 312.941 446.138 312.941C442.136 312.941 439.068 311.533 437.11 308.951H437.081Z" fill="#E40C28"/>
<path d="M466.414 291.257H470.183L467.817 300.148H477.809L480.176 291.257H483.915L478.189 312.618H474.449L476.845 303.61H466.853L464.457 312.618H460.688L466.414 291.257Z" fill="#E40C28"/>
<path d="M493.265 291.257H497.033L491.307 312.618H487.538L493.265 291.257Z" fill="#E40C28"/>
<path d="M506.324 291.257H513.044C515.937 291.257 518.04 291.873 519.501 293.37C520.524 294.397 521.079 295.805 521.079 297.595C521.079 302.759 516.696 305.723 510.678 305.723H506.237L504.396 312.648H500.627L506.354 291.286L506.324 291.257ZM510.853 302.378C514.739 302.378 517.164 300.735 517.164 297.888C517.164 297.037 516.901 296.333 516.346 295.776C515.615 295.042 514.505 294.661 512.898 294.661H509.129L507.084 302.348H510.824L510.853 302.378Z" fill="#E40C28"/>
<path d="M530.487 291.257H537.206C540.099 291.257 542.202 291.873 543.663 293.37C544.686 294.397 545.241 295.805 545.241 297.595C545.241 302.759 540.858 305.723 534.84 305.723H530.399L528.558 312.648H524.789L530.516 291.286L530.487 291.257ZM535.015 302.378C538.901 302.378 541.326 300.735 541.326 297.888C541.326 297.037 541.063 296.333 540.508 295.776C539.777 295.042 538.667 294.661 537.06 294.661H533.291L531.246 302.348H534.986L535.015 302.378Z" fill="#E40C28"/>
<path d="M554.824 291.257H558.593L552.867 312.618H549.098L554.824 291.257Z" fill="#E40C28"/>
<path d="M567.884 291.257H571.36L578.577 306.368L582.638 291.257H586.319L580.593 312.618H577.467L570.017 297.067L565.868 312.618H562.157L567.884 291.257Z" fill="#E40C28"/>
<path d="M591.403 303.816C591.403 297.184 597.013 290.905 604.609 290.905C609.079 290.905 611.592 292.695 613.024 294.69L610.219 297.067C608.963 295.57 607.297 294.338 604.317 294.338C599.175 294.338 595.318 298.827 595.318 303.669C595.318 307.425 597.948 309.567 601.395 309.567C603.324 309.567 604.814 309.039 605.895 308.481L607.21 303.962H601.775L602.652 300.705H611.709L608.816 310.946C606.654 312.237 604.259 313.029 601.162 313.029C596.166 313.029 591.403 309.948 591.403 303.845V303.816Z" fill="#E40C28"/>
</g>
<defs>
<clipPath id="clip0_601_9">
<rect width="850" height="313" fill="white"/>
</clipPath>
</defs>
</svg>
