<svg width="850" height="312" viewBox="0 0 850 312" fill="none" xmlns="http://www.w3.org/2000/svg">
<g clip-path="url(#clip0_601_53)">
<path d="M155.082 8.1897H241.329L235.428 35.9763H182.399L180.237 46.2428H229.643L224.559 70.695H175.154L172.758 81.6927H226.517L220.761 109.45H133.783L155.082 8.1897Z" fill="#101820"/>
<path d="M252.315 8.1897H286.119L270.926 80.5227H317.001L310.865 109.45H230.958L252.257 8.1897H252.315Z" fill="#101820"/>
<path d="M116.75 139.898H150.553L142.84 176.197L174.394 139.898H215.561L172.145 186.17L196.424 241.129H160.458L146.434 208.575L133.082 222.761L129.225 241.129H95.4216L116.721 139.869L116.75 139.898Z" fill="#101820"/>
<path d="M232.009 202.521L208.607 139.898H244.164L254.36 173.74L278.698 139.898H318.724L265.083 206.733L257.837 241.159H224.033L232.068 202.55L232.009 202.521Z" fill="#101820"/>
<path d="M305.665 198.484C304.058 170.844 323.37 137.295 366.99 137.295C388.815 137.295 404.943 148.878 410.173 166.807L380.751 179.97C378.122 171.721 371.957 167.685 364.302 167.685C349.139 167.685 340.111 181.578 340.9 195.442C341.543 206.586 348.847 212.816 357.787 212.816C365.588 212.816 371.723 209.043 376.836 202.257L401.32 220.772C391.971 234.08 377.742 242.914 356.209 242.914C327.899 242.914 307.242 225.686 305.665 198.514V198.484Z" fill="#101820"/>
<path d="M632.57 196.027C630.641 162.917 655.096 135.57 695.824 135.57C714.902 135.57 731.702 143.818 739.123 152.359L719.285 174.061C713.208 168.709 704.326 164.936 695.356 164.936C676.132 164.936 665.497 178.098 666.432 194.448C667.162 207.025 676.628 213.255 687.176 213.255C690.798 213.255 693.632 212.67 695.882 211.676L698.57 200.824H681.946L686.182 179.121H734.886L723.433 230.746C713.821 236.684 699.768 241.159 685.16 241.159C660.033 241.159 634.41 227.85 632.57 196.027Z" fill="#101820"/>
<path d="M740.905 195.296C739.093 163.912 763.051 135.862 797.001 135.862C826.773 135.862 848.422 155.81 849.941 181.725C851.753 213.109 827.795 241.188 793.845 241.188C764.074 241.188 742.424 221.211 740.905 195.325V195.296ZM816.138 184.737C815.524 174.032 808.541 165.638 796.387 165.638C782.217 165.638 773.92 179.531 774.65 192.254C775.264 202.959 782.246 211.354 794.4 211.354C808.571 211.354 816.868 197.461 816.138 184.737Z" fill="#101820"/>
<path d="M110.293 8.1897L102.667 43.9028H71.756L79.3816 8.1897H42.3641L42.3349 8.30669L68.9512 26.7921H41.6337L24.2498 109.421H58.0534L65.6497 73.1227H96.561L88.9646 109.421H122.798L144.096 8.1897H110.293Z" fill="#101820"/>
<path d="M338.65 8.1897L338.621 8.39444L365.121 26.7921H337.949L320.536 109.421H354.369L375.668 8.1897H338.65Z" fill="#101820"/>
<path d="M628.918 171.868C628.45 163.912 625.704 156.395 619.744 150.75C612.556 143.964 600.49 139.898 581.85 139.898H539.193V140.045L567.621 159.993H538.142L521.05 241.159H554.853L560.989 212.231H569.374L582.317 241.159H618.721L602.769 207.464C622.344 201.234 629.794 187.633 628.888 171.868H628.918ZM578.285 188.072H566.014L570.221 168.27H582.2C586.963 168.27 590.352 169.294 592.338 171.166C593.858 172.599 594.705 174.5 594.822 176.518C595.202 182.895 589.563 188.101 578.285 188.101V188.072Z" fill="#101820"/>
<path d="M0 222.79L18.0267 199.654C30.1516 209.336 42.2473 213.986 52.9406 213.986C57.2646 213.986 60.2155 212.407 60.0402 209.511C59.8649 206.323 57.9074 205.329 42.8608 199.83C23.6655 192.898 14.4915 186.229 13.615 171.341C12.4755 151.803 29.4796 135.891 57.0893 135.891C75.1452 135.891 91.5065 141.683 103.047 151.072L85.0204 174.208C77.0151 167.978 65.8835 162.918 55.1902 162.918C50.8662 162.918 47.8861 164.087 48.0614 166.983C48.2367 170.025 50.4279 170.61 64.7441 175.816C82.3033 182.193 93.6978 189.417 94.6035 204.89C95.7722 225.277 79.9367 241.188 50.8954 241.188C30.8236 241.188 12.9138 233.964 0 222.82L0 222.79Z" fill="#101820"/>
<path fill-rule="evenodd" clip-rule="evenodd" d="M495.602 139.167H433.195L453.033 153.587L398.048 241.13H434.89L442.924 227.529H478.335L480.848 241.13H516.813L495.602 139.167ZM456.569 203.544L470.885 178.946L475.063 203.544H456.569Z" fill="#101820"/>
<path fill-rule="evenodd" clip-rule="evenodd" d="M717.736 84.5006C699.505 86.8405 638.325 92.3686 589.124 85.3196C656.001 88.5077 654.424 81.6049 649.077 78.6508C640.195 73.7077 631.05 66.0152 621.088 58.3519C646.506 73.386 671.223 86.4895 717.736 84.5299M699.271 58.5274C698.979 58.0009 698.599 57.533 697.46 57.3575C694.976 57.6207 692.493 57.8839 690.01 58.1472C688.695 58.6737 688.169 59.6974 688.286 61.1013C689.162 65.518 690.039 69.9638 690.915 74.3804C691.266 75.5211 692.055 76.0476 693.077 76.1646C696.846 75.9599 700.644 75.7551 704.413 75.5504C705.728 75.4334 706.605 74.9654 706.488 73.6785C704.092 68.6184 701.696 63.5583 699.3 58.5274H699.271ZM402.109 61.6571C414.789 64.4357 427.44 67.0389 440.061 69.5543L442.457 71.5725L428.112 91.6666L412.364 96.1417L436.526 95.235L460.279 73.503C475.91 76.5156 491.512 79.4698 507.143 82.4532C497.793 79.4113 488.473 76.3694 480.643 75.4334C490.168 75.3749 499.663 75.2871 509.188 75.2286L402.109 61.6571ZM612.585 0C609.43 0 606.304 0 603.207 0C674.496 0.438736 730.825 4.85535 730.796 10.1787C730.796 15.736 669.353 20.1819 593.624 20.0941C534.694 20.0356 484.47 17.257 465.071 13.3961C475.267 19.1874 537.382 23.6918 612.498 23.7795C694.743 23.8673 761.444 18.6024 761.474 12.0214C761.503 5.44033 694.83 0.0877473 612.585 0ZM384.988 8.45299L418.441 13.8056L419.697 17.3155L398.778 18.3977L421.246 21.5566L431.559 50.1914L424.693 56.597L427.06 58.6737C420.369 58.9077 415.227 58.9954 408.945 59.2002C450.112 61.7448 491.161 61.2476 534.051 62.2713C531.48 66.3077 521.43 75.3749 528.208 84.4714L515.615 82.4824L545.124 96.639C563.414 106.32 580.622 107.754 599.789 108.924C579.045 105.735 555.934 100.149 545.241 90.0287C554.386 91.9006 563.501 93.8311 572.676 95.8493C567.358 94.2406 561.632 91.9299 556.694 89.239C582.346 99.0374 605.281 97.7212 621.029 97.3702C583.106 92.8659 573.99 92.5441 566.598 82.2192C565.167 79.8793 561.748 73.8832 565.985 70.7828C569.257 68.3844 573.464 65.9567 578.928 63.4705C585.472 59.4049 634.673 48.4657 678.761 50.3084C647.207 46.4183 614.105 47.7053 578.723 56.597C566.073 60.5749 555.262 66.9512 544.452 73.2982C544.569 73.0642 544.715 72.8302 544.89 72.5962C554.707 63.4705 565.751 57.7962 577.116 53.0578C622.49 41.5337 665.818 41.5337 707.189 52.2389C706.4 52.3266 705.611 52.4144 704.822 52.5606C703.216 53.2333 703.099 54.4033 703.391 55.7195C706.371 62.4175 707.832 66.4539 710.812 73.152C711.338 74.3512 712.623 74.9069 714.639 74.8484C732.958 75.1117 737.457 73.9417 743.155 72.7425C749.933 75.3164 756.682 77.2176 763.022 80.8152C761.59 80.2302 760.1 79.6745 758.639 79.0895C773.16 95.0595 714.201 90.9354 700.089 91.0232C710.344 92.6611 741.928 95.937 762.408 90.6429C755.835 93.1876 745.755 94.6208 737.925 95.7323C736.932 99.1837 724.514 104.741 704.267 107.052C737.399 104.507 766.177 100.558 770.969 88.8295C770.969 88.3615 770.91 87.9228 770.794 87.5133C770.209 83.3014 763.986 78.2998 744.557 71.3678C736.201 65.1377 728.576 59.5804 720.22 53.3503C718.174 51.9756 715.077 50.1914 710.461 48.729C701.053 46.1258 691.616 44.2246 682.209 42.8792C676.219 38.4041 675.781 37.0293 668.857 31.9985C665.409 29.6293 662.721 28.8981 657.491 28.7226C644.052 28.1669 620.795 27.5234 601.425 29.2198C571.857 29.8048 542.29 30.3606 512.723 30.9455C533.759 32.0862 554.795 33.227 575.831 34.3677C573.727 35.3036 571.711 36.3859 569.695 37.5851C592.28 31.7645 629.999 30.7993 656.615 33.1685C659.975 33.8119 660.53 34.3384 661.436 34.8942C648.259 34.2214 628.596 33.461 618.137 34.9527C620.649 35.4499 634.849 36.1811 640.195 37.4973C613.491 36.8831 585.911 37.8776 558.184 44.7219C549.624 45.1898 528.88 45.5408 517.281 45.9503C528.704 46.7693 540.157 47.6175 551.581 48.4365C550.266 49.0507 548.922 49.6064 547.52 50.1037C519.209 53.0871 490.635 54.7543 462.091 56.6847L427.878 8.95022L385.046 8.51148L384.988 8.45299Z" fill="#E40C28"/>
<path d="M6.28148 290.326H14.4329C19.1076 290.326 21.3865 292.52 21.3865 295.445C21.3865 298.37 19.3413 300.242 16.5073 300.856C18.4064 301.587 19.7796 302.933 19.7796 305.214C19.7796 308.987 16.5073 311.649 10.7224 311.649H0.584229L6.31069 290.356L6.28148 290.326ZM11.2775 308.315C14.2576 308.315 16.0983 307.057 16.0983 305.009C16.0983 303.401 14.6667 302.494 12.3585 302.494H6.66129L5.11281 308.344H11.2483L11.2775 308.315ZM12.826 299.306C15.8061 299.306 17.6175 298.136 17.6175 296.059C17.6175 294.568 16.4489 293.661 14.0823 293.661H9.02784L7.50857 299.335H12.7968L12.826 299.306Z" fill="#E40C28"/>
<path d="M31.7292 290.326H47.3601L46.4544 293.661H34.5632L33.0732 299.218H43.6204L42.7147 302.523H32.1675L30.6482 308.256H42.7147L41.809 311.59H26.032L31.7584 290.297L31.7292 290.326Z" fill="#E40C28"/>
<path d="M49.113 307.964L51.9471 305.624C53.6708 307.613 55.6284 308.636 58.3747 308.636C60.7413 308.636 62.465 307.437 62.465 305.682C62.465 304.395 61.5886 303.635 58.55 302.465C55.307 301.149 53.0865 299.686 53.0865 296.732C53.0865 292.725 56.7094 290.034 61.2672 290.034C64.8024 290.034 67.3442 291.321 69.068 293.222L66.4385 295.767C64.8316 294.187 63.1955 293.339 60.975 293.339C58.4916 293.339 57.0308 294.714 57.0308 296.147C57.0308 297.58 58.0826 298.194 61.1795 299.394C64.4226 300.681 66.4677 302.172 66.4677 305.126C66.4677 309.28 62.6696 311.941 58.1702 311.941C54.1675 311.941 51.0998 310.538 49.1423 307.964H49.113Z" fill="#E40C28"/>
<path d="M78.4465 290.326H85.1663C88.0588 290.326 90.1624 290.941 91.6232 292.432C92.6458 293.456 93.2009 294.86 93.2009 296.644C93.2009 301.792 88.8184 304.746 82.7998 304.746H78.3589L76.5182 311.649H72.7493L78.4757 290.356L78.4465 290.326ZM82.9751 301.412C86.8609 301.412 89.2859 299.774 89.2859 296.937C89.2859 296.088 89.0229 295.387 88.4678 294.831C87.7374 294.1 86.6272 293.719 85.0203 293.719H81.2513L79.2062 301.383H82.9459L82.9751 301.412Z" fill="#E40C28"/>
<path d="M98.6062 302.669C98.6062 296.205 103.865 289.975 111.228 289.975C116.954 289.975 120.811 294.012 120.811 299.306C120.811 305.77 115.552 312 108.16 312C102.434 312 98.6062 307.964 98.6062 302.64V302.669ZM116.925 299.54C116.925 296.03 114.675 293.427 110.877 293.427C105.94 293.427 102.521 298.107 102.521 302.465C102.521 306.004 104.771 308.578 108.569 308.578C113.507 308.578 116.925 303.898 116.925 299.54Z" fill="#E40C28"/>
<path d="M131.65 290.326H135.419L132.527 301.09L145.002 290.326H150.144L139.305 299.423L144.739 311.62H140.591L136.296 301.646L131.154 305.975L129.663 311.649H125.895L131.621 290.356L131.65 290.326Z" fill="#E40C28"/>
<path d="M157.273 290.326H172.904L171.998 293.661H160.107L158.617 299.218H169.164L168.259 302.523H157.711L156.192 308.256H168.259L167.353 311.59H151.576L157.302 290.297L157.273 290.326Z" fill="#E40C28"/>
<path d="M193.765 290.326H197.534L195.167 299.189H205.159L207.526 290.326H211.266L205.539 311.62H201.799L204.195 302.64H194.203L191.807 311.62H188.038L193.765 290.326Z" fill="#E40C28"/>
<path d="M220.381 290.326H236.012L235.106 293.661H223.215L221.725 299.218H232.272L231.367 302.523H220.819L219.3 308.256H231.367L230.461 311.59H214.684L220.41 290.297L220.381 290.326Z" fill="#E40C28"/>
<path d="M244.105 290.326H247.874L243.082 308.227H254.272L253.337 311.649H238.408L244.134 290.356L244.105 290.326Z" fill="#E40C28"/>
<path d="M266.748 290.326H270.517L264.79 311.62H261.021L266.748 290.326Z" fill="#E40C28"/>
<path d="M275.805 302.933C275.805 296.088 281.561 289.975 288.661 289.975C292.663 289.975 295.38 291.76 296.958 294.538L293.861 296.644C292.576 294.684 291.027 293.427 288.222 293.427C283.664 293.427 279.691 297.814 279.691 302.816C279.691 306.326 282.087 308.607 285.476 308.607C287.872 308.607 289.449 307.642 291.144 306.179L293.598 308.666C291.582 310.625 289.099 312.058 285.417 312.058C279.954 312.058 275.805 308.578 275.805 302.991V302.933Z" fill="#E40C28"/>
<path d="M301.691 302.669C301.691 296.205 306.95 289.975 314.313 289.975C320.039 289.975 323.896 294.012 323.896 299.306C323.896 305.77 318.637 312 311.245 312C305.518 312 301.691 307.964 301.691 302.64V302.669ZM319.981 299.54C319.981 296.03 317.731 293.427 313.933 293.427C308.995 293.427 305.577 298.107 305.577 302.465C305.577 306.004 307.826 308.578 311.625 308.578C316.562 308.578 319.981 303.898 319.981 299.54Z" fill="#E40C28"/>
<path d="M334.735 290.326H341.455C344.347 290.326 346.451 290.941 347.912 292.432C348.934 293.456 349.489 294.86 349.489 296.644C349.489 301.792 345.107 304.746 339.088 304.746H334.647L332.807 311.649H329.038L334.764 290.356L334.735 290.326ZM339.264 301.412C343.149 301.412 345.574 299.774 345.574 296.937C345.574 296.088 345.312 295.387 344.756 294.831C344.026 294.1 342.916 293.719 341.309 293.719H337.54L335.495 301.383H339.234L339.264 301.412Z" fill="#E40C28"/>
<path d="M362.666 293.807H355.888L356.823 290.326H374.09L373.155 293.807H366.406L361.614 311.649H357.875L362.666 293.807Z" fill="#E40C28"/>
<path d="M381.306 290.326H396.937L396.032 293.661H384.14L382.65 299.218H393.198L392.292 302.523H381.745L380.225 308.256H392.292L391.386 311.59H375.609L381.336 290.297L381.306 290.326Z" fill="#E40C28"/>
<path d="M405.001 290.326H412.714C416.249 290.326 418.558 291.409 419.551 293.427C420.281 294.714 420.486 296.205 420.135 297.756C419.697 300.856 417.389 303.021 413.445 303.839L417.389 311.62H413.094L409.442 304.19H405.001L403.014 311.62H399.245L404.972 290.326H405.001ZM410.757 300.885C413.766 300.885 416.016 299.803 416.396 297.756C416.688 296.966 416.688 296.264 416.366 295.533C415.957 294.421 414.701 293.749 412.539 293.749H407.894L405.936 300.915H410.757V300.885Z" fill="#E40C28"/>
<path d="M437.081 307.964L439.915 305.624C441.639 307.613 443.596 308.636 446.343 308.636C448.709 308.636 450.433 307.437 450.433 305.682C450.433 304.395 449.557 303.635 446.518 302.465C443.275 301.149 441.055 299.686 441.055 296.732C441.055 292.725 444.677 290.034 449.235 290.034C452.77 290.034 455.312 291.321 457.036 293.222L454.407 295.767C452.8 294.187 451.163 293.339 448.943 293.339C446.46 293.339 444.999 294.714 444.999 296.147C444.999 297.58 446.051 298.194 449.148 299.394C452.391 300.681 454.436 302.172 454.436 305.126C454.436 309.28 450.638 311.941 446.138 311.941C442.136 311.941 439.068 310.538 437.11 307.964H437.081Z" fill="#E40C28"/>
<path d="M466.414 290.326H470.183L467.817 299.189H477.809L480.176 290.326H483.915L478.189 311.62H474.449L476.845 302.64H466.853L464.457 311.62H460.688L466.414 290.326Z" fill="#E40C28"/>
<path d="M493.265 290.326H497.033L491.307 311.62H487.538L493.265 290.326Z" fill="#E40C28"/>
<path d="M506.324 290.326H513.044C515.937 290.326 518.04 290.941 519.501 292.432C520.524 293.456 521.079 294.86 521.079 296.644C521.079 301.792 516.696 304.746 510.678 304.746H506.237L504.396 311.649H500.627L506.354 290.356L506.324 290.326ZM510.853 301.412C514.739 301.412 517.164 299.774 517.164 296.937C517.164 296.088 516.901 295.387 516.346 294.831C515.615 294.1 514.505 293.719 512.898 293.719H509.129L507.084 301.383H510.824L510.853 301.412Z" fill="#E40C28"/>
<path d="M530.487 290.326H537.207C540.099 290.326 542.203 290.941 543.664 292.432C544.686 293.456 545.241 294.86 545.241 296.644C545.241 301.792 540.859 304.746 534.84 304.746H530.399L528.559 311.649H524.79L530.516 290.356L530.487 290.326ZM535.015 301.412C538.901 301.412 541.326 299.774 541.326 296.937C541.326 296.088 541.063 295.387 540.508 294.831C539.778 294.1 538.667 293.719 537.061 293.719H533.292L531.246 301.383H534.986L535.015 301.412Z" fill="#E40C28"/>
<path d="M554.824 290.326H558.593L552.867 311.62H549.098L554.824 290.326Z" fill="#E40C28"/>
<path d="M567.884 290.326H571.36L578.577 305.39L582.638 290.326H586.319L580.593 311.62H577.467L570.017 296.118L565.868 311.62H562.157L567.884 290.326Z" fill="#E40C28"/>
<path d="M591.403 302.845C591.403 296.235 597.013 289.975 604.609 289.975C609.079 289.975 611.592 291.76 613.024 293.748L610.219 296.118C608.963 294.626 607.297 293.397 604.317 293.397C599.175 293.397 595.318 297.873 595.318 302.699C595.318 306.443 597.948 308.578 601.395 308.578C603.324 308.578 604.814 308.051 605.895 307.496L607.21 302.991H601.775L602.652 299.745H611.709L608.816 309.952C606.654 311.239 604.259 312.029 601.162 312.029C596.166 312.029 591.403 308.958 591.403 302.874V302.845Z" fill="#E40C28"/>
</g>
<defs>
<clipPath id="clip0_601_53">
<rect width="850" height="312" fill="white"/>
</clipPath>
</defs>
</svg>
