<svg preserveAspectRatio="none" width="100%" height="100%" overflow="visible" style="display: block;" viewBox="0 0 13.1796 13.1766" fill="none" xmlns="http://www.w3.org/2000/svg">
<g id="LinkedIn">
<path id="Vector" d="M2.97594 4.33301H0.222656V13.1131H2.97594V4.33301Z" fill="var(--fill-0, white)"/>
<path id="Vector_2" d="M10.4263 4.14278C10.3248 4.13009 10.217 4.12374 10.1091 4.1174C8.56754 4.05396 7.69842 4.9675 7.39391 5.36082C7.31144 5.46867 7.27337 5.53211 7.27337 5.53211V4.35847H4.64062V13.1386H7.27337H7.39391C7.39391 12.2441 7.39391 11.3559 7.39391 10.4614C7.39391 9.97925 7.39391 9.49711 7.39391 9.01497C7.39391 8.41863 7.3495 7.78423 7.64767 7.23865C7.90143 6.78188 8.35819 6.5535 8.87205 6.5535C10.3946 6.5535 10.4263 7.93014 10.4263 8.05702C10.4263 8.06337 10.4263 8.06971 10.4263 8.06971V13.1766H13.1796V7.448C13.1796 5.4877 12.1836 4.3331 10.4263 4.14278Z" fill="var(--fill-0, white)"/>
<path id="Vector_3" d="M1.59868 3.19737C2.4816 3.19737 3.19736 2.48162 3.19736 1.59869C3.19736 0.715757 2.4816 0 1.59868 0C0.71575 0 0 0.715757 0 1.59869C0 2.48162 0.71575 3.19737 1.59868 3.19737Z" fill="var(--fill-0, white)"/>
</g>
</svg>
