<svg width="586" height="557" viewBox="0 0 586 557" fill="none" xmlns="http://www.w3.org/2000/svg">
<path d="M0 0H586V557H0V0Z" fill="url(#paint0_linear_1818_40)"/>
<g clip-path="url(#clip0_1818_40)">
<path opacity="0.2" d="M720.18 457.259C874.007 457.259 998.708 332.554 998.708 178.721C998.708 24.8892 874.007 -99.8164 720.18 -99.8164C566.353 -99.8164 441.652 24.8892 441.652 178.721C441.652 332.554 566.353 457.259 720.18 457.259Z" stroke="white"/>
<path opacity="0.2" d="M663.977 507.559C817.803 507.559 942.505 382.853 942.505 229.021C942.505 75.1886 817.803 -49.5171 663.977 -49.5171C510.15 -49.5171 385.449 75.1886 385.449 229.021C385.449 382.853 510.15 507.559 663.977 507.559Z" stroke="white"/>
<path opacity="0.2" d="M635.157 524.325C788.983 524.325 913.684 399.619 913.684 245.787C913.684 91.9547 788.983 -32.751 635.157 -32.751C481.33 -32.751 356.629 91.9547 356.629 245.787C356.629 399.619 481.33 524.325 635.157 524.325Z" stroke="white"/>
<path opacity="0.2" d="M595.258 541.091C749.085 541.091 873.786 416.386 873.786 262.553C873.786 108.721 749.085 -15.9844 595.258 -15.9844C441.432 -15.9844 316.73 108.721 316.73 262.553C316.73 416.386 441.432 541.091 595.258 541.091Z" stroke="white"/>
</g>
<path d="M231.268 62.7188V86H226.361V62.7188H231.268ZM254.376 62.7188V86H250.126L240.017 71.3594H239.814V86H234.908V62.7188H239.22L249.267 77.3594H249.47V62.7188H254.376ZM266.641 86.3281C264.766 86.3281 263.131 86.0417 261.735 85.4688C260.35 84.8958 259.266 84.0417 258.485 82.9062C257.714 81.7708 257.308 80.3646 257.266 78.6875H262.016C262.079 79.4583 262.308 80.1094 262.704 80.6406C263.1 81.1615 263.631 81.5521 264.298 81.8125C264.964 82.0729 265.73 82.2031 266.594 82.2031C267.428 82.2031 268.152 82.0833 268.766 81.8438C269.391 81.6042 269.87 81.2708 270.204 80.8438C270.548 80.4062 270.719 79.901 270.719 79.3281C270.719 78.8073 270.563 78.3698 270.251 78.0156C269.949 77.6615 269.501 77.3594 268.907 77.1094C268.324 76.8594 267.61 76.6354 266.766 76.4375L264.219 75.8125C262.261 75.3438 260.714 74.599 259.579 73.5781C258.443 72.5469 257.876 71.1719 257.876 69.4531C257.876 68.0469 258.256 66.8177 259.016 65.7656C259.787 64.7031 260.834 63.8802 262.157 63.2969C263.49 62.7031 265.006 62.4062 266.704 62.4062C268.433 62.4062 269.938 62.7031 271.219 63.2969C272.511 63.8906 273.516 64.7135 274.235 65.7656C274.964 66.8177 275.339 68.0312 275.36 69.4062H270.626C270.542 68.5 270.152 67.7917 269.454 67.2812C268.766 66.7708 267.834 66.5156 266.657 66.5156C265.865 66.5156 265.188 66.6302 264.626 66.8594C264.074 67.0781 263.652 67.3854 263.36 67.7812C263.068 68.1771 262.923 68.6302 262.923 69.1406C262.923 69.6823 263.089 70.1406 263.423 70.5156C263.756 70.8802 264.199 71.1823 264.751 71.4219C265.313 71.651 265.928 71.8438 266.594 72L268.673 72.5156C269.683 72.7448 270.615 73.0521 271.469 73.4375C272.324 73.8125 273.063 74.276 273.688 74.8281C274.324 75.3802 274.813 76.0312 275.157 76.7812C275.501 77.5208 275.673 78.375 275.673 79.3438C275.673 80.7708 275.313 82.0104 274.594 83.0625C273.886 84.1042 272.86 84.9115 271.516 85.4844C270.173 86.0469 268.548 86.3281 266.641 86.3281ZM277.672 66.7812V62.7188H296.797V66.7812H289.672V86H284.812V66.7812H277.672ZM300.671 86H295.406L303.437 62.7188H309.781L317.796 86H312.546L306.702 68.0312H306.515L300.671 86ZM300.359 76.8438H312.812V80.6875H300.359V76.8438ZM339.655 62.7188V86H335.405L325.296 71.3594H325.092V86H320.186V62.7188H324.499L334.546 77.3594H334.749V62.7188H339.655ZM342.404 66.7812V62.7188H361.529V66.7812H354.404V86H349.545V66.7812H342.404ZM116.17 130.328C114.295 130.328 112.66 130.042 111.264 129.469C109.878 128.896 108.795 128.042 108.014 126.906C107.243 125.771 106.837 124.365 106.795 122.688H111.545C111.607 123.458 111.837 124.109 112.232 124.641C112.628 125.161 113.16 125.552 113.826 125.812C114.493 126.073 115.259 126.203 116.123 126.203C116.956 126.203 117.68 126.083 118.295 125.844C118.92 125.604 119.399 125.271 119.732 124.844C120.076 124.406 120.248 123.901 120.248 123.328C120.248 122.807 120.092 122.37 119.779 122.016C119.477 121.661 119.029 121.359 118.436 121.109C117.852 120.859 117.139 120.635 116.295 120.438L113.748 119.812C111.79 119.344 110.243 118.599 109.107 117.578C107.972 116.547 107.404 115.172 107.404 113.453C107.404 112.047 107.785 110.818 108.545 109.766C109.316 108.703 110.363 107.88 111.686 107.297C113.019 106.703 114.535 106.406 116.232 106.406C117.962 106.406 119.467 106.703 120.748 107.297C122.04 107.891 123.045 108.714 123.764 109.766C124.493 110.818 124.868 112.031 124.889 113.406H120.154C120.071 112.5 119.68 111.792 118.982 111.281C118.295 110.771 117.363 110.516 116.186 110.516C115.394 110.516 114.717 110.63 114.154 110.859C113.602 111.078 113.18 111.385 112.889 111.781C112.597 112.177 112.451 112.63 112.451 113.141C112.451 113.682 112.618 114.141 112.951 114.516C113.285 114.88 113.727 115.182 114.279 115.422C114.842 115.651 115.456 115.844 116.123 116L118.201 116.516C119.212 116.745 120.144 117.052 120.998 117.438C121.852 117.812 122.592 118.276 123.217 118.828C123.852 119.38 124.342 120.031 124.686 120.781C125.029 121.521 125.201 122.375 125.201 123.344C125.201 124.771 124.842 126.01 124.123 127.062C123.415 128.104 122.389 128.911 121.045 129.484C119.701 130.047 118.076 130.328 116.17 130.328ZM127.201 110.781V106.719H146.326V110.781H139.201V130H134.341V110.781H127.201ZM150.2 130H144.934L152.966 106.719H159.309L167.325 130H162.075L156.231 112.031H156.044L150.2 130ZM149.887 120.844H162.341V124.688H149.887V120.844ZM165.949 110.781V106.719H185.074V110.781H177.949V130H173.09V110.781H165.949ZM202.199 106.719H207.121V121.828C207.121 123.526 206.714 125.016 205.902 126.297C205.1 127.568 203.975 128.557 202.527 129.266C201.079 129.974 199.391 130.328 197.464 130.328C195.537 130.328 193.85 129.974 192.402 129.266C190.954 128.557 189.829 127.568 189.027 126.297C188.225 125.016 187.824 123.526 187.824 121.828V106.719H192.73V121.422C192.73 122.307 192.928 123.099 193.324 123.797C193.72 124.484 194.272 125.026 194.98 125.422C195.688 125.807 196.516 126 197.464 126C198.423 126 199.256 125.807 199.964 125.422C200.673 125.026 201.22 124.484 201.605 123.797C202.001 123.099 202.199 122.307 202.199 121.422V106.719ZM219.401 130.328C217.526 130.328 215.891 130.042 214.495 129.469C213.11 128.896 212.026 128.042 211.245 126.906C210.474 125.771 210.068 124.365 210.026 122.688H214.776C214.839 123.458 215.068 124.109 215.464 124.641C215.86 125.161 216.391 125.552 217.057 125.812C217.724 126.073 218.49 126.203 219.354 126.203C220.188 126.203 220.912 126.083 221.526 125.844C222.151 125.604 222.63 125.271 222.964 124.844C223.307 124.406 223.479 123.901 223.479 123.328C223.479 122.807 223.323 122.37 223.011 122.016C222.709 121.661 222.261 121.359 221.667 121.109C221.084 120.859 220.37 120.635 219.526 120.438L216.979 119.812C215.021 119.344 213.474 118.599 212.339 117.578C211.203 116.547 210.636 115.172 210.636 113.453C210.636 112.047 211.016 110.818 211.776 109.766C212.547 108.703 213.594 107.88 214.917 107.297C216.25 106.703 217.766 106.406 219.464 106.406C221.193 106.406 222.698 106.703 223.979 107.297C225.271 107.891 226.276 108.714 226.995 109.766C227.724 110.818 228.099 112.031 228.12 113.406H223.386C223.302 112.5 222.912 111.792 222.214 111.281C221.526 110.771 220.594 110.516 219.417 110.516C218.625 110.516 217.948 110.63 217.386 110.859C216.834 111.078 216.412 111.385 216.12 111.781C215.828 112.177 215.682 112.63 215.682 113.141C215.682 113.682 215.849 114.141 216.182 114.516C216.516 114.88 216.959 115.182 217.511 115.422C218.073 115.651 218.688 115.844 219.354 116L221.432 116.516C222.443 116.745 223.375 117.052 224.229 117.438C225.084 117.812 225.823 118.276 226.448 118.828C227.084 119.38 227.573 120.031 227.917 120.781C228.261 121.521 228.432 122.375 228.432 123.344C228.432 124.771 228.073 126.01 227.354 127.062C226.646 128.104 225.62 128.911 224.276 129.484C222.932 130.047 221.307 130.328 219.401 130.328ZM257.806 106.719V130H253.556L243.447 115.359H243.244V130H238.337V106.719H242.65L252.697 121.359H252.9V106.719H257.806ZM271.931 130.312C269.868 130.312 268.014 129.844 266.368 128.906C264.722 127.969 263.42 126.609 262.462 124.828C261.504 123.047 261.024 120.896 261.024 118.375C261.024 115.833 261.504 113.672 262.462 111.891C263.42 110.099 264.722 108.74 266.368 107.812C268.014 106.875 269.868 106.406 271.931 106.406C273.993 106.406 275.847 106.875 277.493 107.812C279.139 108.74 280.436 110.099 281.384 111.891C282.342 113.672 282.821 115.833 282.821 118.375C282.821 120.906 282.342 123.062 281.384 124.844C280.436 126.625 279.139 127.984 277.493 128.922C275.847 129.849 273.993 130.312 271.931 130.312ZM271.931 125.969C273.129 125.969 274.17 125.677 275.056 125.094C275.941 124.51 276.623 123.656 277.102 122.531C277.592 121.396 277.837 120.01 277.837 118.375C277.837 116.729 277.592 115.339 277.102 114.203C276.623 113.068 275.941 112.208 275.056 111.625C274.17 111.042 273.129 110.75 271.931 110.75C270.743 110.75 269.707 111.042 268.821 111.625C267.936 112.208 267.243 113.068 266.743 114.203C266.254 115.339 266.009 116.729 266.009 118.375C266.009 120.01 266.254 121.396 266.743 122.531C267.243 123.656 267.936 124.51 268.821 125.094C269.707 125.677 270.743 125.969 271.931 125.969ZM284.133 110.781V106.719H303.258V110.781H296.133V130H291.274V110.781H284.133ZM310.914 106.719V130H306.007V106.719H310.914ZM314.554 130V106.719H329.96V110.781H319.46V117.172H328.944V121.156H319.46V130H314.554ZM337.787 106.719V130H332.881V106.719H337.787ZM351.849 130.312C349.787 130.312 347.938 129.844 346.303 128.906C344.667 127.969 343.375 126.609 342.428 124.828C341.48 123.047 341.006 120.896 341.006 118.375C341.006 115.833 341.48 113.672 342.428 111.891C343.386 110.099 344.683 108.74 346.318 107.812C347.964 106.875 349.808 106.406 351.849 106.406C353.204 106.406 354.459 106.599 355.615 106.984C356.771 107.359 357.792 107.911 358.678 108.641C359.573 109.359 360.303 110.245 360.865 111.297C361.428 112.339 361.787 113.531 361.943 114.875H356.974C356.881 114.24 356.693 113.667 356.412 113.156C356.141 112.646 355.782 112.214 355.334 111.859C354.896 111.505 354.391 111.234 353.818 111.047C353.256 110.849 352.636 110.75 351.959 110.75C350.771 110.75 349.724 111.052 348.818 111.656C347.922 112.25 347.224 113.115 346.724 114.25C346.235 115.375 345.99 116.75 345.99 118.375C345.99 120.031 346.24 121.427 346.74 122.562C347.24 123.688 347.938 124.536 348.834 125.109C349.73 125.682 350.766 125.969 351.943 125.969C352.599 125.969 353.209 125.88 353.771 125.703C354.334 125.526 354.834 125.271 355.271 124.938C355.709 124.604 356.073 124.198 356.365 123.719C356.667 123.229 356.87 122.672 356.974 122.047H361.943C361.818 123.12 361.5 124.151 360.99 125.141C360.49 126.13 359.808 127.016 358.943 127.797C358.079 128.568 357.053 129.182 355.865 129.641C354.678 130.089 353.339 130.312 351.849 130.312ZM368.661 130H363.396L371.427 106.719H377.771L385.786 130H380.536L374.693 112.031H374.505L368.661 130ZM368.349 120.844H380.802V124.688H368.349V120.844ZM384.411 110.781V106.719H403.536V110.781H396.411V130H391.551V110.781H384.411ZM411.191 106.719V130H406.285V106.719H411.191ZM425.316 130.312C423.253 130.312 421.399 129.844 419.753 128.906C418.107 127.969 416.805 126.609 415.847 124.828C414.889 123.047 414.409 120.896 414.409 118.375C414.409 115.833 414.889 113.672 415.847 111.891C416.805 110.099 418.107 108.74 419.753 107.812C421.399 106.875 423.253 106.406 425.316 106.406C427.378 106.406 429.232 106.875 430.878 107.812C432.524 108.74 433.821 110.099 434.769 111.891C435.727 113.672 436.206 115.833 436.206 118.375C436.206 120.906 435.727 123.062 434.769 124.844C433.821 126.625 432.524 127.984 430.878 128.922C429.232 129.849 427.378 130.312 425.316 130.312ZM425.316 125.969C426.514 125.969 427.555 125.677 428.441 125.094C429.326 124.51 430.008 123.656 430.487 122.531C430.977 121.396 431.222 120.01 431.222 118.375C431.222 116.729 430.977 115.339 430.487 114.203C430.008 113.068 429.326 112.208 428.441 111.625C427.555 111.042 426.514 110.75 425.316 110.75C424.128 110.75 423.092 111.042 422.206 111.625C421.321 112.208 420.628 113.068 420.128 114.203C419.639 115.339 419.394 116.729 419.394 118.375C419.394 120.01 419.639 121.396 420.128 122.531C420.628 123.656 421.321 124.51 422.206 125.094C423.092 125.677 424.128 125.969 425.316 125.969ZM458.909 106.719V130H454.659L444.549 115.359H444.346V130H439.44V106.719H443.753L453.799 121.359H454.003V106.719H458.909ZM471.174 130.328C469.299 130.328 467.663 130.042 466.268 129.469C464.882 128.896 463.799 128.042 463.018 126.906C462.247 125.771 461.84 124.365 461.799 122.688H466.549C466.611 123.458 466.84 124.109 467.236 124.641C467.632 125.161 468.163 125.552 468.83 125.812C469.497 126.073 470.262 126.203 471.127 126.203C471.96 126.203 472.684 126.083 473.299 125.844C473.924 125.604 474.403 125.271 474.736 124.844C475.08 124.406 475.252 123.901 475.252 123.328C475.252 122.807 475.096 122.37 474.783 122.016C474.481 121.661 474.033 121.359 473.439 121.109C472.856 120.859 472.143 120.635 471.299 120.438L468.752 119.812C466.794 119.344 465.247 118.599 464.111 117.578C462.976 116.547 462.408 115.172 462.408 113.453C462.408 112.047 462.788 110.818 463.549 109.766C464.32 108.703 465.366 107.88 466.689 107.297C468.023 106.703 469.538 106.406 471.236 106.406C472.965 106.406 474.471 106.703 475.752 107.297C477.044 107.891 478.049 108.714 478.768 109.766C479.497 110.818 479.872 112.031 479.893 113.406H475.158C475.075 112.5 474.684 111.792 473.986 111.281C473.299 110.771 472.366 110.516 471.189 110.516C470.398 110.516 469.721 110.63 469.158 110.859C468.606 111.078 468.184 111.385 467.893 111.781C467.601 112.177 467.455 112.63 467.455 113.141C467.455 113.682 467.622 114.141 467.955 114.516C468.288 114.88 468.731 115.182 469.283 115.422C469.846 115.651 470.46 115.844 471.127 116L473.205 116.516C474.215 116.745 475.148 117.052 476.002 117.438C476.856 117.812 477.596 118.276 478.221 118.828C478.856 119.38 479.346 120.031 479.689 120.781C480.033 121.521 480.205 122.375 480.205 123.344C480.205 124.771 479.846 126.01 479.127 127.062C478.419 128.104 477.393 128.911 476.049 129.484C474.705 130.047 473.08 130.328 471.174 130.328Z" fill="white"/>
<path d="M170.605 161.416H174.365V166.344C174.194 166.472 173.986 166.589 173.741 166.696C173.506 166.803 173.25 166.893 172.973 166.968C172.706 167.043 172.423 167.096 172.125 167.128C171.837 167.171 171.554 167.192 171.277 167.192C170.562 167.192 169.906 167.08 169.309 166.856C168.711 166.621 168.194 166.269 167.757 165.8C167.319 165.32 166.978 164.717 166.733 163.992C166.487 163.256 166.365 162.392 166.365 161.4C166.365 160.365 166.514 159.48 166.813 158.744C167.111 158.008 167.501 157.411 167.981 156.952C168.461 156.483 168.999 156.141 169.597 155.928C170.194 155.715 170.791 155.608 171.389 155.608C172.029 155.608 172.557 155.645 172.973 155.72C173.389 155.784 173.741 155.875 174.029 155.992L173.693 157.16C173.181 156.915 172.45 156.792 171.501 156.792C171.053 156.792 170.605 156.872 170.157 157.032C169.719 157.181 169.325 157.437 168.973 157.8C168.621 158.163 168.333 158.637 168.109 159.224C167.885 159.811 167.773 160.536 167.773 161.4C167.773 162.189 167.863 162.872 168.045 163.448C168.226 164.024 168.477 164.504 168.797 164.888C169.127 165.261 169.522 165.544 169.981 165.736C170.439 165.917 170.941 166.008 171.485 166.008C172.167 166.008 172.749 165.875 173.229 165.608V162.488L170.605 162.168V161.416ZM182.338 166.36C182.018 166.616 181.612 166.819 181.122 166.968C180.642 167.117 180.13 167.192 179.586 167.192C178.978 167.192 178.45 167.096 178.002 166.904C177.554 166.701 177.186 166.419 176.898 166.056C176.61 165.683 176.396 165.24 176.258 164.728C176.119 164.216 176.05 163.64 176.05 163C176.05 161.635 176.354 160.595 176.962 159.88C177.57 159.165 178.439 158.808 179.57 158.808C179.932 158.808 180.295 158.851 180.658 158.936C181.02 159.011 181.346 159.16 181.634 159.384C181.922 159.608 182.156 159.928 182.338 160.344C182.519 160.749 182.61 161.288 182.61 161.96C182.61 162.312 182.578 162.701 182.514 163.128H177.378C177.378 163.597 177.426 164.013 177.522 164.376C177.618 164.739 177.767 165.048 177.97 165.304C178.172 165.549 178.434 165.741 178.754 165.88C179.084 166.008 179.484 166.072 179.954 166.072C180.316 166.072 180.679 166.008 181.042 165.88C181.404 165.752 181.676 165.603 181.858 165.432L182.338 166.36ZM179.586 159.928C178.956 159.928 178.45 160.093 178.066 160.424C177.692 160.755 177.468 161.32 177.394 162.12H181.362C181.362 161.309 181.207 160.744 180.898 160.424C180.588 160.093 180.151 159.928 179.586 159.928ZM183.567 159H184.815V157.416L186.095 157.048V159H188.271V160.12H186.095V164.552C186.095 165.107 186.164 165.501 186.303 165.736C186.441 165.96 186.676 166.072 187.007 166.072C187.284 166.072 187.519 166.045 187.711 165.992C187.903 165.928 188.116 165.848 188.351 165.752L188.639 166.728C188.351 166.867 188.036 166.979 187.695 167.064C187.353 167.149 186.985 167.192 186.591 167.192C185.94 167.192 185.481 167.011 185.215 166.648C184.948 166.275 184.815 165.656 184.815 164.792V160.12H183.567V159ZM194.31 159H195.19L195.43 159.96H195.494C195.739 159.587 196.054 159.304 196.438 159.112C196.833 158.909 197.281 158.808 197.782 158.808C198.849 158.808 199.643 159.123 200.166 159.752C200.689 160.381 200.95 161.411 200.95 162.84C200.95 163.512 200.859 164.12 200.678 164.664C200.507 165.197 200.262 165.651 199.942 166.024C199.622 166.397 199.233 166.685 198.774 166.888C198.326 167.091 197.825 167.192 197.27 167.192C196.875 167.192 196.561 167.165 196.326 167.112C196.102 167.069 195.857 166.989 195.59 166.872V170.2H194.31V159ZM197.542 159.928C196.998 159.928 196.566 160.072 196.246 160.36C195.937 160.637 195.718 161.064 195.59 161.64V165.608C195.782 165.757 196.001 165.875 196.246 165.96C196.491 166.035 196.817 166.072 197.222 166.072C197.958 166.072 198.539 165.8 198.966 165.256C199.403 164.701 199.622 163.891 199.622 162.824C199.622 162.387 199.585 161.992 199.51 161.64C199.435 161.277 199.313 160.973 199.142 160.728C198.982 160.472 198.769 160.275 198.502 160.136C198.246 159.997 197.926 159.928 197.542 159.928ZM204.118 159V163.56C204.118 163.976 204.14 164.344 204.182 164.664C204.236 164.973 204.321 165.235 204.438 165.448C204.556 165.651 204.716 165.805 204.918 165.912C205.121 166.019 205.377 166.072 205.686 166.072C205.974 166.072 206.23 166.029 206.454 165.944C206.678 165.848 206.876 165.72 207.046 165.56C207.228 165.4 207.382 165.219 207.51 165.016C207.649 164.803 207.761 164.579 207.846 164.344V159H209.126V164.728C209.126 165.112 209.137 165.512 209.158 165.928C209.19 166.333 209.238 166.691 209.302 167H208.422L208.102 165.736H208.022C207.777 166.152 207.446 166.499 207.03 166.776C206.614 167.053 206.086 167.192 205.446 167.192C205.02 167.192 204.641 167.139 204.31 167.032C203.99 166.936 203.718 166.76 203.494 166.504C203.281 166.248 203.116 165.907 202.998 165.48C202.892 165.043 202.838 164.493 202.838 163.832V159H204.118ZM215.111 164.824C215.111 164.504 215.015 164.253 214.823 164.072C214.631 163.891 214.391 163.741 214.103 163.624C213.826 163.496 213.517 163.379 213.175 163.272C212.845 163.155 212.535 163.011 212.247 162.84C211.97 162.659 211.735 162.429 211.543 162.152C211.351 161.875 211.255 161.501 211.255 161.032C211.255 160.264 211.474 159.704 211.911 159.352C212.349 158.989 212.957 158.808 213.735 158.808C214.311 158.808 214.791 158.861 215.175 158.968C215.57 159.064 215.911 159.181 216.199 159.32L215.895 160.376C215.65 160.259 215.351 160.157 214.999 160.072C214.658 159.976 214.29 159.928 213.895 159.928C213.426 159.928 213.079 160.008 212.855 160.168C212.642 160.328 212.535 160.605 212.535 161C212.535 161.277 212.631 161.496 212.823 161.656C213.015 161.805 213.25 161.944 213.527 162.072C213.815 162.189 214.125 162.307 214.455 162.424C214.797 162.541 215.106 162.696 215.383 162.888C215.671 163.08 215.911 163.325 216.103 163.624C216.295 163.912 216.391 164.296 216.391 164.776C216.391 165.117 216.333 165.437 216.215 165.736C216.109 166.035 215.938 166.291 215.703 166.504C215.469 166.717 215.175 166.883 214.823 167C214.482 167.128 214.077 167.192 213.607 167.192C212.999 167.192 212.482 167.133 212.055 167.016C211.629 166.899 211.271 166.76 210.983 166.6L211.367 165.512C211.613 165.651 211.933 165.779 212.327 165.896C212.722 166.013 213.122 166.072 213.527 166.072C213.986 166.072 214.365 165.981 214.663 165.8C214.962 165.619 215.111 165.293 215.111 164.824ZM223.462 167V162.44C223.462 162.024 223.435 161.661 223.382 161.352C223.339 161.032 223.254 160.771 223.126 160.568C222.998 160.355 222.822 160.195 222.598 160.088C222.384 159.981 222.102 159.928 221.75 159.928C221.248 159.928 220.795 160.093 220.39 160.424C219.984 160.744 219.723 161.16 219.606 161.672V167H218.326V155.8H219.606V159.896H219.67C219.947 159.565 220.278 159.304 220.662 159.112C221.056 158.909 221.542 158.808 222.118 158.808C222.566 158.808 222.955 158.861 223.286 158.968C223.616 159.064 223.888 159.24 224.102 159.496C224.326 159.752 224.486 160.099 224.582 160.536C224.688 160.963 224.742 161.507 224.742 162.168V167H223.462ZM236.477 167V162.44C236.477 161.608 236.355 160.984 236.109 160.568C235.875 160.141 235.437 159.928 234.797 159.928C234.232 159.928 233.763 160.083 233.389 160.392C233.027 160.691 232.771 161.069 232.621 161.528V167H231.341V159H232.237L232.477 159.976H232.541C232.797 159.635 233.139 159.357 233.565 159.144C234.003 158.92 234.52 158.808 235.117 158.808C235.555 158.808 235.939 158.861 236.269 158.968C236.6 159.064 236.872 159.24 237.085 159.496C237.309 159.752 237.475 160.099 237.581 160.536C237.699 160.963 237.757 161.507 237.757 162.168V167H236.477ZM239.643 163C239.643 161.645 239.942 160.611 240.539 159.896C241.147 159.171 242.017 158.808 243.147 158.808C243.745 158.808 244.262 158.909 244.699 159.112C245.147 159.304 245.515 159.587 245.803 159.96C246.091 160.323 246.305 160.765 246.443 161.288C246.582 161.8 246.651 162.371 246.651 163C246.651 164.355 246.347 165.395 245.739 166.12C245.142 166.835 244.278 167.192 243.147 167.192C242.55 167.192 242.027 167.096 241.579 166.904C241.142 166.701 240.779 166.419 240.491 166.056C240.203 165.683 239.99 165.24 239.851 164.728C239.713 164.205 239.643 163.629 239.643 163ZM240.971 163C240.971 163.405 241.009 163.795 241.083 164.168C241.169 164.541 241.297 164.867 241.467 165.144C241.638 165.421 241.862 165.645 242.139 165.816C242.417 165.987 242.753 166.072 243.147 166.072C244.598 166.083 245.323 165.059 245.323 163C245.323 162.584 245.281 162.189 245.195 161.816C245.121 161.443 244.998 161.117 244.827 160.84C244.657 160.563 244.433 160.344 244.155 160.184C243.878 160.013 243.542 159.928 243.147 159.928C241.697 159.917 240.971 160.941 240.971 163ZM247.614 159H248.862V157.416L250.142 157.048V159H252.318V160.12H250.142V164.552C250.142 165.107 250.211 165.501 250.35 165.736C250.488 165.96 250.723 166.072 251.054 166.072C251.331 166.072 251.566 166.045 251.758 165.992C251.95 165.928 252.163 165.848 252.398 165.752L252.686 166.728C252.398 166.867 252.083 166.979 251.742 167.064C251.4 167.149 251.032 167.192 250.638 167.192C249.987 167.192 249.528 167.011 249.262 166.648C248.995 166.275 248.862 165.656 248.862 164.792V160.12H247.614V159ZM254.363 159H255.643V167H254.363V159ZM254.091 156.568C254.091 156.323 254.171 156.115 254.331 155.944C254.502 155.763 254.715 155.672 254.971 155.672C255.227 155.672 255.446 155.763 255.627 155.944C255.809 156.115 255.899 156.323 255.899 156.568C255.899 156.813 255.809 157.016 255.627 157.176C255.446 157.336 255.227 157.416 254.971 157.416C254.715 157.416 254.502 157.336 254.331 157.176C254.171 157.016 254.091 156.813 254.091 156.568ZM264.533 159V167H263.253V160.12H260.021V167H258.741V160.12H257.493V159H258.741V158.552C258.741 157.549 258.986 156.824 259.477 156.376C259.978 155.917 260.709 155.688 261.669 155.688C262.298 155.688 262.858 155.752 263.349 155.88C263.839 155.997 264.223 156.141 264.501 156.312L264.069 157.336C263.781 157.155 263.439 157.021 263.045 156.936C262.65 156.851 262.229 156.808 261.781 156.808C261.386 156.808 261.071 156.856 260.837 156.952C260.613 157.037 260.437 157.176 260.309 157.368C260.191 157.549 260.111 157.779 260.069 158.056C260.037 158.333 260.021 158.648 260.021 159H264.533ZM272.469 166.472C272.149 166.707 271.771 166.883 271.333 167C270.896 167.128 270.437 167.192 269.957 167.192C269.339 167.192 268.816 167.096 268.389 166.904C267.963 166.701 267.611 166.419 267.333 166.056C267.067 165.683 266.869 165.24 266.741 164.728C266.624 164.205 266.565 163.629 266.565 163C266.565 161.645 266.864 160.611 267.461 159.896C268.059 159.171 268.917 158.808 270.037 158.808C270.549 158.808 270.981 158.851 271.333 158.936C271.696 159.011 272.021 159.123 272.309 159.272L271.941 160.376C271.696 160.237 271.424 160.131 271.125 160.056C270.827 159.971 270.507 159.928 270.165 159.928C268.651 159.928 267.893 160.952 267.893 163C267.893 163.405 267.931 163.795 268.005 164.168C268.091 164.531 268.224 164.856 268.405 165.144C268.597 165.421 268.843 165.645 269.141 165.816C269.451 165.987 269.829 166.072 270.277 166.072C270.661 166.072 271.003 166.013 271.301 165.896C271.611 165.779 271.861 165.645 272.053 165.496L272.469 166.472ZM274.104 159.592C274.509 159.347 274.979 159.165 275.512 159.048C276.056 158.931 276.621 158.872 277.208 158.872C277.763 158.872 278.205 158.947 278.536 159.096C278.877 159.245 279.133 159.443 279.304 159.688C279.485 159.923 279.603 160.184 279.656 160.472C279.72 160.76 279.752 161.048 279.752 161.336C279.752 161.976 279.736 162.6 279.704 163.208C279.672 163.816 279.656 164.392 279.656 164.936C279.656 165.331 279.672 165.704 279.704 166.056C279.736 166.408 279.795 166.733 279.88 167.032H278.936L278.6 165.912H278.52C278.424 166.061 278.301 166.211 278.152 166.36C278.013 166.499 277.843 166.627 277.64 166.744C277.437 166.851 277.203 166.941 276.936 167.016C276.669 167.091 276.365 167.128 276.024 167.128C275.683 167.128 275.363 167.075 275.064 166.968C274.776 166.861 274.525 166.712 274.312 166.52C274.099 166.317 273.928 166.077 273.8 165.8C273.683 165.523 273.624 165.208 273.624 164.856C273.624 164.387 273.72 163.997 273.912 163.688C274.104 163.368 274.371 163.117 274.712 162.936C275.064 162.744 275.48 162.611 275.96 162.536C276.451 162.451 276.989 162.408 277.576 162.408C277.725 162.408 277.869 162.408 278.008 162.408C278.157 162.408 278.307 162.419 278.456 162.44C278.488 162.12 278.504 161.832 278.504 161.576C278.504 160.989 278.387 160.579 278.152 160.344C277.917 160.109 277.491 159.992 276.872 159.992C276.691 159.992 276.493 160.008 276.28 160.04C276.077 160.061 275.864 160.099 275.64 160.152C275.427 160.195 275.219 160.253 275.016 160.328C274.824 160.392 274.653 160.467 274.504 160.552L274.104 159.592ZM276.376 166.008C276.675 166.008 276.941 165.971 277.176 165.896C277.411 165.811 277.613 165.709 277.784 165.592C277.955 165.464 278.093 165.325 278.2 165.176C278.317 165.027 278.403 164.883 278.456 164.744V163.416C278.307 163.405 278.152 163.4 277.992 163.4C277.843 163.389 277.693 163.384 277.544 163.384C277.213 163.384 276.888 163.405 276.568 163.448C276.259 163.48 275.981 163.549 275.736 163.656C275.501 163.752 275.309 163.891 275.16 164.072C275.021 164.243 274.952 164.461 274.952 164.728C274.952 165.101 275.085 165.411 275.352 165.656C275.619 165.891 275.96 166.008 276.376 166.008ZM281.114 159H282.362V157.416L283.642 157.048V159H285.818V160.12H283.642V164.552C283.642 165.107 283.711 165.501 283.85 165.736C283.988 165.96 284.223 166.072 284.554 166.072C284.831 166.072 285.066 166.045 285.258 165.992C285.45 165.928 285.663 165.848 285.898 165.752L286.186 166.728C285.898 166.867 285.583 166.979 285.242 167.064C284.9 167.149 284.532 167.192 284.138 167.192C283.487 167.192 283.028 167.011 282.762 166.648C282.495 166.275 282.362 165.656 282.362 164.792V160.12H281.114V159ZM287.863 159H289.143V167H287.863V159ZM287.591 156.568C287.591 156.323 287.671 156.115 287.831 155.944C288.002 155.763 288.215 155.672 288.471 155.672C288.727 155.672 288.946 155.763 289.127 155.944C289.309 156.115 289.399 156.323 289.399 156.568C289.399 156.813 289.309 157.016 289.127 157.176C288.946 157.336 288.727 157.416 288.471 157.416C288.215 157.416 288.002 157.336 287.831 157.176C287.671 157.016 287.591 156.813 287.591 156.568ZM291.425 163C291.425 161.645 291.723 160.611 292.321 159.896C292.929 159.171 293.798 158.808 294.929 158.808C295.526 158.808 296.043 158.909 296.481 159.112C296.929 159.304 297.297 159.587 297.585 159.96C297.873 160.323 298.086 160.765 298.225 161.288C298.363 161.8 298.433 162.371 298.433 163C298.433 164.355 298.129 165.395 297.521 166.12C296.923 166.835 296.059 167.192 294.929 167.192C294.331 167.192 293.809 167.096 293.361 166.904C292.923 166.701 292.561 166.419 292.273 166.056C291.985 165.683 291.771 165.24 291.633 164.728C291.494 164.205 291.425 163.629 291.425 163ZM292.753 163C292.753 163.405 292.79 163.795 292.865 164.168C292.95 164.541 293.078 164.867 293.249 165.144C293.419 165.421 293.643 165.645 293.921 165.816C294.198 165.987 294.534 166.072 294.929 166.072C296.379 166.083 297.105 165.059 297.105 163C297.105 162.584 297.062 162.189 296.977 161.816C296.902 161.443 296.779 161.117 296.609 160.84C296.438 160.563 296.214 160.344 295.937 160.184C295.659 160.013 295.323 159.928 294.929 159.928C293.478 159.917 292.753 160.941 292.753 163ZM305.587 167V162.44C305.587 161.608 305.464 160.984 305.219 160.568C304.984 160.141 304.547 159.928 303.907 159.928C303.341 159.928 302.872 160.083 302.499 160.392C302.136 160.691 301.88 161.069 301.731 161.528V167H300.451V159H301.347L301.587 159.976H301.651C301.907 159.635 302.248 159.357 302.675 159.144C303.112 158.92 303.629 158.808 304.227 158.808C304.664 158.808 305.048 158.861 305.379 158.968C305.709 159.064 305.981 159.24 306.195 159.496C306.419 159.752 306.584 160.099 306.691 160.536C306.808 160.963 306.867 161.507 306.867 162.168V167H305.587ZM313.018 163C313.018 161.645 313.317 160.611 313.914 159.896C314.522 159.171 315.392 158.808 316.522 158.808C317.12 158.808 317.637 158.909 318.074 159.112C318.522 159.304 318.89 159.587 319.178 159.96C319.466 160.323 319.68 160.765 319.818 161.288C319.957 161.8 320.026 162.371 320.026 163C320.026 164.355 319.722 165.395 319.114 166.12C318.517 166.835 317.653 167.192 316.522 167.192C315.925 167.192 315.402 167.096 314.954 166.904C314.517 166.701 314.154 166.419 313.866 166.056C313.578 165.683 313.365 165.24 313.226 164.728C313.088 164.205 313.018 163.629 313.018 163ZM314.346 163C314.346 163.405 314.384 163.795 314.458 164.168C314.544 164.541 314.672 164.867 314.842 165.144C315.013 165.421 315.237 165.645 315.514 165.816C315.792 165.987 316.128 166.072 316.522 166.072C317.973 166.083 318.698 165.059 318.698 163C318.698 162.584 318.656 162.189 318.57 161.816C318.496 161.443 318.373 161.117 318.202 160.84C318.032 160.563 317.808 160.344 317.53 160.184C317.253 160.013 316.917 159.928 316.522 159.928C315.072 159.917 314.346 160.941 314.346 163ZM327.181 167V162.44C327.181 161.608 327.058 160.984 326.813 160.568C326.578 160.141 326.141 159.928 325.501 159.928C324.935 159.928 324.466 160.083 324.093 160.392C323.73 160.691 323.474 161.069 323.325 161.528V167H322.045V159H322.941L323.181 159.976H323.245C323.501 159.635 323.842 159.357 324.269 159.144C324.706 158.92 325.223 158.808 325.821 158.808C326.258 158.808 326.642 158.861 326.973 158.968C327.303 159.064 327.575 159.24 327.789 159.496C328.013 159.752 328.178 160.099 328.285 160.536C328.402 160.963 328.461 161.507 328.461 162.168V167H327.181ZM336.484 165.032C336.484 165.405 336.548 165.672 336.676 165.832C336.804 165.992 336.985 166.072 337.22 166.072C337.359 166.072 337.508 166.061 337.668 166.04C337.828 166.019 338.009 165.971 338.212 165.896L338.356 166.904C338.185 166.989 337.945 167.059 337.636 167.112C337.337 167.165 337.076 167.192 336.852 167.192C336.372 167.192 335.977 167.059 335.668 166.792C335.359 166.515 335.204 166.051 335.204 165.4V155.8H336.484V165.032ZM339.604 159.592C340.009 159.347 340.479 159.165 341.012 159.048C341.556 158.931 342.121 158.872 342.708 158.872C343.263 158.872 343.705 158.947 344.036 159.096C344.377 159.245 344.633 159.443 344.804 159.688C344.985 159.923 345.103 160.184 345.156 160.472C345.22 160.76 345.252 161.048 345.252 161.336C345.252 161.976 345.236 162.6 345.204 163.208C345.172 163.816 345.156 164.392 345.156 164.936C345.156 165.331 345.172 165.704 345.204 166.056C345.236 166.408 345.295 166.733 345.38 167.032H344.436L344.1 165.912H344.02C343.924 166.061 343.801 166.211 343.652 166.36C343.513 166.499 343.343 166.627 343.14 166.744C342.937 166.851 342.703 166.941 342.436 167.016C342.169 167.091 341.865 167.128 341.524 167.128C341.183 167.128 340.863 167.075 340.564 166.968C340.276 166.861 340.025 166.712 339.812 166.52C339.599 166.317 339.428 166.077 339.3 165.8C339.183 165.523 339.124 165.208 339.124 164.856C339.124 164.387 339.22 163.997 339.412 163.688C339.604 163.368 339.871 163.117 340.212 162.936C340.564 162.744 340.98 162.611 341.46 162.536C341.951 162.451 342.489 162.408 343.076 162.408C343.225 162.408 343.369 162.408 343.508 162.408C343.657 162.408 343.807 162.419 343.956 162.44C343.988 162.12 344.004 161.832 344.004 161.576C344.004 160.989 343.887 160.579 343.652 160.344C343.417 160.109 342.991 159.992 342.372 159.992C342.191 159.992 341.993 160.008 341.78 160.04C341.577 160.061 341.364 160.099 341.14 160.152C340.927 160.195 340.719 160.253 340.516 160.328C340.324 160.392 340.153 160.467 340.004 160.552L339.604 159.592ZM341.876 166.008C342.175 166.008 342.441 165.971 342.676 165.896C342.911 165.811 343.113 165.709 343.284 165.592C343.455 165.464 343.593 165.325 343.7 165.176C343.817 165.027 343.903 164.883 343.956 164.744V163.416C343.807 163.405 343.652 163.4 343.492 163.4C343.343 163.389 343.193 163.384 343.044 163.384C342.713 163.384 342.388 163.405 342.068 163.448C341.759 163.48 341.481 163.549 341.236 163.656C341.001 163.752 340.809 163.891 340.66 164.072C340.521 164.243 340.452 164.461 340.452 164.728C340.452 165.101 340.585 165.411 340.852 165.656C341.119 165.891 341.46 166.008 341.876 166.008ZM346.614 159H347.862V157.416L349.142 157.048V159H351.318V160.12H349.142V164.552C349.142 165.107 349.211 165.501 349.35 165.736C349.488 165.96 349.723 166.072 350.054 166.072C350.331 166.072 350.566 166.045 350.758 165.992C350.95 165.928 351.163 165.848 351.398 165.752L351.686 166.728C351.398 166.867 351.083 166.979 350.742 167.064C350.4 167.149 350.032 167.192 349.638 167.192C348.987 167.192 348.528 167.011 348.262 166.648C347.995 166.275 347.862 165.656 347.862 164.792V160.12H346.614V159ZM358.76 166.36C358.44 166.616 358.034 166.819 357.544 166.968C357.064 167.117 356.552 167.192 356.008 167.192C355.4 167.192 354.872 167.096 354.424 166.904C353.976 166.701 353.608 166.419 353.32 166.056C353.032 165.683 352.818 165.24 352.68 164.728C352.541 164.216 352.472 163.64 352.472 163C352.472 161.635 352.776 160.595 353.384 159.88C353.992 159.165 354.861 158.808 355.992 158.808C356.354 158.808 356.717 158.851 357.08 158.936C357.442 159.011 357.768 159.16 358.056 159.384C358.344 159.608 358.578 159.928 358.76 160.344C358.941 160.749 359.032 161.288 359.032 161.96C359.032 162.312 359 162.701 358.936 163.128H353.799C353.799 163.597 353.848 164.013 353.944 164.376C354.04 164.739 354.189 165.048 354.392 165.304C354.594 165.549 354.856 165.741 355.176 165.88C355.506 166.008 355.906 166.072 356.376 166.072C356.738 166.072 357.101 166.008 357.464 165.88C357.826 165.752 358.098 165.603 358.28 165.432L358.76 166.36ZM356.008 159.928C355.378 159.928 354.872 160.093 354.488 160.424C354.114 160.755 353.89 161.32 353.816 162.12H357.784C357.784 161.309 357.629 160.744 357.32 160.424C357.01 160.093 356.573 159.928 356.008 159.928ZM364.565 164.824C364.565 164.504 364.469 164.253 364.277 164.072C364.085 163.891 363.845 163.741 363.557 163.624C363.279 163.496 362.97 163.379 362.629 163.272C362.298 163.155 361.989 163.011 361.701 162.84C361.423 162.659 361.189 162.429 360.997 162.152C360.805 161.875 360.709 161.501 360.709 161.032C360.709 160.264 360.927 159.704 361.365 159.352C361.802 158.989 362.41 158.808 363.189 158.808C363.765 158.808 364.245 158.861 364.629 158.968C365.023 159.064 365.365 159.181 365.653 159.32L365.349 160.376C365.103 160.259 364.805 160.157 364.453 160.072C364.111 159.976 363.743 159.928 363.349 159.928C362.879 159.928 362.533 160.008 362.309 160.168C362.095 160.328 361.989 160.605 361.989 161C361.989 161.277 362.085 161.496 362.277 161.656C362.469 161.805 362.703 161.944 362.981 162.072C363.269 162.189 363.578 162.307 363.909 162.424C364.25 162.541 364.559 162.696 364.837 162.888C365.125 163.08 365.365 163.325 365.557 163.624C365.749 163.912 365.845 164.296 365.845 164.776C365.845 165.117 365.786 165.437 365.669 165.736C365.562 166.035 365.391 166.291 365.157 166.504C364.922 166.717 364.629 166.883 364.277 167C363.935 167.128 363.53 167.192 363.061 167.192C362.453 167.192 361.935 167.133 361.509 167.016C361.082 166.899 360.725 166.76 360.437 166.6L360.821 165.512C361.066 165.651 361.386 165.779 361.781 165.896C362.175 166.013 362.575 166.072 362.981 166.072C363.439 166.072 363.818 165.981 364.117 165.8C364.415 165.619 364.565 165.293 364.565 164.824ZM366.723 159H367.971V157.416L369.251 157.048V159H371.427V160.12H369.251V164.552C369.251 165.107 369.32 165.501 369.459 165.736C369.598 165.96 369.832 166.072 370.163 166.072C370.44 166.072 370.675 166.045 370.867 165.992C371.059 165.928 371.272 165.848 371.507 165.752L371.795 166.728C371.507 166.867 371.192 166.979 370.851 167.064C370.51 167.149 370.142 167.192 369.747 167.192C369.096 167.192 368.638 167.011 368.371 166.648C368.104 166.275 367.971 165.656 367.971 164.792V160.12H366.723V159ZM380.986 164.824C380.986 164.504 380.89 164.253 380.698 164.072C380.506 163.891 380.266 163.741 379.978 163.624C379.701 163.496 379.392 163.379 379.05 163.272C378.72 163.155 378.41 163.011 378.122 162.84C377.845 162.659 377.61 162.429 377.418 162.152C377.226 161.875 377.13 161.501 377.13 161.032C377.13 160.264 377.349 159.704 377.786 159.352C378.224 158.989 378.832 158.808 379.61 158.808C380.186 158.808 380.666 158.861 381.05 158.968C381.445 159.064 381.786 159.181 382.074 159.32L381.77 160.376C381.525 160.259 381.226 160.157 380.874 160.072C380.533 159.976 380.165 159.928 379.77 159.928C379.301 159.928 378.954 160.008 378.73 160.168C378.517 160.328 378.41 160.605 378.41 161C378.41 161.277 378.506 161.496 378.698 161.656C378.89 161.805 379.125 161.944 379.402 162.072C379.69 162.189 380 162.307 380.33 162.424C380.672 162.541 380.981 162.696 381.258 162.888C381.546 163.08 381.786 163.325 381.978 163.624C382.17 163.912 382.266 164.296 382.266 164.776C382.266 165.117 382.208 165.437 382.09 165.736C381.984 166.035 381.813 166.291 381.578 166.504C381.344 166.717 381.05 166.883 380.698 167C380.357 167.128 379.952 167.192 379.482 167.192C378.874 167.192 378.357 167.133 377.93 167.016C377.504 166.899 377.146 166.76 376.858 166.6L377.242 165.512C377.488 165.651 377.808 165.779 378.202 165.896C378.597 166.013 378.997 166.072 379.402 166.072C379.861 166.072 380.24 165.981 380.538 165.8C380.837 165.619 380.986 165.293 380.986 164.824ZM383.145 159H384.393V157.416L385.673 157.048V159H387.849V160.12H385.673V164.552C385.673 165.107 385.742 165.501 385.881 165.736C386.019 165.96 386.254 166.072 386.585 166.072C386.862 166.072 387.097 166.045 387.289 165.992C387.481 165.928 387.694 165.848 387.929 165.752L388.217 166.728C387.929 166.867 387.614 166.979 387.273 167.064C386.931 167.149 386.563 167.192 386.169 167.192C385.518 167.192 385.059 167.011 384.793 166.648C384.526 166.275 384.393 165.656 384.393 164.792V160.12H383.145V159ZM389.495 159.592C389.9 159.347 390.369 159.165 390.903 159.048C391.447 158.931 392.012 158.872 392.599 158.872C393.153 158.872 393.596 158.947 393.927 159.096C394.268 159.245 394.524 159.443 394.695 159.688C394.876 159.923 394.993 160.184 395.047 160.472C395.111 160.76 395.143 161.048 395.143 161.336C395.143 161.976 395.127 162.6 395.095 163.208C395.063 163.816 395.047 164.392 395.047 164.936C395.047 165.331 395.063 165.704 395.095 166.056C395.127 166.408 395.185 166.733 395.271 167.032H394.327L393.991 165.912H393.911C393.815 166.061 393.692 166.211 393.543 166.36C393.404 166.499 393.233 166.627 393.031 166.744C392.828 166.851 392.593 166.941 392.327 167.016C392.06 167.091 391.756 167.128 391.415 167.128C391.073 167.128 390.753 167.075 390.455 166.968C390.167 166.861 389.916 166.712 389.703 166.52C389.489 166.317 389.319 166.077 389.191 165.8C389.073 165.523 389.015 165.208 389.015 164.856C389.015 164.387 389.111 163.997 389.303 163.688C389.495 163.368 389.761 163.117 390.103 162.936C390.455 162.744 390.871 162.611 391.351 162.536C391.841 162.451 392.38 162.408 392.967 162.408C393.116 162.408 393.26 162.408 393.399 162.408C393.548 162.408 393.697 162.419 393.847 162.44C393.879 162.12 393.895 161.832 393.895 161.576C393.895 160.989 393.777 160.579 393.543 160.344C393.308 160.109 392.881 159.992 392.263 159.992C392.081 159.992 391.884 160.008 391.671 160.04C391.468 160.061 391.255 160.099 391.031 160.152C390.817 160.195 390.609 160.253 390.407 160.328C390.215 160.392 390.044 160.467 389.895 160.552L389.495 159.592ZM391.767 166.008C392.065 166.008 392.332 165.971 392.567 165.896C392.801 165.811 393.004 165.709 393.175 165.592C393.345 165.464 393.484 165.325 393.591 165.176C393.708 165.027 393.793 164.883 393.847 164.744V163.416C393.697 163.405 393.543 163.4 393.383 163.4C393.233 163.389 393.084 163.384 392.935 163.384C392.604 163.384 392.279 163.405 391.959 163.448C391.649 163.48 391.372 163.549 391.127 163.656C390.892 163.752 390.7 163.891 390.551 164.072C390.412 164.243 390.343 164.461 390.343 164.728C390.343 165.101 390.476 165.411 390.743 165.656C391.009 165.891 391.351 166.008 391.767 166.008ZM396.504 159H397.752V157.416L399.032 157.048V159H401.208V160.12H399.032V164.552C399.032 165.107 399.101 165.501 399.24 165.736C399.379 165.96 399.613 166.072 399.944 166.072C400.221 166.072 400.456 166.045 400.648 165.992C400.84 165.928 401.053 165.848 401.288 165.752L401.576 166.728C401.288 166.867 400.973 166.979 400.632 167.064C400.291 167.149 399.923 167.192 399.528 167.192C398.877 167.192 398.419 167.011 398.152 166.648C397.885 166.275 397.752 165.656 397.752 164.792V160.12H396.504V159ZM404.134 159V163.56C404.134 163.976 404.155 164.344 404.198 164.664C404.251 164.973 404.337 165.235 404.454 165.448C404.571 165.651 404.731 165.805 404.934 165.912C405.137 166.019 405.393 166.072 405.702 166.072C405.99 166.072 406.246 166.029 406.47 165.944C406.694 165.848 406.891 165.72 407.062 165.56C407.243 165.4 407.398 165.219 407.526 165.016C407.665 164.803 407.777 164.579 407.862 164.344V159H409.142V164.728C409.142 165.112 409.153 165.512 409.174 165.928C409.206 166.333 409.254 166.691 409.318 167H408.438L408.118 165.736H408.038C407.793 166.152 407.462 166.499 407.046 166.776C406.63 167.053 406.102 167.192 405.462 167.192C405.035 167.192 404.657 167.139 404.326 167.032C404.006 166.936 403.734 166.76 403.51 166.504C403.297 166.248 403.131 165.907 403.014 165.48C402.907 165.043 402.854 164.493 402.854 163.832V159H404.134ZM415.127 164.824C415.127 164.504 415.031 164.253 414.839 164.072C414.647 163.891 414.407 163.741 414.119 163.624C413.842 163.496 413.532 163.379 413.191 163.272C412.86 163.155 412.551 163.011 412.263 162.84C411.986 162.659 411.751 162.429 411.559 162.152C411.367 161.875 411.271 161.501 411.271 161.032C411.271 160.264 411.49 159.704 411.927 159.352C412.364 158.989 412.972 158.808 413.751 158.808C414.327 158.808 414.807 158.861 415.191 158.968C415.586 159.064 415.927 159.181 416.215 159.32L415.911 160.376C415.666 160.259 415.367 160.157 415.015 160.072C414.674 159.976 414.306 159.928 413.911 159.928C413.442 159.928 413.095 160.008 412.871 160.168C412.658 160.328 412.551 160.605 412.551 161C412.551 161.277 412.647 161.496 412.839 161.656C413.031 161.805 413.266 161.944 413.543 162.072C413.831 162.189 414.14 162.307 414.471 162.424C414.812 162.541 415.122 162.696 415.399 162.888C415.687 163.08 415.927 163.325 416.119 163.624C416.311 163.912 416.407 164.296 416.407 164.776C416.407 165.117 416.348 165.437 416.231 165.736C416.124 166.035 415.954 166.291 415.719 166.504C415.484 166.717 415.191 166.883 414.839 167C414.498 167.128 414.092 167.192 413.623 167.192C413.015 167.192 412.498 167.133 412.071 167.016C411.644 166.899 411.287 166.76 410.999 166.6L411.383 165.512C411.628 165.651 411.948 165.779 412.343 165.896C412.738 166.013 413.138 166.072 413.543 166.072C414.002 166.072 414.38 165.981 414.679 165.8C414.978 165.619 415.127 165.293 415.127 164.824ZM417.893 166.264C417.893 165.976 417.973 165.752 418.133 165.592C418.304 165.421 418.528 165.336 418.805 165.336C419.093 165.336 419.323 165.421 419.493 165.592C419.664 165.752 419.749 165.976 419.749 166.264C419.749 166.541 419.664 166.765 419.493 166.936C419.323 167.107 419.093 167.192 418.805 167.192C418.528 167.192 418.304 167.107 418.133 166.936C417.973 166.765 417.893 166.541 417.893 166.264Z" fill="white"/>
<path opacity="0.5" d="M509.16 507C509.16 501.496 510.216 497.16 512.328 493.992C514.472 490.824 517.912 489.24 522.648 489.24C527.384 489.24 530.808 490.824 532.92 493.992C535.064 497.16 536.136 501.496 536.136 507C536.136 512.568 535.064 516.936 532.92 520.104C530.808 523.272 527.384 524.856 522.648 524.856C517.912 524.856 514.472 523.272 512.328 520.104C510.216 516.936 509.16 512.568 509.16 507ZM528.072 507C528.072 503.768 527.72 501.288 527.016 499.56C526.312 497.8 524.856 496.92 522.648 496.92C520.44 496.92 518.984 497.8 518.28 499.56C517.576 501.288 517.224 503.768 517.224 507C517.224 509.176 517.352 510.984 517.608 512.424C517.864 513.832 518.376 514.984 519.144 515.88C519.944 516.744 521.112 517.176 522.648 517.176C524.184 517.176 525.336 516.744 526.104 515.88C526.904 514.984 527.432 513.832 527.688 512.424C527.944 510.984 528.072 509.176 528.072 507ZM540.665 518.76V512.136L555.833 490.44H565.001V511.656H568.937V518.76H565.001V525H556.793V518.76H540.665ZM557.369 499.464L549.305 511.656H557.369V499.464Z" fill="white"/>
<g clip-path="url(#clip1_1818_40)">
<foreignObject x="100" y="169" width="386" height="436"><div xmlns="http://www.w3.org/1999/xhtml" style="backdrop-filter:blur(24px);clip-path:url(#bgblur_2_1818_40_clip_path);height:100%;width:100%"></div></foreignObject><g data-figma-bg-blur-radius="48">
<path d="M148 247C148 230.431 161.431 217 178 217H408C424.569 217 438 230.431 438 247V557H148V247Z" fill="white" fill-opacity="0.26"/>
<path d="M178 217.5H408C424.292 217.5 437.5 230.708 437.5 247V556.5H148.5V247C148.5 230.708 161.708 217.5 178 217.5Z" stroke="white" stroke-opacity="0.85"/>
</g>
<path d="M163 248C163 239.163 170.163 232 179 232H407C415.837 232 423 239.163 423 248V562H163V248Z" fill="#E8ECEF"/>
<rect x="173" y="244" width="240" height="60" rx="10" fill="white"/>
<path d="M225.413 266V265.224L227.225 263.547C227.379 263.397 227.508 263.263 227.613 263.144C227.719 263.025 227.799 262.908 227.854 262.793C227.908 262.677 227.936 262.552 227.936 262.418C227.936 262.269 227.902 262.14 227.834 262.033C227.766 261.923 227.673 261.84 227.555 261.782C227.438 261.722 227.304 261.692 227.155 261.692C226.999 261.692 226.864 261.724 226.748 261.787C226.632 261.85 226.542 261.94 226.479 262.058C226.416 262.175 226.385 262.315 226.385 262.478H225.363C225.363 262.145 225.438 261.855 225.589 261.61C225.74 261.365 225.951 261.175 226.223 261.041C226.495 260.907 226.808 260.839 227.163 260.839C227.527 260.839 227.845 260.904 228.115 261.033C228.386 261.161 228.598 261.338 228.749 261.565C228.899 261.792 228.975 262.053 228.975 262.346C228.975 262.538 228.937 262.728 228.86 262.915C228.786 263.102 228.652 263.31 228.46 263.539C228.268 263.766 227.997 264.039 227.647 264.357L226.904 265.085V265.12H229.042V266H225.413ZM231.721 266.07C231.338 266.07 230.998 266.007 230.699 265.883C230.403 265.757 230.17 265.586 230.001 265.369C229.832 265.152 229.747 264.905 229.747 264.63C229.747 264.418 229.795 264.223 229.891 264.046C229.989 263.867 230.122 263.719 230.289 263.601C230.457 263.482 230.644 263.406 230.851 263.373V263.338C230.579 263.283 230.359 263.151 230.19 262.942C230.021 262.732 229.936 262.488 229.936 262.209C229.936 261.946 230.013 261.711 230.167 261.506C230.321 261.299 230.533 261.136 230.801 261.018C231.071 260.899 231.378 260.839 231.721 260.839C232.064 260.839 232.37 260.899 232.638 261.018C232.908 261.138 233.12 261.301 233.275 261.508C233.429 261.714 233.507 261.947 233.508 262.209C233.507 262.489 233.42 262.734 233.25 262.942C233.079 263.151 232.86 263.283 232.593 263.338V263.373C232.797 263.406 232.982 263.482 233.148 263.601C233.315 263.719 233.448 263.867 233.546 264.046C233.645 264.223 233.696 264.418 233.697 264.63C233.696 264.905 233.61 265.152 233.441 265.369C233.272 265.586 233.038 265.757 232.74 265.883C232.444 266.007 232.104 266.07 231.721 266.07ZM231.721 265.279C231.892 265.279 232.041 265.248 232.168 265.187C232.296 265.124 232.395 265.038 232.467 264.929C232.54 264.818 232.576 264.69 232.576 264.546C232.576 264.398 232.539 264.268 232.464 264.156C232.39 264.041 232.289 263.952 232.161 263.887C232.033 263.821 231.887 263.788 231.721 263.788C231.557 263.788 231.41 263.821 231.281 263.887C231.152 263.952 231.05 264.041 230.975 264.156C230.902 264.268 230.866 264.398 230.866 264.546C230.866 264.69 230.901 264.818 230.973 264.929C231.044 265.038 231.144 265.124 231.274 265.187C231.403 265.248 231.552 265.279 231.721 265.279ZM231.721 263.005C231.863 263.005 231.99 262.976 232.101 262.918C232.212 262.86 232.299 262.779 232.362 262.676C232.425 262.574 232.457 262.455 232.457 262.321C232.457 262.188 232.425 262.072 232.362 261.973C232.299 261.872 232.213 261.793 232.104 261.737C231.994 261.679 231.867 261.65 231.721 261.65C231.577 261.65 231.449 261.679 231.338 261.737C231.227 261.793 231.14 261.872 231.077 261.973C231.016 262.072 230.985 262.188 230.985 262.321C230.985 262.455 231.017 262.574 231.08 262.676C231.143 262.779 231.23 262.86 231.341 262.918C231.452 262.976 231.578 263.005 231.721 263.005ZM237.904 266H236.1V260.909H237.919C238.431 260.909 238.872 261.011 239.242 261.215C239.611 261.417 239.896 261.708 240.094 262.087C240.295 262.467 240.395 262.921 240.395 263.45C240.395 263.98 240.295 264.436 240.094 264.817C239.896 265.198 239.61 265.49 239.237 265.694C238.866 265.898 238.421 266 237.904 266ZM237.176 265.078H237.86C238.178 265.078 238.445 265.021 238.663 264.909C238.881 264.794 239.045 264.618 239.155 264.379C239.266 264.139 239.321 263.829 239.321 263.45C239.321 263.073 239.266 262.766 239.155 262.527C239.045 262.289 238.882 262.113 238.665 262C238.448 261.888 238.18 261.831 237.862 261.831H237.176V265.078ZM242.913 266.075C242.52 266.075 242.182 265.995 241.898 265.836C241.617 265.675 241.4 265.448 241.247 265.155C241.095 264.86 241.018 264.511 241.018 264.108C241.018 263.716 241.095 263.371 241.247 263.074C241.4 262.778 241.614 262.546 241.891 262.381C242.169 262.215 242.496 262.132 242.87 262.132C243.122 262.132 243.357 262.173 243.574 262.254C243.793 262.333 243.983 262.454 244.146 262.614C244.31 262.775 244.437 262.977 244.528 263.221C244.62 263.463 244.665 263.746 244.665 264.071V264.362H241.441V263.706H243.668C243.668 263.553 243.635 263.418 243.569 263.3C243.503 263.183 243.411 263.091 243.293 263.025C243.177 262.957 243.042 262.923 242.888 262.923C242.727 262.923 242.585 262.96 242.46 263.034C242.338 263.107 242.241 263.206 242.172 263.33C242.102 263.453 242.067 263.59 242.065 263.74V264.364C242.065 264.553 242.1 264.717 242.169 264.854C242.241 264.992 242.341 265.098 242.47 265.172C242.599 265.247 242.753 265.284 242.93 265.284C243.048 265.284 243.155 265.268 243.253 265.234C243.351 265.201 243.435 265.152 243.504 265.085C243.574 265.019 243.627 264.938 243.663 264.842L244.643 264.906C244.593 265.142 244.491 265.347 244.337 265.523C244.185 265.697 243.987 265.833 243.745 265.93C243.505 266.027 243.228 266.075 242.913 266.075ZM247.081 266.075C246.69 266.075 246.354 265.992 246.072 265.826C245.792 265.659 245.577 265.427 245.426 265.13C245.277 264.833 245.202 264.492 245.202 264.106C245.202 263.715 245.277 263.372 245.428 263.077C245.581 262.78 245.797 262.549 246.077 262.383C246.357 262.216 246.69 262.132 247.076 262.132C247.409 262.132 247.701 262.193 247.951 262.314C248.202 262.435 248.4 262.604 248.545 262.823C248.691 263.042 248.772 263.299 248.787 263.594H247.787C247.759 263.403 247.685 263.25 247.564 263.134C247.444 263.016 247.288 262.957 247.094 262.957C246.93 262.957 246.786 263.002 246.664 263.092C246.543 263.179 246.448 263.308 246.38 263.477C246.312 263.646 246.278 263.851 246.278 264.091C246.278 264.335 246.312 264.542 246.378 264.712C246.446 264.883 246.541 265.013 246.664 265.103C246.786 265.192 246.93 265.237 247.094 265.237C247.215 265.237 247.323 265.212 247.419 265.162C247.517 265.113 247.598 265.04 247.661 264.946C247.725 264.85 247.767 264.735 247.787 264.6H248.787C248.77 264.892 248.69 265.149 248.548 265.371C248.407 265.592 248.212 265.764 247.964 265.888C247.715 266.012 247.421 266.075 247.081 266.075ZM250.616 265.304L250.588 265.577C250.567 265.796 250.525 266.014 250.464 266.231C250.404 266.45 250.341 266.648 250.275 266.825C250.21 267.003 250.158 267.142 250.118 267.243H249.432C249.457 267.145 249.491 267.008 249.534 266.833C249.577 266.659 249.618 266.463 249.656 266.246C249.694 266.029 249.718 265.808 249.728 265.582L249.741 265.304H250.616ZM252.955 266V265.224L254.767 263.547C254.921 263.397 255.05 263.263 255.155 263.144C255.261 263.025 255.341 262.908 255.396 262.793C255.45 262.677 255.478 262.552 255.478 262.418C255.478 262.269 255.444 262.14 255.376 262.033C255.308 261.923 255.215 261.84 255.097 261.782C254.98 261.722 254.846 261.692 254.697 261.692C254.541 261.692 254.406 261.724 254.29 261.787C254.174 261.85 254.084 261.94 254.021 262.058C253.958 262.175 253.927 262.315 253.927 262.478H252.905C252.905 262.145 252.98 261.855 253.131 261.61C253.282 261.365 253.493 261.175 253.765 261.041C254.037 260.907 254.35 260.839 254.705 260.839C255.069 260.839 255.387 260.904 255.657 261.033C255.928 261.161 256.14 261.338 256.291 261.565C256.441 261.792 256.517 262.053 256.517 262.346C256.517 262.538 256.479 262.728 256.402 262.915C256.328 263.102 256.194 263.31 256.002 263.539C255.81 263.766 255.539 264.039 255.189 264.357L254.446 265.085V265.12H256.584V266H252.955ZM259.36 266.112C258.932 266.11 258.564 266.005 258.256 265.796C257.95 265.587 257.713 265.285 257.548 264.889C257.384 264.493 257.302 264.016 257.304 263.46C257.304 262.904 257.386 262.431 257.55 262.04C257.716 261.649 257.952 261.352 258.259 261.148C258.567 260.942 258.934 260.839 259.36 260.839C259.786 260.839 260.152 260.942 260.459 261.148C260.767 261.353 261.004 261.652 261.17 262.043C261.335 262.432 261.417 262.904 261.416 263.46C261.416 264.018 261.333 264.495 261.167 264.891C261.003 265.287 260.768 265.59 260.461 265.799C260.155 266.007 259.787 266.112 259.36 266.112ZM259.36 265.219C259.652 265.219 259.884 265.073 260.058 264.779C260.232 264.486 260.319 264.046 260.317 263.46C260.317 263.073 260.277 262.752 260.198 262.495C260.12 262.238 260.009 262.045 259.865 261.916C259.722 261.787 259.554 261.722 259.36 261.722C259.07 261.722 258.838 261.867 258.664 262.157C258.49 262.447 258.402 262.881 258.4 263.46C258.4 263.851 258.439 264.177 258.517 264.439C258.597 264.699 258.709 264.895 258.853 265.026C258.997 265.155 259.166 265.219 259.36 265.219ZM262.183 266V265.224L263.995 263.547C264.149 263.397 264.279 263.263 264.383 263.144C264.489 263.025 264.57 262.908 264.624 262.793C264.679 262.677 264.706 262.552 264.706 262.418C264.706 262.269 264.672 262.14 264.604 262.033C264.536 261.923 264.444 261.84 264.326 261.782C264.208 261.722 264.075 261.692 263.926 261.692C263.77 261.692 263.634 261.724 263.518 261.787C263.402 261.85 263.313 261.94 263.25 262.058C263.187 262.175 263.155 262.315 263.155 262.478H262.133C262.133 262.145 262.209 261.855 262.36 261.61C262.51 261.365 262.722 261.175 262.994 261.041C263.265 260.907 263.579 260.839 263.933 260.839C264.298 260.839 264.615 260.904 264.885 261.033C265.157 261.161 265.368 261.338 265.519 261.565C265.67 261.792 265.745 262.053 265.745 262.346C265.745 262.538 265.707 262.728 265.631 262.915C265.556 263.102 265.423 263.31 265.231 263.539C265.039 263.766 264.768 264.039 264.418 264.357L263.675 265.085V265.12H265.812V266H262.183ZM268.546 266.07C268.284 266.068 268.032 266.024 267.788 265.938C267.546 265.852 267.329 265.712 267.137 265.518C266.944 265.324 266.792 265.067 266.679 264.747C266.568 264.427 266.513 264.035 266.513 263.569C266.514 263.141 266.563 262.759 266.659 262.423C266.757 262.085 266.896 261.798 267.077 261.563C267.259 261.328 267.477 261.149 267.731 261.026C267.984 260.902 268.269 260.839 268.583 260.839C268.923 260.839 269.223 260.906 269.483 261.038C269.743 261.169 269.952 261.347 270.11 261.573C270.269 261.798 270.365 262.051 270.398 262.331H269.337C269.295 262.154 269.208 262.014 269.076 261.913C268.943 261.812 268.779 261.762 268.583 261.762C268.252 261.762 268 261.906 267.828 262.194C267.657 262.483 267.57 262.875 267.567 263.37H267.602C267.678 263.219 267.781 263.091 267.91 262.985C268.041 262.877 268.189 262.795 268.355 262.739C268.522 262.681 268.699 262.652 268.884 262.652C269.186 262.652 269.454 262.723 269.69 262.865C269.925 263.006 270.111 263.2 270.246 263.447C270.382 263.694 270.45 263.977 270.45 264.295C270.45 264.639 270.37 264.946 270.209 265.214C270.05 265.483 269.827 265.693 269.54 265.846C269.255 265.997 268.924 266.071 268.546 266.07ZM268.541 265.224C268.707 265.224 268.855 265.185 268.986 265.105C269.117 265.026 269.22 264.918 269.294 264.782C269.369 264.646 269.406 264.494 269.406 264.325C269.406 264.156 269.369 264.004 269.294 263.87C269.221 263.735 269.12 263.629 268.991 263.549C268.862 263.469 268.714 263.43 268.549 263.43C268.424 263.43 268.309 263.453 268.203 263.499C268.099 263.546 268.007 263.61 267.927 263.693C267.849 263.776 267.788 263.872 267.743 263.982C267.699 264.089 267.676 264.204 267.676 264.327C267.676 264.491 267.713 264.641 267.788 264.777C267.864 264.913 267.967 265.021 268.096 265.103C268.227 265.184 268.375 265.224 268.541 265.224Z" fill="#513F9E"/>
<path d="M282.43 266V261.636H283.202V263.268H283.234C283.273 263.189 283.33 263.104 283.402 263.015C283.474 262.924 283.572 262.847 283.696 262.783C283.82 262.717 283.977 262.685 284.169 262.685C284.422 262.685 284.65 262.749 284.853 262.879C285.058 263.006 285.219 263.196 285.339 263.447C285.46 263.697 285.52 264.004 285.52 264.368C285.52 264.727 285.461 265.033 285.343 265.284C285.225 265.536 285.065 265.727 284.862 265.859C284.658 265.991 284.428 266.058 284.171 266.058C283.984 266.058 283.828 266.026 283.705 265.964C283.581 265.901 283.482 265.826 283.406 265.738C283.332 265.648 283.275 265.564 283.234 265.484H283.189V266H282.43ZM283.187 264.364C283.187 264.575 283.217 264.761 283.276 264.92C283.337 265.079 283.425 265.203 283.538 265.293C283.653 265.381 283.793 265.425 283.956 265.425C284.126 265.425 284.269 265.379 284.384 265.288C284.499 265.196 284.586 265.07 284.644 264.911C284.704 264.751 284.734 264.568 284.734 264.364C284.734 264.161 284.705 263.98 284.646 263.822C284.588 263.665 284.501 263.541 284.386 263.452C284.271 263.362 284.128 263.317 283.956 263.317C283.791 263.317 283.651 263.361 283.536 263.447C283.421 263.534 283.334 263.656 283.274 263.812C283.216 263.968 283.187 264.152 283.187 264.364ZM286.544 267.227C286.439 267.227 286.341 267.219 286.252 267.202C286.164 267.186 286.093 267.168 286.041 267.146L286.22 266.545C286.332 266.578 286.432 266.594 286.52 266.592C286.608 266.591 286.686 266.563 286.752 266.509C286.821 266.457 286.878 266.369 286.925 266.245L286.991 266.068L285.804 262.727H286.623L287.377 265.199H287.411L288.167 262.727H288.988L287.677 266.396C287.616 266.57 287.535 266.718 287.434 266.842C287.333 266.967 287.21 267.062 287.064 267.127C286.919 267.194 286.745 267.227 286.544 267.227ZM291.781 264.082V266H291.01V261.636H291.764V263.283H291.802C291.879 263.099 291.998 262.953 292.158 262.847C292.32 262.739 292.526 262.685 292.776 262.685C293.003 262.685 293.201 262.732 293.37 262.827C293.539 262.923 293.67 263.062 293.762 263.245C293.856 263.428 293.903 263.652 293.903 263.916V266H293.132V264.036C293.132 263.815 293.075 263.644 292.961 263.522C292.849 263.398 292.691 263.337 292.488 263.337C292.352 263.337 292.23 263.366 292.122 263.426C292.015 263.484 291.931 263.569 291.87 263.68C291.811 263.79 291.781 263.925 291.781 264.082ZM296.138 266.064C295.81 266.064 295.527 265.996 295.288 265.859C295.051 265.722 294.868 265.527 294.74 265.276C294.613 265.023 294.549 264.725 294.549 264.383C294.549 264.046 294.613 263.751 294.74 263.496C294.87 263.241 295.05 263.042 295.282 262.9C295.513 262.756 295.785 262.685 296.098 262.685C296.299 262.685 296.49 262.717 296.669 262.783C296.849 262.847 297.008 262.946 297.146 263.081C297.285 263.216 297.395 263.388 297.474 263.597C297.554 263.804 297.593 264.051 297.593 264.338V264.575H294.911V264.055H296.854C296.853 263.907 296.821 263.776 296.758 263.661C296.696 263.544 296.608 263.452 296.496 263.386C296.385 263.319 296.256 263.286 296.108 263.286C295.951 263.286 295.812 263.324 295.693 263.401C295.574 263.476 295.48 263.575 295.414 263.699C295.348 263.821 295.315 263.955 295.314 264.102V264.555C295.314 264.746 295.348 264.909 295.418 265.045C295.488 265.18 295.585 265.284 295.71 265.357C295.835 265.428 295.981 265.463 296.149 265.463C296.261 265.463 296.363 265.447 296.453 265.416C296.544 265.384 296.623 265.336 296.69 265.273C296.757 265.211 296.807 265.134 296.841 265.041L297.561 265.122C297.516 265.312 297.429 265.479 297.301 265.621C297.175 265.761 297.013 265.871 296.816 265.949C296.618 266.026 296.392 266.064 296.138 266.064ZM299.017 261.636V266H298.246V261.636H299.017ZM299.81 266V262.727H300.582V266H299.81ZM300.198 262.263C300.076 262.263 299.971 262.222 299.883 262.141C299.795 262.059 299.751 261.96 299.751 261.845C299.751 261.729 299.795 261.63 299.883 261.549C299.971 261.467 300.076 261.425 300.198 261.425C300.322 261.425 300.427 261.467 300.513 261.549C300.602 261.63 300.646 261.729 300.646 261.845C300.646 261.96 300.602 262.059 300.513 262.141C300.427 262.222 300.322 262.263 300.198 262.263ZM303.009 262.727V263.324H301.128V262.727H303.009ZM301.592 261.943H302.363V265.016C302.363 265.119 302.379 265.199 302.41 265.254C302.443 265.308 302.486 265.345 302.538 265.365C302.591 265.385 302.649 265.395 302.713 265.395C302.761 265.395 302.805 265.391 302.845 265.384C302.886 265.377 302.917 265.371 302.939 265.365L303.069 265.968C303.028 265.982 302.969 265.998 302.892 266.015C302.817 266.032 302.724 266.042 302.615 266.045C302.422 266.05 302.248 266.021 302.093 265.957C301.938 265.892 301.815 265.791 301.724 265.655C301.635 265.518 301.591 265.348 301.592 265.143V261.943ZM303.654 266V262.727H304.402V263.273H304.436C304.496 263.084 304.598 262.938 304.743 262.836C304.889 262.732 305.056 262.68 305.244 262.68C305.286 262.68 305.334 262.683 305.386 262.687C305.44 262.69 305.485 262.695 305.521 262.702V263.411C305.488 263.4 305.436 263.39 305.365 263.381C305.295 263.371 305.228 263.366 305.163 263.366C305.022 263.366 304.896 263.397 304.783 263.458C304.673 263.518 304.585 263.601 304.521 263.707C304.457 263.814 304.425 263.937 304.425 264.076V266H303.654ZM306.916 266.066C306.709 266.066 306.522 266.029 306.356 265.955C306.191 265.88 306.06 265.769 305.964 265.623C305.869 265.477 305.821 265.296 305.821 265.082C305.821 264.897 305.855 264.744 305.923 264.624C305.991 264.503 306.085 264.406 306.202 264.334C306.32 264.261 306.453 264.207 306.601 264.17C306.75 264.131 306.904 264.104 307.063 264.087C307.255 264.067 307.411 264.049 307.53 264.033C307.649 264.016 307.736 263.991 307.79 263.957C307.845 263.921 307.873 263.866 307.873 263.793V263.78C307.873 263.619 307.825 263.495 307.73 263.407C307.635 263.319 307.498 263.275 307.319 263.275C307.13 263.275 306.98 263.316 306.869 263.398C306.76 263.481 306.686 263.578 306.648 263.69L305.928 263.588C305.984 263.389 306.078 263.223 306.209 263.089C306.339 262.955 306.499 262.854 306.688 262.787C306.877 262.719 307.086 262.685 307.315 262.685C307.472 262.685 307.629 262.703 307.786 262.74C307.942 262.777 308.085 262.838 308.214 262.923C308.343 263.007 308.447 263.121 308.525 263.266C308.604 263.411 308.644 263.592 308.644 263.81V266H307.903V265.55H307.877C307.83 265.641 307.764 265.727 307.679 265.806C307.595 265.884 307.489 265.947 307.362 265.996C307.235 266.043 307.087 266.066 306.916 266.066ZM307.116 265.499C307.271 265.499 307.406 265.469 307.519 265.408C307.633 265.345 307.72 265.263 307.781 265.161C307.844 265.058 307.875 264.947 307.875 264.826V264.44C307.851 264.46 307.81 264.479 307.751 264.496C307.695 264.513 307.631 264.528 307.56 264.54C307.489 264.553 307.418 264.565 307.349 264.575C307.279 264.585 307.219 264.593 307.168 264.6C307.053 264.616 306.95 264.641 306.859 264.677C306.768 264.712 306.696 264.762 306.643 264.826C306.591 264.888 306.565 264.969 306.565 265.069C306.565 265.211 306.616 265.318 306.72 265.391C306.824 265.463 306.956 265.499 307.116 265.499ZM310.847 266.064C310.521 266.064 310.24 265.992 310.006 265.849C309.773 265.705 309.593 265.507 309.467 265.254C309.342 265 309.279 264.707 309.279 264.376C309.279 264.044 309.343 263.751 309.471 263.496C309.599 263.241 309.779 263.042 310.012 262.9C310.246 262.756 310.523 262.685 310.843 262.685C311.109 262.685 311.344 262.734 311.548 262.832C311.754 262.928 311.918 263.065 312.04 263.243C312.163 263.419 312.232 263.625 312.249 263.861H311.512C311.482 263.703 311.411 263.572 311.299 263.467C311.188 263.36 311.04 263.307 310.854 263.307C310.696 263.307 310.558 263.349 310.438 263.435C310.319 263.518 310.226 263.639 310.159 263.797C310.094 263.955 310.061 264.143 310.061 264.364C310.061 264.587 310.094 264.778 310.159 264.939C310.224 265.098 310.316 265.221 310.434 265.308C310.553 265.393 310.693 265.435 310.854 265.435C310.967 265.435 311.069 265.414 311.158 265.371C311.249 265.327 311.325 265.264 311.386 265.182C311.447 265.099 311.489 264.999 311.512 264.881H312.249C312.231 265.113 312.163 265.318 312.045 265.497C311.927 265.675 311.766 265.814 311.563 265.915C311.36 266.014 311.121 266.064 310.847 266.064ZM313.586 264.973L313.584 264.042H313.707L314.883 262.727H315.785L314.338 264.338H314.178L313.586 264.973ZM312.883 266V261.636H313.654V266H312.883ZM314.937 266L313.871 264.511L314.391 263.967L315.859 266H314.937ZM317.629 262.299V261.636H321.111V262.299H319.762V266H318.978V262.299H317.629ZM322.722 266.064C322.394 266.064 322.111 265.996 321.872 265.859C321.635 265.722 321.452 265.527 321.324 265.276C321.197 265.023 321.133 264.725 321.133 264.383C321.133 264.046 321.197 263.751 321.324 263.496C321.454 263.241 321.634 263.042 321.866 262.9C322.097 262.756 322.369 262.685 322.682 262.685C322.883 262.685 323.074 262.717 323.253 262.783C323.433 262.847 323.592 262.946 323.73 263.081C323.869 263.216 323.979 263.388 324.058 263.597C324.138 263.804 324.177 264.051 324.177 264.338V264.575H321.495V264.055H323.438C323.437 263.907 323.405 263.776 323.342 263.661C323.28 263.544 323.192 263.452 323.08 263.386C322.969 263.319 322.84 263.286 322.692 263.286C322.535 263.286 322.396 263.324 322.277 263.401C322.157 263.476 322.064 263.575 321.998 263.699C321.932 263.821 321.899 263.955 321.898 264.102V264.555C321.898 264.746 321.932 264.909 322.002 265.045C322.072 265.18 322.169 265.284 322.294 265.357C322.419 265.428 322.565 265.463 322.733 265.463C322.845 265.463 322.947 265.447 323.037 265.416C323.128 265.384 323.207 265.336 323.274 265.273C323.341 265.211 323.391 265.134 323.425 265.041L324.145 265.122C324.1 265.312 324.013 265.479 323.885 265.621C323.759 265.761 323.597 265.871 323.4 265.949C323.202 266.026 322.976 266.064 322.722 266.064ZM325.772 266.066C325.564 266.066 325.377 266.029 325.211 265.955C325.047 265.88 324.916 265.769 324.819 265.623C324.724 265.477 324.676 265.296 324.676 265.082C324.676 264.897 324.711 264.744 324.779 264.624C324.847 264.503 324.94 264.406 325.058 264.334C325.176 264.261 325.309 264.207 325.456 264.17C325.605 264.131 325.76 264.104 325.919 264.087C326.11 264.067 326.266 264.049 326.385 264.033C326.505 264.016 326.591 263.991 326.645 263.957C326.701 263.921 326.728 263.866 326.728 263.793V263.78C326.728 263.619 326.681 263.495 326.586 263.407C326.49 263.319 326.353 263.275 326.174 263.275C325.985 263.275 325.836 263.316 325.725 263.398C325.615 263.481 325.542 263.578 325.503 263.69L324.783 263.588C324.84 263.389 324.934 263.223 325.064 263.089C325.195 262.955 325.355 262.854 325.544 262.787C325.733 262.719 325.941 262.685 326.17 262.685C326.328 262.685 326.485 262.703 326.641 262.74C326.797 262.777 326.94 262.838 327.069 262.923C327.199 263.007 327.302 263.121 327.38 263.266C327.46 263.411 327.5 263.592 327.5 263.81V266H326.758V265.55H326.733C326.686 265.641 326.62 265.727 326.534 265.806C326.451 265.884 326.345 265.947 326.217 265.996C326.091 266.043 325.942 266.066 325.772 266.066ZM325.972 265.499C326.127 265.499 326.261 265.469 326.375 265.408C326.488 265.345 326.576 265.263 326.637 265.161C326.699 265.058 326.73 264.947 326.73 264.826V264.44C326.706 264.46 326.665 264.479 326.607 264.496C326.55 264.513 326.486 264.528 326.415 264.54C326.344 264.553 326.274 264.565 326.204 264.575C326.135 264.585 326.074 264.593 326.023 264.6C325.908 264.616 325.805 264.641 325.714 264.677C325.623 264.712 325.551 264.762 325.499 264.826C325.446 264.888 325.42 264.969 325.42 265.069C325.42 265.211 325.472 265.318 325.576 265.391C325.679 265.463 325.811 265.499 325.972 265.499ZM328.275 266V262.727H329.012V263.283H329.051C329.119 263.096 329.232 262.95 329.39 262.844C329.547 262.738 329.735 262.685 329.954 262.685C330.176 262.685 330.363 262.739 330.515 262.847C330.668 262.953 330.776 263.099 330.838 263.283H330.873C330.945 263.102 331.067 262.957 331.239 262.849C331.412 262.739 331.618 262.685 331.855 262.685C332.156 262.685 332.402 262.78 332.592 262.97C332.782 263.161 332.877 263.438 332.877 263.803V266H332.104V263.923C332.104 263.719 332.05 263.571 331.942 263.477C331.834 263.382 331.702 263.335 331.546 263.335C331.36 263.335 331.214 263.393 331.109 263.509C331.005 263.624 330.953 263.774 330.953 263.959V266H330.197V263.891C330.197 263.722 330.146 263.587 330.044 263.486C329.943 263.385 329.811 263.335 329.647 263.335C329.537 263.335 329.436 263.363 329.345 263.42C329.254 263.475 329.181 263.554 329.127 263.656C329.074 263.757 329.047 263.875 329.047 264.01V266H328.275Z" fill="#777777"/>
<path d="M224.528 279.406V278.273H231.283V279.406H228.56V287H227.247V279.406H224.528ZM233.947 283.114V287H232.673V278.273H233.93V281.52H234.011C234.164 281.168 234.399 280.888 234.714 280.68C235.029 280.473 235.441 280.369 235.95 280.369C236.399 280.369 236.791 280.462 237.126 280.646C237.464 280.831 237.725 281.107 237.91 281.473C238.098 281.837 238.191 282.291 238.191 282.837V287H236.917V282.99C236.917 282.51 236.794 282.138 236.547 281.874C236.299 281.607 235.956 281.473 235.515 281.473C235.214 281.473 234.944 281.537 234.706 281.665C234.47 281.793 234.284 281.98 234.147 282.227C234.014 282.472 233.947 282.767 233.947 283.114ZM239.892 287V280.455H241.166V287H239.892ZM240.535 279.445C240.314 279.445 240.123 279.371 239.964 279.223C239.808 279.072 239.73 278.893 239.73 278.686C239.73 278.476 239.808 278.297 239.964 278.149C240.123 277.999 240.314 277.923 240.535 277.923C240.757 277.923 240.946 277.999 241.102 278.149C241.261 278.297 241.341 278.476 241.341 278.686C241.341 278.893 241.261 279.072 241.102 279.223C240.946 279.371 240.757 279.445 240.535 279.445ZM247.785 282.053L246.63 282.257C246.582 282.109 246.505 281.969 246.4 281.835C246.298 281.702 246.158 281.592 245.982 281.507C245.806 281.422 245.586 281.379 245.322 281.379C244.961 281.379 244.66 281.46 244.418 281.622C244.177 281.781 244.056 281.987 244.056 282.24C244.056 282.459 244.137 282.635 244.299 282.768C244.461 282.902 244.722 283.011 245.083 283.097L246.123 283.335C246.725 283.474 247.174 283.689 247.469 283.979C247.765 284.268 247.913 284.645 247.913 285.108C247.913 285.5 247.799 285.849 247.572 286.156C247.347 286.46 247.033 286.699 246.63 286.872C246.229 287.045 245.765 287.132 245.237 287.132C244.504 287.132 243.906 286.976 243.442 286.663C242.979 286.348 242.695 285.901 242.59 285.321L243.822 285.134C243.898 285.455 244.056 285.697 244.295 285.862C244.533 286.024 244.844 286.105 245.228 286.105C245.646 286.105 245.979 286.018 246.229 285.845C246.479 285.669 246.604 285.455 246.604 285.202C246.604 284.997 246.528 284.825 246.374 284.686C246.224 284.547 245.992 284.442 245.68 284.371L244.572 284.128C243.961 283.989 243.509 283.767 243.217 283.463C242.927 283.159 242.782 282.774 242.782 282.308C242.782 281.922 242.89 281.584 243.106 281.294C243.322 281.004 243.62 280.778 244.001 280.616C244.381 280.452 244.817 280.369 245.309 280.369C246.016 280.369 246.573 280.523 246.979 280.83C247.386 281.134 247.654 281.541 247.785 282.053ZM257.394 282.053L256.239 282.257C256.191 282.109 256.114 281.969 256.009 281.835C255.907 281.702 255.768 281.592 255.592 281.507C255.415 281.422 255.195 281.379 254.931 281.379C254.57 281.379 254.269 281.46 254.028 281.622C253.786 281.781 253.665 281.987 253.665 282.24C253.665 282.459 253.746 282.635 253.908 282.768C254.07 282.902 254.332 283.011 254.692 283.097L255.732 283.335C256.335 283.474 256.783 283.689 257.079 283.979C257.374 284.268 257.522 284.645 257.522 285.108C257.522 285.5 257.408 285.849 257.181 286.156C256.957 286.46 256.643 286.699 256.239 286.872C255.839 287.045 255.374 287.132 254.846 287.132C254.113 287.132 253.515 286.976 253.052 286.663C252.589 286.348 252.305 285.901 252.2 285.321L253.431 285.134C253.508 285.455 253.665 285.697 253.904 285.862C254.143 286.024 254.454 286.105 254.837 286.105C255.255 286.105 255.589 286.018 255.839 285.845C256.089 285.669 256.214 285.455 256.214 285.202C256.214 284.997 256.137 284.825 255.984 284.686C255.833 284.547 255.602 284.442 255.289 284.371L254.181 284.128C253.57 283.989 253.119 283.767 252.826 283.463C252.536 283.159 252.391 282.774 252.391 282.308C252.391 281.922 252.499 281.584 252.715 281.294C252.931 281.004 253.229 280.778 253.61 280.616C253.991 280.452 254.427 280.369 254.918 280.369C255.626 280.369 256.183 280.523 256.589 280.83C256.995 281.134 257.263 281.541 257.394 282.053ZM260.197 283.114V287H258.923V278.273H260.18V281.52H260.261C260.414 281.168 260.649 280.888 260.964 280.68C261.279 280.473 261.691 280.369 262.2 280.369C262.649 280.369 263.041 280.462 263.376 280.646C263.714 280.831 263.975 281.107 264.16 281.473C264.348 281.837 264.441 282.291 264.441 282.837V287H263.167V282.99C263.167 282.51 263.044 282.138 262.797 281.874C262.549 281.607 262.206 281.473 261.765 281.473C261.464 281.473 261.194 281.537 260.956 281.665C260.72 281.793 260.534 281.98 260.397 282.227C260.264 282.472 260.197 282.767 260.197 283.114ZM266.142 287V280.455H267.416V287H266.142ZM266.785 279.445C266.564 279.445 266.373 279.371 266.214 279.223C266.058 279.072 265.98 278.893 265.98 278.686C265.98 278.476 266.058 278.297 266.214 278.149C266.373 277.999 266.564 277.923 266.785 277.923C267.007 277.923 267.196 277.999 267.352 278.149C267.511 278.297 267.591 278.476 267.591 278.686C267.591 278.893 267.511 279.072 267.352 279.223C267.196 279.371 267.007 279.445 266.785 279.445ZM269.13 289.455V280.455H270.374V281.516H270.481C270.555 281.379 270.661 281.222 270.8 281.043C270.94 280.864 271.133 280.707 271.38 280.574C271.627 280.438 271.954 280.369 272.36 280.369C272.888 280.369 273.36 280.503 273.775 280.77C274.19 281.037 274.515 281.422 274.751 281.925C274.989 282.428 275.109 283.033 275.109 283.74C275.109 284.447 274.991 285.054 274.755 285.56C274.519 286.062 274.195 286.45 273.783 286.723C273.371 286.993 272.901 287.128 272.373 287.128C271.975 287.128 271.65 287.061 271.397 286.928C271.147 286.794 270.951 286.638 270.809 286.459C270.667 286.28 270.558 286.121 270.481 285.982H270.404V289.455H269.13ZM270.379 283.727C270.379 284.187 270.445 284.591 270.579 284.938C270.712 285.284 270.906 285.555 271.158 285.751C271.411 285.945 271.721 286.041 272.087 286.041C272.468 286.041 272.786 285.94 273.042 285.739C273.298 285.534 273.491 285.257 273.621 284.908C273.755 284.558 273.822 284.165 273.822 283.727C273.822 283.295 273.756 282.908 273.626 282.564C273.498 282.22 273.305 281.949 273.046 281.75C272.79 281.551 272.471 281.452 272.087 281.452C271.718 281.452 271.406 281.547 271.15 281.737C270.897 281.928 270.705 282.193 270.575 282.534C270.444 282.875 270.379 283.273 270.379 283.727ZM276.536 287V280.455H277.759V281.52H277.84C277.977 281.159 278.2 280.878 278.509 280.676C278.819 280.472 279.19 280.369 279.621 280.369C280.059 280.369 280.425 280.472 280.721 280.676C281.019 280.881 281.239 281.162 281.381 281.52H281.45C281.606 281.17 281.854 280.892 282.195 280.685C282.536 280.474 282.942 280.369 283.414 280.369C284.008 280.369 284.492 280.555 284.867 280.928C285.245 281.3 285.434 281.861 285.434 282.611V287H284.16V282.73C284.16 282.287 284.039 281.966 283.798 281.767C283.556 281.568 283.268 281.469 282.933 281.469C282.518 281.469 282.195 281.597 281.965 281.852C281.735 282.105 281.62 282.43 281.62 282.828V287H280.35V282.649C280.35 282.294 280.239 282.009 280.018 281.793C279.796 281.577 279.508 281.469 279.153 281.469C278.911 281.469 278.688 281.533 278.484 281.661C278.282 281.786 278.119 281.96 277.994 282.185C277.871 282.409 277.81 282.669 277.81 282.964V287H276.536ZM289.963 287.132C289.318 287.132 288.762 286.994 288.297 286.719C287.833 286.44 287.475 286.05 287.223 285.547C286.973 285.041 286.848 284.449 286.848 283.77C286.848 283.099 286.973 282.509 287.223 281.997C287.475 281.486 287.828 281.087 288.279 280.8C288.734 280.513 289.265 280.369 289.873 280.369C290.243 280.369 290.6 280.43 290.947 280.553C291.294 280.675 291.605 280.866 291.88 281.128C292.156 281.389 292.373 281.729 292.532 282.146C292.691 282.561 292.771 283.065 292.771 283.659V284.111H287.568V283.156H291.522C291.522 282.821 291.454 282.524 291.318 282.266C291.181 282.004 290.99 281.798 290.743 281.648C290.498 281.497 290.211 281.422 289.882 281.422C289.524 281.422 289.211 281.51 288.944 281.686C288.68 281.859 288.475 282.087 288.331 282.368C288.189 282.646 288.118 282.949 288.118 283.276V284.021C288.118 284.459 288.194 284.831 288.348 285.138C288.504 285.445 288.721 285.679 289 285.841C289.278 286 289.603 286.08 289.975 286.08C290.217 286.08 290.437 286.045 290.636 285.977C290.835 285.906 291.007 285.801 291.152 285.662C291.297 285.523 291.407 285.351 291.484 285.146L292.69 285.364C292.593 285.719 292.42 286.03 292.17 286.297C291.923 286.561 291.612 286.767 291.237 286.915C290.865 287.06 290.44 287.132 289.963 287.132ZM295.459 283.114V287H294.185V280.455H295.408V281.52H295.489C295.639 281.173 295.875 280.895 296.196 280.685C296.52 280.474 296.928 280.369 297.419 280.369C297.865 280.369 298.256 280.463 298.591 280.651C298.926 280.835 299.186 281.111 299.371 281.477C299.555 281.844 299.648 282.297 299.648 282.837V287H298.374V282.99C298.374 282.516 298.25 282.145 298.003 281.878C297.756 281.608 297.416 281.473 296.984 281.473C296.689 281.473 296.426 281.537 296.196 281.665C295.969 281.793 295.788 281.98 295.655 282.227C295.524 282.472 295.459 282.767 295.459 283.114ZM304.412 280.455V281.477H300.837V280.455H304.412ZM301.795 278.886H303.07V285.078C303.07 285.325 303.107 285.511 303.18 285.636C303.254 285.759 303.349 285.842 303.466 285.888C303.585 285.93 303.714 285.952 303.854 285.952C303.956 285.952 304.045 285.945 304.122 285.93C304.199 285.916 304.259 285.905 304.301 285.896L304.531 286.949C304.457 286.977 304.352 287.006 304.216 287.034C304.08 287.065 303.909 287.082 303.705 287.085C303.369 287.091 303.057 287.031 302.767 286.906C302.477 286.781 302.243 286.588 302.064 286.327C301.885 286.065 301.795 285.737 301.795 285.342V278.886ZM310.271 283.114V287H308.997V278.273H310.254V281.52H310.335C310.489 281.168 310.723 280.888 311.038 280.68C311.354 280.473 311.766 280.369 312.274 280.369C312.723 280.369 313.115 280.462 313.45 280.646C313.788 280.831 314.05 281.107 314.234 281.473C314.422 281.837 314.516 282.291 314.516 282.837V287H313.241V282.99C313.241 282.51 313.118 282.138 312.871 281.874C312.624 281.607 312.28 281.473 311.839 281.473C311.538 281.473 311.268 281.537 311.03 281.665C310.794 281.793 310.608 281.98 310.472 282.227C310.338 282.472 310.271 282.767 310.271 283.114ZM318.121 287.145C317.706 287.145 317.331 287.068 316.996 286.915C316.661 286.759 316.395 286.533 316.199 286.237C316.006 285.942 315.909 285.58 315.909 285.151C315.909 284.781 315.98 284.477 316.122 284.239C316.264 284 316.456 283.811 316.697 283.672C316.939 283.533 317.209 283.428 317.507 283.357C317.805 283.286 318.109 283.232 318.419 283.195C318.811 283.149 319.129 283.112 319.374 283.084C319.618 283.053 319.795 283.003 319.906 282.935C320.017 282.866 320.072 282.756 320.072 282.602V282.572C320.072 282.2 319.967 281.912 319.757 281.707C319.55 281.503 319.24 281.401 318.828 281.401C318.399 281.401 318.061 281.496 317.814 281.686C317.57 281.874 317.401 282.082 317.307 282.312L316.109 282.04C316.251 281.642 316.459 281.321 316.732 281.077C317.007 280.83 317.324 280.651 317.682 280.54C318.04 280.426 318.416 280.369 318.811 280.369C319.072 280.369 319.349 280.401 319.642 280.463C319.938 280.523 320.213 280.634 320.469 280.795C320.727 280.957 320.939 281.189 321.104 281.49C321.268 281.788 321.351 282.176 321.351 282.653V287H320.107V286.105H320.055C319.973 286.27 319.849 286.432 319.685 286.591C319.52 286.75 319.308 286.882 319.05 286.987C318.791 287.092 318.482 287.145 318.121 287.145ZM318.398 286.122C318.75 286.122 319.051 286.053 319.301 285.913C319.554 285.774 319.746 285.592 319.876 285.368C320.01 285.141 320.077 284.898 320.077 284.639V283.795C320.031 283.841 319.943 283.884 319.812 283.923C319.685 283.96 319.538 283.993 319.374 284.021C319.209 284.047 319.048 284.071 318.892 284.094C318.736 284.114 318.605 284.131 318.5 284.145C318.253 284.176 318.027 284.229 317.822 284.303C317.621 284.376 317.459 284.483 317.337 284.622C317.217 284.759 317.158 284.94 317.158 285.168C317.158 285.483 317.274 285.722 317.507 285.884C317.74 286.043 318.037 286.122 318.398 286.122ZM327.953 282.053L326.798 282.257C326.75 282.109 326.673 281.969 326.568 281.835C326.466 281.702 326.326 281.592 326.15 281.507C325.974 281.422 325.754 281.379 325.49 281.379C325.129 281.379 324.828 281.46 324.586 281.622C324.345 281.781 324.224 281.987 324.224 282.24C324.224 282.459 324.305 282.635 324.467 282.768C324.629 282.902 324.89 283.011 325.251 283.097L326.291 283.335C326.893 283.474 327.342 283.689 327.637 283.979C327.933 284.268 328.081 284.645 328.081 285.108C328.081 285.5 327.967 285.849 327.74 286.156C327.515 286.46 327.201 286.699 326.798 286.872C326.397 287.045 325.933 287.132 325.404 287.132C324.672 287.132 324.074 286.976 323.61 286.663C323.147 286.348 322.863 285.901 322.758 285.321L323.99 285.134C324.066 285.455 324.224 285.697 324.463 285.862C324.701 286.024 325.012 286.105 325.396 286.105C325.814 286.105 326.147 286.018 326.397 285.845C326.647 285.669 326.772 285.455 326.772 285.202C326.772 284.997 326.696 284.825 326.542 284.686C326.392 284.547 326.16 284.442 325.848 284.371L324.74 284.128C324.129 283.989 323.677 283.767 323.385 283.463C323.095 283.159 322.95 282.774 322.95 282.308C322.95 281.922 323.058 281.584 323.274 281.294C323.49 281.004 323.788 280.778 324.169 280.616C324.549 280.452 324.985 280.369 325.477 280.369C326.184 280.369 326.741 280.523 327.147 280.83C327.554 281.134 327.822 281.541 327.953 282.053ZM334.562 287.145C334.147 287.145 333.772 287.068 333.437 286.915C333.102 286.759 332.836 286.533 332.64 286.237C332.447 285.942 332.35 285.58 332.35 285.151C332.35 284.781 332.422 284.477 332.564 284.239C332.706 284 332.897 283.811 333.139 283.672C333.38 283.533 333.65 283.428 333.949 283.357C334.247 283.286 334.551 283.232 334.86 283.195C335.252 283.149 335.571 283.112 335.815 283.084C336.059 283.053 336.237 283.003 336.348 282.935C336.458 282.866 336.514 282.756 336.514 282.602V282.572C336.514 282.2 336.409 281.912 336.199 281.707C335.991 281.503 335.681 281.401 335.27 281.401C334.841 281.401 334.502 281.496 334.255 281.686C334.011 281.874 333.842 282.082 333.748 282.312L332.551 282.04C332.693 281.642 332.9 281.321 333.173 281.077C333.449 280.83 333.765 280.651 334.123 280.54C334.481 280.426 334.858 280.369 335.252 280.369C335.514 280.369 335.791 280.401 336.083 280.463C336.379 280.523 336.654 280.634 336.91 280.795C337.169 280.957 337.38 281.189 337.545 281.49C337.71 281.788 337.792 282.176 337.792 282.653V287H336.548V286.105H336.497C336.414 286.27 336.291 286.432 336.126 286.591C335.961 286.75 335.75 286.882 335.491 286.987C335.233 287.092 334.923 287.145 334.562 287.145ZM334.839 286.122C335.191 286.122 335.493 286.053 335.743 285.913C335.995 285.774 336.187 285.592 336.318 285.368C336.451 285.141 336.518 284.898 336.518 284.639V283.795C336.473 283.841 336.385 283.884 336.254 283.923C336.126 283.96 335.98 283.993 335.815 284.021C335.65 284.047 335.49 284.071 335.333 284.094C335.177 284.114 335.047 284.131 334.941 284.145C334.694 284.176 334.468 284.229 334.264 284.303C334.062 284.376 333.9 284.483 333.778 284.622C333.659 284.759 333.599 284.94 333.599 285.168C333.599 285.483 333.716 285.722 333.949 285.884C334.181 286.043 334.478 286.122 334.839 286.122ZM339.489 287V280.455H340.721V281.494H340.789C340.908 281.142 341.119 280.865 341.42 280.663C341.724 280.459 342.067 280.357 342.451 280.357C342.531 280.357 342.624 280.359 342.732 280.365C342.843 280.371 342.93 280.378 342.992 280.386V281.605C342.941 281.591 342.85 281.575 342.719 281.558C342.589 281.538 342.458 281.528 342.327 281.528C342.026 281.528 341.758 281.592 341.522 281.72C341.289 281.845 341.104 282.02 340.968 282.244C340.832 282.466 340.763 282.719 340.763 283.003V287H339.489ZM344.095 287V280.455H345.326V281.494H345.395C345.514 281.142 345.724 280.865 346.025 280.663C346.329 280.459 346.673 280.357 347.056 280.357C347.136 280.357 347.23 280.359 347.338 280.365C347.449 280.371 347.535 280.378 347.598 280.386V281.605C347.547 281.591 347.456 281.575 347.325 281.558C347.194 281.538 347.064 281.528 346.933 281.528C346.632 281.528 346.363 281.592 346.127 281.72C345.895 281.845 345.71 282.02 345.574 282.244C345.437 282.466 345.369 282.719 345.369 283.003V287H344.095ZM348.7 287V280.455H349.974V287H348.7ZM349.344 279.445C349.122 279.445 348.932 279.371 348.773 279.223C348.616 279.072 348.538 278.893 348.538 278.686C348.538 278.476 348.616 278.297 348.773 278.149C348.932 277.999 349.122 277.923 349.344 277.923C349.565 277.923 349.754 277.999 349.911 278.149C350.07 278.297 350.149 278.476 350.149 278.686C350.149 278.893 350.07 279.072 349.911 279.223C349.754 279.371 349.565 279.445 349.344 279.445ZM357.288 280.455L354.914 287H353.551L351.173 280.455H352.541L354.199 285.491H354.267L355.92 280.455H357.288ZM361.084 287.132C360.439 287.132 359.884 286.994 359.418 286.719C358.955 286.44 358.597 286.05 358.344 285.547C358.094 285.041 357.969 284.449 357.969 283.77C357.969 283.099 358.094 282.509 358.344 281.997C358.597 281.486 358.949 281.087 359.401 280.8C359.855 280.513 360.386 280.369 360.994 280.369C361.364 280.369 361.722 280.43 362.068 280.553C362.415 280.675 362.726 280.866 363.001 281.128C363.277 281.389 363.494 281.729 363.653 282.146C363.813 282.561 363.892 283.065 363.892 283.659V284.111H358.689V283.156H362.643C362.643 282.821 362.575 282.524 362.439 282.266C362.303 282.004 362.111 281.798 361.864 281.648C361.619 281.497 361.332 281.422 361.003 281.422C360.645 281.422 360.332 281.51 360.065 281.686C359.801 281.859 359.597 282.087 359.452 282.368C359.31 282.646 359.239 282.949 359.239 283.276V284.021C359.239 284.459 359.315 284.831 359.469 285.138C359.625 285.445 359.842 285.679 360.121 285.841C360.399 286 360.724 286.08 361.097 286.08C361.338 286.08 361.558 286.045 361.757 285.977C361.956 285.906 362.128 285.801 362.273 285.662C362.418 285.523 362.528 285.351 362.605 285.146L363.811 285.364C363.714 285.719 363.541 286.03 363.291 286.297C363.044 286.561 362.733 286.767 362.358 286.915C361.986 287.06 361.561 287.132 361.084 287.132ZM367.756 287.128C367.228 287.128 366.756 286.993 366.341 286.723C365.929 286.45 365.605 286.062 365.37 285.56C365.137 285.054 365.02 284.447 365.02 283.74C365.02 283.033 365.138 282.428 365.374 281.925C365.613 281.422 365.939 281.037 366.354 280.77C366.769 280.503 367.239 280.369 367.765 280.369C368.171 280.369 368.498 280.438 368.745 280.574C368.995 280.707 369.188 280.864 369.324 281.043C369.463 281.222 369.571 281.379 369.648 281.516H369.725V278.273H370.999V287H369.755V285.982H369.648C369.571 286.121 369.461 286.28 369.316 286.459C369.174 286.638 368.978 286.794 368.728 286.928C368.478 287.061 368.154 287.128 367.756 287.128ZM368.037 286.041C368.404 286.041 368.713 285.945 368.966 285.751C369.222 285.555 369.415 285.284 369.546 284.938C369.679 284.591 369.746 284.187 369.746 283.727C369.746 283.273 369.681 282.875 369.55 282.534C369.419 282.193 369.228 281.928 368.975 281.737C368.722 281.547 368.409 281.452 368.037 281.452C367.654 281.452 367.334 281.551 367.078 281.75C366.823 281.949 366.63 282.22 366.499 282.564C366.371 282.908 366.307 283.295 366.307 283.727C366.307 284.165 366.373 284.558 366.503 284.908C366.634 285.257 366.827 285.534 367.083 285.739C367.341 285.94 367.659 286.041 368.037 286.041Z" fill="black"/>
<circle opacity="0.1" cx="200" cy="274" r="15" fill="#E40C28"/>
<circle cx="200" cy="274" r="10" fill="#E40C28"/>
<path d="M202.802 272.4C203.464 272.4 204.002 271.863 204.002 271.2C204.002 270.537 203.464 270 202.802 270C202.139 270 201.602 270.537 201.602 271.2C201.602 271.863 202.139 272.4 202.802 272.4Z" stroke="white" stroke-width="0.8" stroke-linecap="round" stroke-linejoin="round"/>
<path d="M198 274.4H200" stroke="white" stroke-width="0.8" stroke-linecap="round" stroke-linejoin="round"/>
<path d="M198 276H201.6" stroke="white" stroke-width="0.8" stroke-linecap="round" stroke-linejoin="round"/>
<path d="M200.8 270H198.8C196.8 270 196 270.8 196 272.8V275.2C196 277.2 196.8 278 198.8 278H201.2C203.2 278 204 277.2 204 275.2V273.2" stroke="white" stroke-width="0.8" stroke-linecap="round" stroke-linejoin="round"/>
<rect x="173" y="312" width="240" height="60" rx="10" fill="white"/>
<rect x="224" y="329" width="40" height="6" rx="3" fill="#E5E2F0"/>
<rect x="276" y="329" width="50" height="6" rx="3" fill="#ECECEC"/>
<rect x="225" y="348" width="151" height="6" rx="3" fill="#929292"/>
<circle opacity="0.1" cx="200" cy="342" r="15" fill="#E40C28"/>
<circle cx="200" cy="342" r="10" fill="#E40C28"/>
<path d="M202.802 340.4C203.464 340.4 204.002 339.863 204.002 339.2C204.002 338.537 203.464 338 202.802 338C202.139 338 201.602 338.537 201.602 339.2C201.602 339.863 202.139 340.4 202.802 340.4Z" stroke="white" stroke-width="0.8" stroke-linecap="round" stroke-linejoin="round"/>
<path d="M198 342.4H200" stroke="white" stroke-width="0.8" stroke-linecap="round" stroke-linejoin="round"/>
<path d="M198 344H201.6" stroke="white" stroke-width="0.8" stroke-linecap="round" stroke-linejoin="round"/>
<path d="M200.8 338H198.8C196.8 338 196 338.8 196 340.8V343.2C196 345.2 196.8 346 198.8 346H201.2C203.2 346 204 345.2 204 343.2V341.2" stroke="white" stroke-width="0.8" stroke-linecap="round" stroke-linejoin="round"/>
<rect x="173" y="380" width="240" height="60" rx="10" fill="white"/>
<rect x="224" y="397" width="40" height="6" rx="3" fill="#E5E2F0"/>
<rect x="276" y="397" width="50" height="6" rx="3" fill="#ECECEC"/>
<rect x="225" y="416" width="151" height="6" rx="3" fill="#929292"/>
<circle opacity="0.1" cx="200" cy="410" r="15" fill="#E40C28"/>
<circle cx="200" cy="410" r="10" fill="#E40C28"/>
<path d="M202.802 408.4C203.464 408.4 204.002 407.863 204.002 407.2C204.002 406.537 203.464 406 202.802 406C202.139 406 201.602 406.537 201.602 407.2C201.602 407.863 202.139 408.4 202.802 408.4Z" stroke="white" stroke-width="0.8" stroke-linecap="round" stroke-linejoin="round"/>
<path d="M198 410.4H200" stroke="white" stroke-width="0.8" stroke-linecap="round" stroke-linejoin="round"/>
<path d="M198 412H201.6" stroke="white" stroke-width="0.8" stroke-linecap="round" stroke-linejoin="round"/>
<path d="M200.8 406H198.8C196.8 406 196 406.8 196 408.8V411.2C196 413.2 196.8 414 198.8 414H201.2C203.2 414 204 413.2 204 411.2V409.2" stroke="white" stroke-width="0.8" stroke-linecap="round" stroke-linejoin="round"/>
<rect x="173" y="448" width="240" height="60" rx="10" fill="white"/>
<rect x="224" y="465" width="40" height="6" rx="3" fill="#E5E2F0"/>
<rect x="276" y="465" width="50" height="6" rx="3" fill="#ECECEC"/>
<rect x="225" y="484" width="151" height="6" rx="3" fill="#929292"/>
<circle opacity="0.1" cx="200" cy="478" r="15" fill="#E40C28"/>
<circle cx="200" cy="478" r="10" fill="#E40C28"/>
<path d="M202.802 476.4C203.464 476.4 204.002 475.863 204.002 475.2C204.002 474.537 203.464 474 202.802 474C202.139 474 201.602 474.537 201.602 475.2C201.602 475.863 202.139 476.4 202.802 476.4Z" stroke="white" stroke-width="0.8" stroke-linecap="round" stroke-linejoin="round"/>
<path d="M198 478.4H200" stroke="white" stroke-width="0.8" stroke-linecap="round" stroke-linejoin="round"/>
<path d="M198 480H201.6" stroke="white" stroke-width="0.8" stroke-linecap="round" stroke-linejoin="round"/>
<path d="M200.8 474H198.8C196.8 474 196 474.8 196 476.8V479.2C196 481.2 196.8 482 198.8 482H201.2C203.2 482 204 481.2 204 479.2V477.2" stroke="white" stroke-width="0.8" stroke-linecap="round" stroke-linejoin="round"/>
<rect x="173" y="516" width="240" height="60" rx="10" fill="white"/>
<rect x="224" y="533" width="40" height="6" rx="3" fill="#E5E2F0"/>
<rect x="276" y="533" width="50" height="6" rx="3" fill="#ECECEC"/>
<rect x="225" y="552" width="151" height="6" rx="3" fill="#929292"/>
<circle opacity="0.1" cx="200" cy="546" r="15" fill="#E40C28"/>
<circle cx="200" cy="546" r="10" fill="#E40C28"/>
<path d="M202.802 544.4C203.464 544.4 204.002 543.863 204.002 543.2C204.002 542.537 203.464 542 202.802 542C202.139 542 201.602 542.537 201.602 543.2C201.602 543.863 202.139 544.4 202.802 544.4Z" stroke="white" stroke-width="0.8" stroke-linecap="round" stroke-linejoin="round"/>
<path d="M198 546.4H200" stroke="white" stroke-width="0.8" stroke-linecap="round" stroke-linejoin="round"/>
<path d="M198 548H201.6" stroke="white" stroke-width="0.8" stroke-linecap="round" stroke-linejoin="round"/>
<path d="M200.8 542H198.8C196.8 542 196 542.8 196 544.8V547.2C196 549.2 196.8 550 198.8 550H201.2C203.2 550 204 549.2 204 547.2V545.2" stroke="white" stroke-width="0.8" stroke-linecap="round" stroke-linejoin="round"/>
</g>
<defs>
<clipPath id="bgblur_2_1818_40_clip_path" transform="translate(-100 -169)"><path d="M148 247C148 230.431 161.431 217 178 217H408C424.569 217 438 230.431 438 247V557H148V247Z"/>
</clipPath><linearGradient id="paint0_linear_1818_40" x1="293" y1="0" x2="293" y2="557" gradientUnits="userSpaceOnUse">
<stop stop-color="#E40C28"/>
<stop offset="1" stop-color="#E40C28" stop-opacity="0.960784"/>
</linearGradient>
<clipPath id="clip0_1818_40">
<rect width="270" height="556" fill="white" transform="translate(316)"/>
</clipPath>
<clipPath id="clip1_1818_40">
<rect width="290" height="340" fill="white" transform="translate(148 217)"/>
</clipPath>
</defs>
</svg>
