<svg preserveAspectRatio="none" width="100%" height="100%" overflow="visible" style="display: block;" viewBox="0 0 270 556" fill="none" xmlns="http://www.w3.org/2000/svg">
<g id="Image" clip-path="url(#clip0_0_4)">
<path id="Vector" opacity="0.2" d="M404.18 457.259C558.007 457.259 682.708 332.553 682.708 178.721C682.708 24.889 558.007 -99.8167 404.18 -99.8167C250.353 -99.8167 125.652 24.889 125.652 178.721C125.652 332.553 250.353 457.259 404.18 457.259Z" stroke="var(--stroke-0, #C4C4C4)"/>
<path id="Vector_2" opacity="0.2" d="M347.977 507.559C501.803 507.559 626.505 382.853 626.505 229.021C626.505 75.1886 501.803 -49.5171 347.977 -49.5171C194.15 -49.5171 69.4492 75.1886 69.4492 229.021C69.4492 382.853 194.15 507.559 347.977 507.559Z" stroke="var(--stroke-0, #C4C4C4)"/>
<path id="Vector_3" opacity="0.2" d="M319.157 524.325C472.983 524.325 597.684 399.619 597.684 245.787C597.684 91.9549 472.983 -32.7507 319.157 -32.7507C165.33 -32.7507 40.6289 91.9549 40.6289 245.787C40.6289 399.619 165.33 524.325 319.157 524.325Z" stroke="var(--stroke-0, #C4C4C4)"/>
<path id="Vector_4" opacity="0.2" d="M279.258 541.092C433.085 541.092 557.786 416.386 557.786 262.554C557.786 108.722 433.085 -15.9841 279.258 -15.9841C125.432 -15.9841 0.730469 108.722 0.730469 262.554C0.730469 416.386 125.432 541.092 279.258 541.092Z" stroke="var(--stroke-0, #C4C4C4)"/>
</g>
<defs>
<clipPath id="clip0_0_4">
<rect width="270" height="556" fill="white"/>
</clipPath>
</defs>
</svg>
